<svg width="99" height="33" viewBox="0 0 99 33" fill="none" xmlns="http://www.w3.org/2000/svg">
<path d="M77.1528 12.8574L81.9985 20.3672H78.1655L75.2514 15.8506L72.2114 20.6396H68.3774L73.3198 12.8564L68.5825 5.51367H72.4155L75.2211 9.8623L81.4858 0H85.3188L77.1528 12.8574Z" fill="#1DE9B6"/>
<path d="M20.0304 5.79734C21.5765 5.79734 22.9328 6.09953 24.0994 6.70391C25.2801 7.30829 26.1866 8.1727 26.8191 9.29713C27.4657 10.4075 27.7889 11.7006 27.7889 13.1764C27.7889 14.6522 27.4657 15.9453 26.8191 17.0557C26.1866 18.152 25.2801 19.0024 24.0994 19.6067C22.9328 20.2111 21.5765 20.5133 20.0304 20.5133H14.8861V5.79734H20.0304ZM19.925 18.0044C21.4711 18.0044 22.6658 17.5828 23.5091 16.7394C24.3524 15.8961 24.7741 14.7084 24.7741 13.1764C24.7741 11.6444 24.3524 10.4497 23.5091 9.59229C22.6658 8.72086 21.4711 8.28514 19.925 8.28514H17.8377V18.0044H19.925ZM32.95 10.6464C33.3295 10.028 33.8214 9.5431 34.4258 9.19171C35.0443 8.84033 35.747 8.66464 36.5341 8.66464V11.7638H35.7541C34.8264 11.7638 34.1236 11.9817 33.6457 12.4174C33.1819 12.8531 32.95 13.6121 32.95 14.6944V20.5133H29.9984V8.8333H32.95V10.6464ZM40.0191 7.44182C39.499 7.44182 39.0633 7.28018 38.7119 6.95691C38.3746 6.61958 38.2059 6.20495 38.2059 5.71301C38.2059 5.22107 38.3746 4.81347 38.7119 4.49019C39.0633 4.15286 39.499 3.9842 40.0191 3.9842C40.5391 3.9842 40.9678 4.15286 41.3051 4.49019C41.6565 4.81347 41.8322 5.22107 41.8322 5.71301C41.8322 6.20495 41.6565 6.61958 41.3051 6.95691C40.9678 7.28018 40.5391 7.44182 40.0191 7.44182ZM41.4738 8.8333V20.5133H38.5222V8.8333H41.4738ZM49.2602 17.7936L52.2118 8.8333H55.3532L51.0312 20.5133H47.4471L43.1461 8.8333H46.3086L49.2602 17.7936ZM67.8688 14.4203C67.8688 14.842 67.8407 15.2215 67.7845 15.5588H59.2458C59.3161 16.4021 59.6113 17.0627 60.1313 17.5406C60.6514 18.0185 61.2909 18.2574 62.0499 18.2574C63.1462 18.2574 63.9263 17.7866 64.3901 16.8449H67.5736C67.2363 17.9693 66.5898 18.8969 65.634 19.6278C64.6782 20.3446 63.5046 20.7031 62.1131 20.7031C60.9887 20.7031 59.9767 20.4571 59.0772 19.9651C58.1917 19.4592 57.4959 18.7494 56.9899 17.8358C56.498 16.9222 56.252 15.868 56.252 14.6733C56.252 13.4645 56.498 12.4034 56.9899 11.4898C57.4819 10.5762 58.1706 9.8734 59.0561 9.38146C59.9416 8.88952 60.9606 8.64355 62.1131 8.64355C63.2235 8.64355 64.2144 8.88249 65.0858 9.36038C65.9713 9.83826 66.653 10.5199 67.1309 11.4054C67.6228 12.2769 67.8688 13.2818 67.8688 14.4203ZM64.8118 13.577C64.7977 12.818 64.5236 12.2136 63.9895 11.7638C63.4554 11.3 62.8018 11.0681 62.0288 11.0681C61.2979 11.0681 60.6795 11.293 60.1735 11.7428C59.6815 12.1785 59.3794 12.7899 59.2669 13.577H64.8118Z" fill="white"/>
<path d="M4.08177 31.1695H1.74705L1.31697 32.3599H0.579688L2.51505 27.0376H3.32145L5.24913 32.3599H4.51185L4.08177 31.1695ZM3.88209 30.6011L2.91441 27.8978L1.94673 30.6011H3.88209ZM6.79149 26.6767V32.3599H6.09261V26.6767H6.79149ZM8.68149 26.6767V32.3599H7.98261V26.6767H8.68149ZM13.6174 32.4136C13.2641 32.4136 12.9467 32.3522 12.6651 32.2293C12.3886 32.1013 12.171 31.9272 12.0123 31.7071C11.8535 31.4818 11.7716 31.2232 11.7665 30.9314H12.5115C12.5371 31.1823 12.6395 31.3947 12.8187 31.5688C13.003 31.7378 13.2692 31.8223 13.6174 31.8223C13.9502 31.8223 14.2113 31.7403 14.4007 31.5765C14.5953 31.4075 14.6926 31.1925 14.6926 30.9314C14.6926 30.7266 14.6363 30.5602 14.5236 30.4322C14.411 30.3042 14.2702 30.2069 14.1012 30.1403C13.9323 30.0738 13.7044 30.0021 13.4177 29.9253C13.0644 29.8331 12.7803 29.741 12.5652 29.6488C12.3553 29.5567 12.1735 29.4133 12.0199 29.2187C11.8715 29.0191 11.7972 28.7528 11.7972 28.42C11.7972 28.1282 11.8715 27.8696 12.0199 27.6443C12.1684 27.4191 12.3758 27.245 12.642 27.1221C12.9134 26.9992 13.2231 26.9378 13.5713 26.9378C14.0731 26.9378 14.4827 27.0632 14.8001 27.3141C15.1227 27.565 15.3044 27.8978 15.3454 28.3125H14.5774C14.5518 28.1077 14.4443 27.9285 14.2548 27.7749C14.0654 27.6162 13.8145 27.5368 13.5022 27.5368C13.2103 27.5368 12.9723 27.6136 12.7879 27.7672C12.6036 27.9157 12.5115 28.1256 12.5115 28.397C12.5115 28.5915 12.5652 28.7503 12.6727 28.8731C12.7854 28.996 12.9211 29.0907 13.0798 29.1573C13.2436 29.2187 13.4715 29.2904 13.7633 29.3723C14.1166 29.4696 14.4007 29.5669 14.6158 29.6642C14.8308 29.7563 15.0151 29.9023 15.1687 30.1019C15.3223 30.2965 15.3991 30.5627 15.3991 30.9007C15.3991 31.1618 15.33 31.4075 15.1918 31.6379C15.0535 31.8683 14.8487 32.0552 14.5774 32.1986C14.306 32.3419 13.986 32.4136 13.6174 32.4136ZM20.2676 30.0943C20.2676 30.2274 20.2599 30.3682 20.2446 30.5167H16.8807C16.9063 30.9314 17.0471 31.2565 17.3031 31.492C17.5642 31.7224 17.8791 31.8376 18.2478 31.8376C18.5498 31.8376 18.8007 31.7685 19.0004 31.6303C19.2052 31.4869 19.3486 31.2975 19.4305 31.0619H20.1831C20.0705 31.4664 19.8452 31.7967 19.5073 32.0527C19.1694 32.3035 18.7495 32.429 18.2478 32.429C17.8484 32.429 17.49 32.3394 17.1726 32.1602C16.8602 31.981 16.6145 31.7275 16.4353 31.3999C16.2561 31.0671 16.1665 30.6831 16.1665 30.2479C16.1665 29.8127 16.2535 29.4312 16.4276 29.1035C16.6017 28.7759 16.8449 28.525 17.1572 28.3509C17.4746 28.1717 17.8382 28.0821 18.2478 28.0821C18.6471 28.0821 19.0004 28.1691 19.3076 28.3432C19.6148 28.5173 19.8503 28.7579 20.0142 29.0651C20.1831 29.3672 20.2676 29.7103 20.2676 30.0943ZM19.5457 29.9483C19.5457 29.6821 19.4868 29.4543 19.369 29.2648C19.2513 29.0703 19.09 28.9243 18.8852 28.8271C18.6855 28.7247 18.4628 28.6735 18.217 28.6735C17.8638 28.6735 17.5617 28.7861 17.3108 29.0114C17.065 29.2367 16.9242 29.549 16.8884 29.9483H19.5457ZM21.889 28.8347C22.0119 28.5941 22.1859 28.4072 22.4112 28.2741C22.6416 28.141 22.9207 28.0744 23.2483 28.0744V28.7963H23.064C22.2807 28.7963 21.889 29.2213 21.889 30.0712V32.3599H21.1901V28.1512H21.889V28.8347ZM25.6218 31.7147L26.9274 28.1512H27.6724L26.0212 32.3599H25.2071L23.5559 28.1512H24.3085L25.6218 31.7147ZM28.7211 27.4677C28.5879 27.4677 28.4753 27.4216 28.3831 27.3295C28.291 27.2373 28.2449 27.1247 28.2449 26.9915C28.2449 26.8584 28.291 26.7458 28.3831 26.6536C28.4753 26.5615 28.5879 26.5154 28.7211 26.5154C28.8491 26.5154 28.9566 26.5615 29.0436 26.6536C29.1358 26.7458 29.1819 26.8584 29.1819 26.9915C29.1819 27.1247 29.1358 27.2373 29.0436 27.3295C28.9566 27.4216 28.8491 27.4677 28.7211 27.4677ZM29.059 28.1512V32.3599H28.3601V28.1512H29.059ZM29.989 30.2479C29.989 29.8127 30.076 29.4338 30.2501 29.1112C30.4242 28.7835 30.6648 28.5301 30.972 28.3509C31.2843 28.1717 31.6402 28.0821 32.0395 28.0821C32.5567 28.0821 32.9816 28.2075 33.3144 28.4584C33.6523 28.7093 33.8751 29.0575 33.9826 29.5029H33.2299C33.1583 29.2469 33.0175 29.0447 32.8075 28.8962C32.6027 28.7477 32.3467 28.6735 32.0395 28.6735C31.6402 28.6735 31.3176 28.8117 31.0719 29.0882C30.8261 29.3595 30.7032 29.7461 30.7032 30.2479C30.7032 30.7547 30.8261 31.1464 31.0719 31.4229C31.3176 31.6994 31.6402 31.8376 32.0395 31.8376C32.3467 31.8376 32.6027 31.7659 32.8075 31.6226C33.0123 31.4792 33.1531 31.2744 33.2299 31.0082H33.9826C33.8699 31.4383 33.6447 31.7839 33.3067 32.045C32.9688 32.301 32.5464 32.429 32.0395 32.429C31.6402 32.429 31.2843 32.3394 30.972 32.1602C30.6648 31.981 30.4242 31.7275 30.2501 31.3999C30.076 31.0722 29.989 30.6882 29.989 30.2479ZM38.7551 30.0943C38.7551 30.2274 38.7474 30.3682 38.7321 30.5167H35.3682C35.3938 30.9314 35.5346 31.2565 35.7906 31.492C36.0517 31.7224 36.3666 31.8376 36.7353 31.8376C37.0373 31.8376 37.2882 31.7685 37.4879 31.6303C37.6927 31.4869 37.8361 31.2975 37.918 31.0619H38.6706C38.558 31.4664 38.3327 31.7967 37.9948 32.0527C37.6569 32.3035 37.237 32.429 36.7353 32.429C36.3359 32.429 35.9775 32.3394 35.6601 32.1602C35.3477 31.981 35.102 31.7275 34.9228 31.3999C34.7436 31.0671 34.654 30.6831 34.654 30.2479C34.654 29.8127 34.741 29.4312 34.9151 29.1035C35.0892 28.7759 35.3324 28.525 35.6447 28.3509C35.9621 28.1717 36.3257 28.0821 36.7353 28.0821C37.1346 28.0821 37.4879 28.1691 37.7951 28.3432C38.1023 28.5173 38.3378 28.7579 38.5017 29.0651C38.6706 29.3672 38.7551 29.7103 38.7551 30.0943ZM38.0332 29.9483C38.0332 29.6821 37.9743 29.4543 37.8565 29.2648C37.7388 29.0703 37.5775 28.9243 37.3727 28.8271C37.173 28.7247 36.9503 28.6735 36.7045 28.6735C36.3513 28.6735 36.0492 28.7861 35.7983 29.0114C35.5525 29.2367 35.4117 29.549 35.3759 29.9483H38.0332ZM41.1675 32.429C40.845 32.429 40.5557 32.3752 40.2997 32.2677C40.0437 32.1551 39.8415 32.0015 39.693 31.8069C39.5445 31.6072 39.4626 31.3794 39.4472 31.1234H40.1691C40.1896 31.3333 40.2869 31.5048 40.461 31.6379C40.6402 31.7711 40.8731 31.8376 41.1599 31.8376C41.4261 31.8376 41.636 31.7787 41.7896 31.661C41.9432 31.5432 42.02 31.3947 42.02 31.2155C42.02 31.0312 41.9381 30.8955 41.7743 30.8085C41.6104 30.7163 41.357 30.6267 41.0139 30.5397C40.7016 30.4578 40.4456 30.3759 40.2459 30.2939C40.0514 30.2069 39.8824 30.0815 39.7391 29.9176C39.6008 29.7487 39.5317 29.5285 39.5317 29.2571C39.5317 29.0421 39.5957 28.845 39.7237 28.6658C39.8517 28.4866 40.0335 28.3458 40.269 28.2434C40.5045 28.1359 40.7733 28.0821 41.0754 28.0821C41.5413 28.0821 41.9176 28.1999 42.2043 28.4354C42.4911 28.6709 42.6447 28.9935 42.6651 29.4031H41.9663C41.9509 29.1829 41.8613 29.0063 41.6975 28.8731C41.5387 28.74 41.3237 28.6735 41.0523 28.6735C40.8015 28.6735 40.6018 28.7272 40.4533 28.8347C40.3048 28.9423 40.2306 29.0831 40.2306 29.2571C40.2306 29.3954 40.2741 29.5106 40.3611 29.6027C40.4533 29.6898 40.5659 29.7615 40.6991 29.8178C40.8373 29.869 41.0267 29.9279 41.2674 29.9944C41.5695 30.0763 41.8152 30.1583 42.0047 30.2402C42.1941 30.317 42.3554 30.4347 42.4885 30.5935C42.6267 30.7522 42.6984 30.9595 42.7035 31.2155C42.7035 31.4459 42.6395 31.6533 42.5115 31.8376C42.3835 32.0219 42.2018 32.1679 41.9663 32.2754C41.7359 32.3778 41.4696 32.429 41.1675 32.429ZM43.9128 32.4059C43.7797 32.4059 43.6671 32.3599 43.5749 32.2677C43.4828 32.1755 43.4367 32.0629 43.4367 31.9298C43.4367 31.7967 43.4828 31.684 43.5749 31.5919C43.6671 31.4997 43.7797 31.4536 43.9128 31.4536C44.0408 31.4536 44.1484 31.4997 44.2354 31.5919C44.3276 31.684 44.3736 31.7967 44.3736 31.9298C44.3736 32.0629 44.3276 32.1755 44.2354 32.2677C44.1484 32.3599 44.0408 32.4059 43.9128 32.4059ZM49.777 32.4136C49.2804 32.4136 48.8272 32.2984 48.4176 32.068C48.008 31.8325 47.6829 31.5074 47.4423 31.0927C47.2068 30.6728 47.089 30.2018 47.089 29.6795C47.089 29.1573 47.2068 28.6888 47.4423 28.2741C47.6829 27.8543 48.008 27.5291 48.4176 27.2987C48.8272 27.0632 49.2804 26.9455 49.777 26.9455C50.2788 26.9455 50.7344 27.0632 51.144 27.2987C51.5536 27.5291 51.8762 27.8517 52.1117 28.2664C52.3472 28.6811 52.465 29.1522 52.465 29.6795C52.465 30.2069 52.3472 30.6779 52.1117 31.0927C51.8762 31.5074 51.5536 31.8325 51.144 32.068C50.7344 32.2984 50.2788 32.4136 49.777 32.4136ZM49.777 31.8069C50.1508 31.8069 50.4861 31.7199 50.7831 31.5458C51.0852 31.3717 51.3207 31.1234 51.4896 30.8008C51.6637 30.4783 51.7508 30.1045 51.7508 29.6795C51.7508 29.2495 51.6637 28.8757 51.4896 28.5583C51.3207 28.2357 51.0877 27.9874 50.7908 27.8133C50.4938 27.6392 50.1559 27.5522 49.777 27.5522C49.3981 27.5522 49.0602 27.6392 48.7632 27.8133C48.4663 27.9874 48.2308 28.2357 48.0567 28.5583C47.8877 28.8757 47.8032 29.2495 47.8032 29.6795C47.8032 30.1045 47.8877 30.4783 48.0567 30.8008C48.2308 31.1234 48.4663 31.3717 48.7632 31.5458C49.0653 31.7199 49.4032 31.8069 49.777 31.8069ZM55.4382 28.0744C55.9502 28.0744 56.3649 28.2306 56.6823 28.5429C56.9998 28.8501 57.1585 29.2955 57.1585 29.8792V32.3599H56.4673V29.9791C56.4673 29.5592 56.3623 29.2392 56.1524 29.0191C55.9425 28.7938 55.6558 28.6811 55.2922 28.6811C54.9236 28.6811 54.6292 28.7963 54.409 29.0267C54.194 29.2571 54.0865 29.5925 54.0865 30.0328V32.3599H53.3876V28.1512H54.0865V28.7503C54.2247 28.5352 54.4116 28.3688 54.6471 28.2511C54.8878 28.1333 55.1514 28.0744 55.4382 28.0744ZM62.1401 30.0943C62.1401 30.2274 62.1324 30.3682 62.1171 30.5167H58.7532C58.7788 30.9314 58.9196 31.2565 59.1756 31.492C59.4368 31.7224 59.7516 31.8376 60.1203 31.8376C60.4224 31.8376 60.6732 31.7685 60.8729 31.6303C61.0777 31.4869 61.2211 31.2975 61.303 31.0619H62.0556C61.943 31.4664 61.7177 31.7967 61.3798 32.0527C61.0419 32.3035 60.622 32.429 60.1203 32.429C59.7209 32.429 59.3625 32.3394 59.0451 32.1602C58.7328 31.981 58.487 31.7275 58.3078 31.3999C58.1286 31.0671 58.039 30.6831 58.039 30.2479C58.039 29.8127 58.126 29.4312 58.3001 29.1035C58.4742 28.7759 58.7174 28.525 59.0297 28.3509C59.3472 28.1717 59.7107 28.0821 60.1203 28.0821C60.5196 28.0821 60.8729 28.1691 61.1801 28.3432C61.4873 28.5173 61.7228 28.7579 61.8867 29.0651C62.0556 29.3672 62.1401 29.7103 62.1401 30.0943ZM61.4182 29.9483C61.4182 29.6821 61.3593 29.4543 61.2416 29.2648C61.1238 29.0703 60.9625 28.9243 60.7577 28.8271C60.558 28.7247 60.3353 28.6735 60.0896 28.6735C59.7363 28.6735 59.4342 28.7861 59.1833 29.0114C58.9376 29.2367 58.7968 29.549 58.7609 29.9483H61.4182ZM68.689 28.5736C68.689 29.0191 68.5354 29.3903 68.2282 29.6872C67.9261 29.9791 67.4628 30.125 66.8381 30.125H65.809V32.3599H65.1101V27.0069H66.8381C67.4423 27.0069 67.9005 27.1528 68.2128 27.4447C68.5303 27.7365 68.689 28.1128 68.689 28.5736ZM66.8381 29.549C67.2272 29.549 67.514 29.4645 67.6983 29.2955C67.8826 29.1266 67.9748 28.8859 67.9748 28.5736C67.9748 27.9131 67.5959 27.5829 66.8381 27.5829H65.809V29.549H66.8381ZM70.2565 26.6767V32.3599H69.5576V26.6767H70.2565ZM71.1865 30.2402C71.1865 29.8101 71.2735 29.4338 71.4476 29.1112C71.6217 28.7835 71.8598 28.5301 72.1619 28.3509C72.4691 28.1717 72.8095 28.0821 73.1833 28.0821C73.5519 28.0821 73.8719 28.1615 74.1433 28.3202C74.4147 28.4789 74.6169 28.6786 74.75 28.9192V28.1512H75.4566V32.3599H74.75V31.5765C74.6118 31.8223 74.4044 32.0271 74.1279 32.1909C73.8566 32.3496 73.5391 32.429 73.1756 32.429C72.8019 32.429 72.4639 32.3368 72.1619 32.1525C71.8598 31.9682 71.6217 31.7096 71.4476 31.3768C71.2735 31.044 71.1865 30.6651 71.1865 30.2402ZM74.75 30.2479C74.75 29.9304 74.686 29.6539 74.558 29.4184C74.43 29.1829 74.2559 29.0037 74.0358 28.8808C73.8207 28.7528 73.5827 28.6888 73.3215 28.6888C73.0604 28.6888 72.8223 28.7503 72.6073 28.8731C72.3923 28.996 72.2207 29.1752 72.0927 29.4107C71.9647 29.6463 71.9007 29.9227 71.9007 30.2402C71.9007 30.5627 71.9647 30.8443 72.0927 31.085C72.2207 31.3205 72.3923 31.5023 72.6073 31.6303C72.8223 31.7531 73.0604 31.8146 73.3215 31.8146C73.5827 31.8146 73.8207 31.7531 74.0358 31.6303C74.2559 31.5023 74.43 31.3205 74.558 31.085C74.686 30.8443 74.75 30.5653 74.75 30.2479ZM77.4901 28.7272V31.2079C77.4901 31.4127 77.5336 31.5586 77.6206 31.6456C77.7077 31.7275 77.8587 31.7685 78.0738 31.7685H78.5883V32.3599H77.9586C77.5694 32.3599 77.2776 32.2703 77.083 32.0911C76.8885 31.9119 76.7912 31.6175 76.7912 31.2079V28.7272H76.2459V28.1512H76.7912V27.0914H77.4901V28.1512H78.5883V28.7272H77.4901ZM81.1478 28.7272H80.2646V32.3599H79.5657V28.7272H79.0204V28.1512H79.5657V27.8517C79.5657 27.3807 79.686 27.0376 79.9266 26.8226C80.1724 26.6024 80.5641 26.4923 81.1017 26.4923V27.076C80.7945 27.076 80.5769 27.1375 80.4489 27.2603C80.326 27.3781 80.2646 27.5752 80.2646 27.8517V28.1512H81.1478V28.7272ZM83.7981 32.429C83.4039 32.429 83.0455 32.3394 82.7229 32.1602C82.4055 31.981 82.1546 31.7275 81.9703 31.3999C81.7911 31.0671 81.7015 30.6831 81.7015 30.2479C81.7015 29.8178 81.7937 29.4389 81.978 29.1112C82.1674 28.7784 82.4234 28.525 82.746 28.3509C83.0685 28.1717 83.4295 28.0821 83.8289 28.0821C84.2282 28.0821 84.5892 28.1717 84.9117 28.3509C85.2343 28.525 85.4877 28.7759 85.6721 29.1035C85.8615 29.4312 85.9562 29.8127 85.9562 30.2479C85.9562 30.6831 85.8589 31.0671 85.6644 31.3999C85.4749 31.7275 85.2164 31.981 84.8887 32.1602C84.561 32.3394 84.1975 32.429 83.7981 32.429ZM83.7981 31.8146C84.049 31.8146 84.2845 31.7557 84.5047 31.6379C84.7249 31.5202 84.9015 31.3435 85.0346 31.108C85.1729 30.8725 85.242 30.5858 85.242 30.2479C85.242 29.9099 85.1754 29.6232 85.0423 29.3877C84.9092 29.1522 84.7351 28.9781 84.5201 28.8655C84.305 28.7477 84.0721 28.6888 83.8212 28.6888C83.5652 28.6888 83.3297 28.7477 83.1146 28.8655C82.9047 28.9781 82.7357 29.1522 82.6077 29.3877C82.4797 29.6232 82.4157 29.9099 82.4157 30.2479C82.4157 30.5909 82.4772 30.8802 82.6001 31.1157C82.7281 31.3512 82.897 31.5279 83.1069 31.6456C83.3169 31.7583 83.5473 31.8146 83.7981 31.8146ZM87.574 28.8347C87.6969 28.5941 87.871 28.4072 88.0962 28.2741C88.3266 28.141 88.6057 28.0744 88.9334 28.0744V28.7963H88.749C87.9657 28.7963 87.574 29.2213 87.574 30.0712V32.3599H86.8751V28.1512H87.574V28.8347ZM94.8012 28.0744C95.1289 28.0744 95.4208 28.1435 95.6768 28.2818C95.9328 28.4149 96.135 28.6171 96.2835 28.8885C96.432 29.1599 96.5062 29.4901 96.5062 29.8792V32.3599H95.815V29.9791C95.815 29.5592 95.71 29.2392 95.5001 29.0191C95.2953 28.7938 95.0163 28.6811 94.663 28.6811C94.2995 28.6811 94.0102 28.7989 93.7952 29.0344C93.5801 29.2648 93.4726 29.6002 93.4726 30.0405V32.3599H92.7814V29.9791C92.7814 29.5592 92.6764 29.2392 92.4665 29.0191C92.2617 28.7938 91.9827 28.6811 91.6294 28.6811C91.2659 28.6811 90.9766 28.7989 90.7616 29.0344C90.5465 29.2648 90.439 29.6002 90.439 30.0405V32.3599H89.7401V28.1512H90.439V28.7579C90.5772 28.5378 90.7616 28.3688 90.992 28.2511C91.2275 28.1333 91.486 28.0744 91.7676 28.0744C92.1209 28.0744 92.4332 28.1538 92.7046 28.3125C92.976 28.4712 93.1782 28.7042 93.3113 29.0114C93.4291 28.7144 93.6236 28.484 93.895 28.3202C94.1664 28.1563 94.4684 28.0744 94.8012 28.0744ZM97.8753 32.4059C97.7422 32.4059 97.6296 32.3599 97.5374 32.2677C97.4453 32.1755 97.3992 32.0629 97.3992 31.9298C97.3992 31.7967 97.4453 31.684 97.5374 31.5919C97.6296 31.4997 97.7422 31.4536 97.8753 31.4536C98.0033 31.4536 98.1109 31.4997 98.1979 31.5919C98.2901 31.684 98.3361 31.7967 98.3361 31.9298C98.3361 32.0629 98.2901 32.1755 98.1979 32.2677C98.1109 32.3599 98.0033 32.4059 97.8753 32.4059Z" fill="#F5F5F5"/>
</svg>
