<svg width="205" height="48" viewBox="0 0 205 48" fill="none" xmlns="http://www.w3.org/2000/svg">
<g clip-path="url(#clip0_817_3202)">
<path d="M8.20062 46.535C8.00999 46.535 7.85113 46.6056 7.72405 46.7468C7.59696 46.888 7.53342 47.061 7.53342 47.2657C7.53342 47.4705 7.59696 47.654 7.72405 47.7952C7.85113 47.9329 8.00999 48.0035 8.20062 48.0035C8.39125 48.0035 8.55011 47.9329 8.67367 47.7917C8.80075 47.6505 8.8643 47.474 8.8643 47.2622C8.8643 47.0504 8.80075 46.8845 8.67367 46.7432C8.54658 46.602 8.38772 46.5314 8.20062 46.5314V46.535Z" fill="#1A1A1A"/>
<path d="M12.2039 39.0898C12.0909 39.0545 11.9638 39.0227 11.8226 38.998C11.4731 38.9345 11.1024 38.9486 10.7212 39.0757C10.4917 39.1533 10.2799 39.2734 10.0893 39.4358C9.89512 39.5981 9.73626 39.81 9.61623 40.0606C9.49267 40.3148 9.43266 40.6184 9.43266 40.9643C9.43266 41.1655 9.46443 41.3562 9.52445 41.5292C9.58446 41.6951 9.65859 41.8504 9.75038 41.9916C9.83863 42.1328 9.94101 42.267 10.054 42.387C10.1634 42.507 10.2693 42.62 10.3752 42.7259C10.5129 42.86 10.6365 42.9977 10.7424 43.1319C10.8341 43.2448 10.88 43.3578 10.88 43.4602C10.88 43.552 10.8412 43.6543 10.7635 43.7567C10.6788 43.8697 10.5553 43.9791 10.3964 44.0744C10.2305 44.1733 10.0293 44.258 9.7998 44.3251C9.56681 44.3921 9.31264 44.4239 9.03728 44.4239C8.76193 44.4239 8.49716 44.3851 8.28535 44.3109C8.07354 44.2368 7.8935 44.1344 7.74876 44.0038C7.60755 43.8767 7.50165 43.7285 7.42751 43.5555C7.35691 43.3825 7.31808 43.1919 7.31808 42.9801C7.31808 42.8071 7.34985 42.6129 7.40986 42.4011C7.46988 42.1893 7.56872 41.9669 7.70287 41.741L7.76994 41.6245L6.70735 40.922L6.64734 41.0208C6.46377 41.3173 6.31197 41.6351 6.19195 41.9598C6.06839 42.2917 6.00838 42.6588 6.00838 43.0507C6.00838 43.3896 6.06486 43.7355 6.17783 44.0744C6.29079 44.4169 6.4673 44.7275 6.70382 44.9993C6.94035 45.2712 7.24747 45.4971 7.61461 45.6665C7.98175 45.8395 8.42656 45.9278 8.9349 45.9278C9.48914 45.9278 9.97984 45.843 10.3858 45.6807C10.7953 45.5183 11.1377 45.3029 11.4025 45.0417C11.6708 44.7805 11.872 44.491 11.9991 44.1803C12.1297 43.8697 12.1933 43.5661 12.1933 43.2766C12.1933 43.1001 12.165 42.9342 12.1121 42.7824C12.0591 42.6341 11.9885 42.4894 11.9003 42.3588C11.8155 42.2281 11.7167 42.1046 11.6073 41.9846C11.5014 41.8681 11.3954 41.7586 11.2931 41.6527C11.1377 41.4974 11.0001 41.3421 10.88 41.1903C10.7777 41.0596 10.7247 40.9361 10.7247 40.8231C10.7247 40.6925 10.7706 40.6007 10.8694 40.5266C11.0919 40.3642 11.4625 40.3783 11.8049 40.4666C11.9709 40.5089 12.1227 40.5654 12.2462 40.6396L12.3768 40.7137L12.6804 39.2592L12.5887 39.2169C12.458 39.1569 12.3309 39.1145 12.2109 39.0863L12.2039 39.0898Z" fill="#1A1A1A"/>
<path d="M10.0822 46.535C9.89158 46.535 9.73272 46.6056 9.60916 46.7468C9.48208 46.888 9.41853 47.061 9.41853 47.2657C9.41853 47.4705 9.48208 47.654 9.60916 47.7952C9.73625 47.9329 9.89511 48.0035 10.0822 48.0035C10.2693 48.0035 10.4317 47.9329 10.5588 47.7917C10.6859 47.6505 10.7494 47.474 10.7494 47.2622C10.7494 47.0504 10.6859 46.8845 10.5588 46.7432C10.4317 46.602 10.2728 46.5314 10.0822 46.5314V46.535Z" fill="#1A1A1A"/>
<path d="M14.2337 43.3154C14.2337 43.6649 14.1914 43.9332 14.1102 44.1062C14.0184 44.2968 13.803 44.3568 13.4641 44.3145C13.3865 44.3039 13.3123 44.2933 13.2453 44.2792L12.864 44.1874L12.7193 45.6242L12.8111 45.6559C12.8605 45.6701 12.9064 45.6842 12.9558 45.6912L13.0723 45.7124C13.15 45.7266 13.2382 45.7407 13.3371 45.7513C13.4359 45.7619 13.5489 45.7689 13.6689 45.7689C13.9654 45.7689 14.2337 45.7054 14.4597 45.5853C14.6891 45.4618 14.8833 45.2923 15.0421 45.077C15.1975 44.8652 15.3175 44.611 15.3952 44.3251C15.4728 44.0426 15.5116 43.7355 15.5116 43.4143V39.3122H14.2373V43.3225L14.2337 43.3154Z" fill="#1A1A1A"/>
<path d="M31.0657 42.2387H29.7772C29.5124 42.2387 29.3323 42.1646 29.2406 42.0234C29.1417 41.8681 29.0923 41.6598 29.0923 41.4127V39.3051H27.825V41.8257C27.825 41.9704 27.8073 42.0834 27.7685 42.1611C27.7438 42.2105 27.6802 42.2387 27.5814 42.2387H27.3625C27.0977 42.2387 26.9142 42.1646 26.8224 42.0198C26.72 41.8645 26.6706 41.6562 26.6706 41.4091V39.8664H25.3856V41.8257C25.3856 41.9704 25.3679 42.0834 25.3326 42.1611C25.3256 42.1787 25.3009 42.2352 25.1597 42.2352H24.9937C24.7219 42.2352 24.5383 42.1575 24.4466 42.0093C24.3442 41.8433 24.2948 41.6456 24.2948 41.4091V40.2689H23.038V41.8539C23.038 42.0375 23.0098 42.1258 22.9851 42.1681C22.9533 42.2246 22.865 42.2352 22.7944 42.2352H20.4398V41.1267C20.4398 40.809 20.3974 40.5125 20.3127 40.2442C20.228 39.9759 20.1009 39.7393 19.9385 39.5452C19.7761 39.3475 19.5749 39.1957 19.3419 39.0863C19.1124 38.9804 18.8477 38.9274 18.5582 38.9274C18.2546 38.9274 17.9757 38.998 17.7251 39.1322C17.478 39.2663 17.2591 39.4569 17.0791 39.6899C16.899 39.9229 16.7578 40.1983 16.659 40.5054C16.5601 40.8125 16.5107 41.1408 16.5107 41.4797C16.5107 41.748 16.5495 42.0163 16.6272 42.2811C16.7049 42.5458 16.8319 42.7894 17.0049 42.9977C17.1779 43.2095 17.4038 43.379 17.6792 43.5061C17.951 43.6331 18.2899 43.6967 18.6818 43.6967H19.176C19.1619 43.8485 19.1301 43.972 19.0842 44.0709C19.0242 44.1944 18.943 44.2862 18.8406 44.3568C18.7347 44.4274 18.6112 44.4769 18.4735 44.5016C18.3252 44.5298 18.1699 44.5404 18.004 44.5404C17.8945 44.5404 17.7569 44.5333 17.6015 44.5192C17.4462 44.5051 17.2803 44.4839 17.1038 44.4592L16.9837 44.4416L16.8955 45.8642L16.9979 45.8854C17.185 45.9207 17.3579 45.9454 17.5133 45.956C17.6686 45.9666 17.8169 45.9701 17.9616 45.9701C18.3076 45.9701 18.6288 45.9242 18.9183 45.836C19.2113 45.7442 19.4725 45.603 19.6914 45.4124C19.9138 45.2217 20.0903 44.9676 20.2209 44.664C20.3374 44.3921 20.408 44.0674 20.4363 43.7038H22.7874C23.0592 43.7038 23.3134 43.6437 23.5358 43.5237C23.7123 43.4319 23.857 43.3013 23.9735 43.1354C24.0512 43.2554 24.15 43.3684 24.2701 43.4708C24.4501 43.6261 24.6901 43.7038 24.9761 43.7038H25.2161C25.4597 43.7038 25.6927 43.6437 25.9081 43.5237C26.074 43.4319 26.2187 43.3013 26.3317 43.1354C26.4093 43.2554 26.5047 43.3649 26.6176 43.4672C26.7941 43.6226 27.0342 43.7038 27.3343 43.7038H27.5814C27.8532 43.7038 28.1074 43.6402 28.3298 43.5131C28.4992 43.4178 28.6369 43.2872 28.7463 43.1283C28.8275 43.2519 28.9299 43.3684 29.0499 43.4708C29.23 43.6261 29.4771 43.7038 29.7736 43.7038H32.3295V35.9973H31.0621V42.2387H31.0657ZM18.237 40.4136C18.3217 40.3713 18.4135 40.3465 18.5053 40.3465C18.7135 40.3465 18.8689 40.4313 18.9854 40.6113C19.1089 40.7984 19.1689 41.0808 19.1689 41.4444V42.2387H18.6429C18.5264 42.2387 18.4099 42.2211 18.3005 42.1858C18.1981 42.154 18.1063 42.0975 18.0251 42.0234C17.9475 41.9492 17.8839 41.8539 17.8345 41.7374C17.7851 41.6209 17.7639 41.4727 17.7639 41.2997C17.7639 41.1514 17.7851 41.0173 17.8275 40.9043C17.8698 40.7878 17.9263 40.689 17.9969 40.6078C18.0675 40.5266 18.1452 40.463 18.2334 40.4171L18.237 40.4136Z" fill="#1A1A1A"/>
<path d="M34.8747 35.9973H33.6074V43.7038H34.8747V35.9973Z" fill="#1A1A1A"/>
<path d="M42.3164 39.4852L41.1514 39.2416C40.7384 39.1569 40.4454 39.0368 40.2759 38.8851C40.1065 38.7333 40.0182 38.5285 40.0182 38.2708C40.0182 38.0413 40.0818 37.8472 40.2053 37.6777C40.3289 37.5118 40.5089 37.3812 40.7455 37.2894C40.982 37.1976 41.2609 37.1517 41.5892 37.1517C41.9175 37.1517 42.1928 37.1835 42.4647 37.247C42.7365 37.3106 43.0013 37.4165 43.266 37.5683C43.4143 37.653 43.5484 37.6883 43.6649 37.6742C43.7814 37.6601 43.8803 37.6142 43.9579 37.5365C44.0356 37.4589 44.085 37.3635 44.1062 37.2541C44.1274 37.1447 44.1168 37.0317 44.078 36.9187C44.0391 36.8058 43.9615 36.7105 43.8485 36.6293C43.5414 36.4245 43.1989 36.2656 42.8142 36.1597C42.4294 36.0538 42.0234 36.0009 41.5962 36.0009C41.1691 36.0009 40.7666 36.0574 40.4066 36.1668C40.0465 36.2762 39.7394 36.4351 39.4781 36.6434C39.2169 36.8517 39.0157 37.0952 38.8745 37.3812C38.7333 37.6671 38.6591 37.9813 38.6591 38.3308C38.6591 38.8851 38.825 39.3334 39.1569 39.6688C39.4887 40.0077 39.99 40.2477 40.6678 40.3889L41.8434 40.6325C42.2846 40.7243 42.5953 40.8408 42.7789 40.9855C42.9589 41.1267 43.0507 41.3244 43.0507 41.5715C43.0507 41.8716 42.9236 42.1152 42.6659 42.3023C42.4082 42.4894 42.0022 42.5847 41.4374 42.5847C41.0526 42.5847 40.6854 42.5423 40.3395 42.4576C39.99 42.3729 39.6582 42.2352 39.3475 42.0516C39.2134 41.9669 39.0863 41.9351 38.9733 41.9563C38.8603 41.9775 38.765 42.034 38.6909 42.1222C38.6168 42.2105 38.5709 42.3129 38.5532 42.4329C38.5356 42.5494 38.5532 42.6694 38.6026 42.7894C38.6521 42.9095 38.7403 43.0154 38.8709 43.1001C39.0898 43.2413 39.3404 43.3613 39.6193 43.4566C39.8982 43.552 40.1912 43.6226 40.5054 43.6685C40.8196 43.7143 41.1303 43.7391 41.4444 43.7391C41.8998 43.7391 42.3093 43.6861 42.6729 43.5802C43.0366 43.4743 43.3472 43.319 43.6084 43.1213C43.8697 42.9236 44.0674 42.6835 44.205 42.4047C44.3427 42.1258 44.4133 41.8186 44.4133 41.4762C44.4133 40.9432 44.2404 40.516 43.8944 40.1948C43.5484 39.8735 43.0224 39.6405 42.3199 39.4887L42.3164 39.4852Z" fill="#00B4D8"/>
<path d="M49.2461 38.6309C48.8472 38.412 48.3777 38.299 47.8376 38.299C47.4316 38.299 47.0645 38.3626 46.7397 38.4861C46.4114 38.6097 46.1325 38.7933 45.896 39.0298C45.6595 39.2663 45.4794 39.5523 45.3559 39.8841C45.2323 40.2159 45.1688 40.5901 45.1688 41.0102C45.1688 41.5645 45.2782 42.0481 45.5006 42.4576C45.7195 42.8671 46.0301 43.1813 46.4291 43.4037C46.828 43.6261 47.2975 43.7355 47.8376 43.7355C48.2436 43.7355 48.6107 43.672 48.9355 43.5484C49.2638 43.4249 49.5427 43.2413 49.7792 43.0048C50.0157 42.7683 50.1922 42.4788 50.3193 42.147C50.4429 41.8116 50.5064 41.4339 50.5064 41.0173C50.5064 40.4631 50.397 39.9829 50.1746 39.577C49.9522 39.171 49.6451 38.8603 49.2461 38.6379V38.6309ZM48.9955 41.9563C48.8861 42.2105 48.7307 42.3976 48.5295 42.5282C48.3283 42.6588 48.0988 42.7188 47.8341 42.7188C47.4352 42.7188 47.1139 42.5741 46.8739 42.2882C46.6338 41.9987 46.5103 41.5751 46.5103 41.0138C46.5103 40.636 46.5667 40.3218 46.6762 40.0677C46.7856 39.817 46.9409 39.6264 47.1422 39.5028C47.3398 39.3793 47.5728 39.3157 47.8341 39.3157C48.233 39.3157 48.5542 39.4569 48.7943 39.7394C49.0343 40.0218 49.1579 40.4454 49.1579 41.0138C49.1579 41.3915 49.1014 41.7057 48.992 41.9599L48.9955 41.9563Z" fill="#00B4D8"/>
<path d="M55.3957 38.6309C54.9968 38.412 54.5273 38.299 53.9872 38.299C53.5812 38.299 53.2141 38.3626 52.8893 38.4861C52.561 38.6097 52.2821 38.7933 52.0456 39.0298C51.8091 39.2663 51.6326 39.5523 51.5055 39.8841C51.3819 40.2159 51.3184 40.5901 51.3184 41.0102C51.3184 41.5645 51.4278 42.0481 51.6502 42.4576C51.8691 42.8671 52.1797 43.1813 52.5787 43.4037C52.9776 43.6261 53.4471 43.7355 53.9872 43.7355C54.3932 43.7355 54.7603 43.672 55.0851 43.5484C55.4134 43.4249 55.6923 43.2413 55.9288 43.0048C56.1653 42.7683 56.3418 42.4788 56.4689 42.147C56.5925 41.8116 56.656 41.4339 56.656 41.0173C56.656 40.4631 56.5466 39.9829 56.3242 39.577C56.1053 39.171 55.7947 38.8603 55.3957 38.6379V38.6309ZM55.1451 41.9563C55.0357 42.2105 54.8803 42.3976 54.6826 42.5282C54.4814 42.6553 54.252 42.7188 53.9872 42.7188C53.5883 42.7188 53.267 42.5741 53.027 42.2882C52.7834 41.9987 52.6634 41.5751 52.6634 41.0138C52.6634 40.636 52.7199 40.3218 52.8293 40.0677C52.9387 39.817 53.0941 39.6264 53.2918 39.5028C53.4894 39.3793 53.7224 39.3157 53.9872 39.3157C54.3861 39.3157 54.7074 39.4569 54.9474 39.7394C55.1875 40.0218 55.311 40.4454 55.311 41.0138C55.311 41.3915 55.2545 41.7057 55.1451 41.9599V41.9563Z" fill="#00B4D8"/>
<path d="M62.1102 38.3202C61.8984 38.3202 61.7324 38.3767 61.6195 38.4897C61.5065 38.6026 61.45 38.7721 61.45 38.9909V39.2169C61.33 38.9839 61.1535 38.7862 60.917 38.6273C60.5887 38.4085 60.2039 38.2955 59.7626 38.2955C59.3213 38.2955 58.9083 38.4049 58.5623 38.6273C58.2164 38.8497 57.9481 39.1604 57.7574 39.5628C57.5633 39.9653 57.468 40.4454 57.468 41.0102C57.468 41.575 57.5633 42.0481 57.7574 42.4576C57.9481 42.8671 58.2164 43.1813 58.5623 43.4037C58.9083 43.6261 59.3072 43.7355 59.7626 43.7355C60.218 43.7355 60.5745 43.6261 60.8993 43.4107C61.1358 43.2519 61.3123 43.0577 61.4394 42.8318V44.964C61.4394 45.1829 61.4959 45.3523 61.6089 45.4653C61.7219 45.5783 61.8878 45.6348 62.0996 45.6348C62.3114 45.6348 62.4773 45.5783 62.5973 45.4653C62.7138 45.3523 62.7739 45.1829 62.7739 44.964V38.998C62.7739 38.7791 62.7174 38.6097 62.6044 38.4967C62.4914 38.3838 62.3255 38.3273 62.1137 38.3273L62.1102 38.3202ZM60.8287 42.5247C60.6275 42.6518 60.398 42.7153 60.1333 42.7153C59.7344 42.7153 59.4131 42.5706 59.1731 42.2846C58.9295 41.9951 58.8094 41.5715 58.8094 41.0102C58.8094 40.6325 58.8659 40.3183 58.9754 40.0641C59.0848 39.8135 59.2401 39.6229 59.4378 39.4993C59.6355 39.3757 59.8685 39.3122 60.1333 39.3122C60.5322 39.3122 60.8534 39.4534 61.0935 39.7358C61.3335 40.0182 61.4571 40.4419 61.4571 41.0102C61.4571 41.3879 61.4006 41.7021 61.2912 41.9563C61.1817 42.2105 61.0264 42.3976 60.8287 42.5282V42.5247Z" fill="#00B4D8"/>
<path d="M67.3737 36.1386C67.289 36.0786 67.1725 36.0538 67.0313 36.068L66.6676 36.0997C65.9687 36.1633 65.4356 36.3786 65.0649 36.7458C64.6943 37.1129 64.5107 37.6636 64.5107 38.3944V38.4049H64.02C63.8506 38.4049 63.7164 38.4473 63.6246 38.532C63.5328 38.6168 63.4869 38.7403 63.4869 38.9062C63.4869 39.0722 63.5328 39.1851 63.6246 39.2734C63.7164 39.3616 63.847 39.4075 64.02 39.4075H64.5107V43.026C64.5107 43.2448 64.5707 43.4143 64.6872 43.5343C64.8037 43.6508 64.9696 43.7108 65.185 43.7108C65.6262 43.7108 65.8486 43.4814 65.8486 43.0295V39.4111H66.7559C66.9253 39.4111 67.0595 39.3652 67.1513 39.2769C67.2431 39.1886 67.289 39.0651 67.289 38.9098C67.289 38.7544 67.2431 38.6203 67.1513 38.5356C67.0595 38.4508 66.9289 38.4085 66.7559 38.4085H65.8486V38.1825C65.8486 37.8189 65.9404 37.5506 66.1275 37.3706C66.3111 37.1941 66.6076 37.0882 67.0136 37.0599L67.1619 37.0494C67.2678 37.0423 67.356 36.9999 67.4231 36.9258C67.4902 36.8517 67.5361 36.7634 67.5572 36.6646C67.5784 36.5657 67.5749 36.4669 67.5467 36.3716C67.5184 36.2762 67.4619 36.1986 67.3772 36.135L67.3737 36.1386Z" fill="#00B4D8"/>
<path d="M71.3487 38.412C71.2604 38.3237 71.1404 38.2849 70.9921 38.299C70.5085 38.3414 70.1202 38.472 69.8272 38.6944C69.6154 38.8533 69.4565 39.0686 69.3471 39.3369V38.9945C69.3471 38.7756 69.2906 38.6062 69.1776 38.4932C69.0646 38.3802 68.9023 38.3237 68.6975 38.3237C68.4928 38.3237 68.3304 38.3802 68.2174 38.4932C68.1044 38.6062 68.0479 38.7756 68.0479 38.9945V43.0295C68.0479 43.2484 68.108 43.4178 68.2245 43.5378C68.3409 43.6543 68.5104 43.7143 68.7328 43.7143C68.9552 43.7143 69.1211 43.6543 69.2341 43.5378C69.3471 43.4213 69.4071 43.2519 69.4071 43.0295V40.8196C69.4071 40.4136 69.5165 40.0994 69.7389 39.8735C69.9578 39.6511 70.2861 39.517 70.7203 39.4746L70.9568 39.4534C71.1475 39.4322 71.2922 39.3652 71.3875 39.2557C71.4828 39.1463 71.5252 39.0015 71.5111 38.825C71.4969 38.6415 71.444 38.5038 71.3557 38.4155L71.3487 38.412Z" fill="#00B4D8"/>
<path d="M76.7393 41.2185C76.8275 41.1514 76.8734 41.0526 76.8734 40.9255C76.8734 40.5195 76.8169 40.1559 76.7075 39.8311C76.5981 39.5063 76.4357 39.231 76.2274 39.0051C76.0191 38.7791 75.7649 38.6026 75.4684 38.4826C75.1719 38.3626 74.84 38.3026 74.4694 38.3026C73.9645 38.3026 73.5127 38.419 73.1208 38.6485C72.7255 38.8815 72.4148 39.1992 72.1924 39.6052C71.9665 40.0112 71.857 40.4842 71.857 41.0243C71.857 41.5644 71.9735 42.0587 72.203 42.4646C72.436 42.8706 72.7643 43.1848 73.1914 43.4037C73.6186 43.6261 74.1269 43.7355 74.7165 43.7355C74.9954 43.7355 75.2954 43.6967 75.6202 43.6225C75.945 43.5484 76.2309 43.4319 76.478 43.2766C76.6051 43.1989 76.6969 43.1071 76.7499 42.9977C76.8028 42.8918 76.824 42.7859 76.8099 42.6835C76.7958 42.5811 76.7534 42.4929 76.6863 42.4223C76.6192 42.3517 76.5275 42.3093 76.4145 42.2987C76.3015 42.2881 76.1674 42.327 76.0191 42.4117C75.8144 42.5247 75.592 42.6059 75.3625 42.6517C75.1295 42.6976 74.9248 42.7223 74.7377 42.7223C74.2046 42.7223 73.7986 42.5776 73.5268 42.2917C73.3115 42.0622 73.1808 41.7374 73.1385 41.3244H76.3615C76.5239 41.3244 76.651 41.2891 76.7393 41.222V41.2185ZM73.7598 39.4146C73.9681 39.2769 74.2223 39.2063 74.5223 39.2063C74.7941 39.2063 75.0201 39.2663 75.2001 39.3828C75.3802 39.4993 75.5214 39.6687 75.6167 39.8911C75.6979 40.0747 75.7402 40.2971 75.7544 40.5513H73.135C73.1597 40.3501 73.2056 40.163 73.2762 40.0006C73.3856 39.7499 73.548 39.5522 73.7563 39.4146H73.7598Z" fill="#00B4D8"/>
<path d="M82.5253 41.2185C82.6135 41.1514 82.6594 41.0526 82.6594 40.9255C82.6594 40.5195 82.6029 40.1559 82.4935 39.8311C82.384 39.5063 82.2217 39.231 82.0134 39.0051C81.8051 38.7756 81.5509 38.6026 81.2544 38.4826C80.9579 38.3626 80.626 38.3026 80.2553 38.3026C79.7505 38.3026 79.2987 38.419 78.9068 38.6485C78.5114 38.8815 78.2008 39.1992 77.9784 39.6052C77.7524 40.0112 77.643 40.4842 77.643 41.0243C77.643 41.5644 77.7595 42.0587 77.989 42.4646C78.222 42.8706 78.5503 43.1848 78.9774 43.4037C79.4046 43.6261 79.9129 43.7355 80.5025 43.7355C80.7813 43.7355 81.0814 43.6967 81.4062 43.6225C81.731 43.5484 82.0169 43.4319 82.264 43.2766C82.3911 43.1989 82.4829 43.1071 82.5358 42.9977C82.5888 42.8918 82.61 42.7859 82.5959 42.6835C82.5817 42.5811 82.5394 42.4929 82.4723 42.4223C82.4052 42.3517 82.3134 42.3093 82.2005 42.2987C82.0875 42.2881 81.9534 42.327 81.8051 42.4117C81.6003 42.5247 81.3779 42.6059 81.1485 42.6517C80.9155 42.6976 80.7107 42.7223 80.5236 42.7223C79.9906 42.7223 79.5846 42.5776 79.3128 42.2917C79.0974 42.0622 78.9668 41.7374 78.9245 41.3244H82.1475C82.3099 41.3244 82.437 41.2891 82.5253 41.222V41.2185ZM79.5458 39.4146C79.7541 39.2769 80.0082 39.2063 80.3083 39.2063C80.5801 39.2063 80.8061 39.2663 80.9861 39.3828C81.1661 39.4993 81.3073 39.6687 81.4027 39.8911C81.4839 40.0747 81.5262 40.2971 81.5403 40.5513H78.9209C78.9456 40.3501 78.9915 40.163 79.0621 40.0006C79.1716 39.7499 79.334 39.5522 79.5422 39.4146H79.5458Z" fill="#00B4D8"/>
<path d="M80.1035 29.463H77.6112C77.41 29.463 77.2547 29.3994 77.1276 29.2582C76.9758 29.0923 76.8487 28.884 76.7499 28.6369C76.6475 28.3757 76.5663 28.0932 76.5098 27.7861C76.4498 27.479 76.4074 27.1895 76.3827 26.9248C76.3404 26.4905 76.2486 26.0387 76.1074 25.5833C75.9626 25.1173 75.7402 24.6831 75.4472 24.2948C75.1472 23.8994 74.7553 23.5746 74.2858 23.3275C73.6045 22.9709 72.6831 22.8509 71.5852 23.038C71.2639 23.091 70.9498 23.158 70.6426 23.2357C70.339 23.3134 70.0531 23.391 69.7848 23.4722C69.5165 23.5534 69.3012 23.624 69.1388 23.677L68.9128 23.7511L69.6189 26.4976L69.8978 26.3635C70.2967 26.1693 70.7026 26.0316 71.1016 25.9469C71.504 25.8622 71.8358 25.8198 72.0865 25.8198C72.496 25.8198 72.8137 25.9328 73.0608 26.1658C73.3044 26.3988 73.4597 26.833 73.5233 27.4578C73.5762 28.0932 73.6609 28.5981 73.7669 28.9511C73.8233 29.1347 73.8798 29.3041 73.9434 29.4594H7.73816C7.12391 29.4594 6.71088 29.3182 6.51319 29.0358C6.29431 28.7287 6.18488 28.3262 6.18488 27.8426V23.7264H3.3572V31.5634C3.3572 32.2483 3.26541 32.7708 3.08184 33.1096C2.88062 33.4838 2.4217 33.6039 1.63446 33.5156C1.45795 33.4944 1.2885 33.4733 1.14024 33.4485L0.292991 33.2685L-1.52588e-05 36.0715L0.194145 36.135C0.28946 36.1668 0.388306 36.1915 0.490681 36.2056C0.578936 36.2197 0.681312 36.2339 0.780157 36.2445C0.949606 36.2727 1.1473 36.2974 1.38029 36.3186C1.60975 36.3398 1.85333 36.3504 2.10398 36.3504C2.76412 36.3504 3.35367 36.2303 3.85848 35.9903C4.3633 35.7538 4.79751 35.4184 5.147 34.9983C5.49296 34.5817 5.7542 34.0875 5.92718 33.5262C6.09309 32.9826 6.18135 32.3895 6.18135 31.7646C6.30844 31.86 6.44964 31.9447 6.59791 32.0294C6.95799 32.2236 7.36396 32.3259 7.79818 32.3259H73.668C73.9963 32.3259 74.3246 32.2659 74.6423 32.1459C74.9177 32.0435 75.1754 31.8423 75.4084 31.5458C75.6626 31.7329 75.9626 31.8988 76.3086 32.0435C76.764 32.2306 77.23 32.3259 77.6959 32.3259H82.9136V17.2591H80.1071V29.4594L80.1035 29.463Z" fill="#1A1A1A"/>
<path d="M88.5407 17.2626H85.7342V32.3295H88.5407V17.2626Z" fill="#1A1A1A"/>
<path d="M107.141 24.1959C106.792 23.8182 106.365 23.5217 105.863 23.3099C105.366 23.1016 104.801 22.9957 104.19 22.9957C103.523 22.9957 102.891 23.1192 102.312 23.3628C101.737 23.6029 101.228 23.9382 100.798 24.3619C100.37 24.7855 100.028 25.2832 99.7879 25.8445C99.5443 26.4094 99.4208 27.013 99.4208 27.6414C99.4208 28.2345 99.509 28.817 99.6855 29.3747C99.8656 29.9466 100.173 30.4585 100.6 30.8962C101.023 31.334 101.585 31.687 102.27 31.9447C102.947 32.1989 103.791 32.326 104.78 32.326H105.415C105.373 32.6437 105.295 32.9579 105.182 33.265C105.041 33.6498 104.815 33.9957 104.518 34.2923C104.222 34.5923 103.826 34.8395 103.343 35.0301C102.859 35.2207 102.255 35.316 101.546 35.316C100.836 35.316 100.162 35.2313 99.6396 35.0654C99.1242 34.8995 98.7006 34.6735 98.3758 34.3947C98.0546 34.1158 97.818 33.791 97.6733 33.4238C97.525 33.0496 97.4474 32.6437 97.4474 32.2165C97.4474 31.8882 97.4897 31.5776 97.5709 31.2881C97.6557 30.9845 97.751 30.7056 97.8533 30.4656C97.9804 30.169 98.1216 29.9007 98.2628 29.6642L98.4041 29.4347L96.4095 28.3616V28.3192L96.2259 28.2662C96.0247 28.2098 95.9753 28.3015 95.7388 28.6828C95.594 28.9123 95.4422 29.23 95.2798 29.6289C95.121 30.0243 94.9692 30.4938 94.8315 31.0233C94.6903 31.5634 94.6197 32.1565 94.6197 32.7849C94.6197 33.4133 94.7468 34.0487 94.9939 34.6877C95.241 35.3302 95.647 35.9162 96.1942 36.4386C96.7378 36.954 97.4474 37.3812 98.3017 37.7024C99.1525 38.0237 100.19 38.1861 101.38 38.1861C102.57 38.1861 103.572 38.0025 104.427 37.6389C105.284 37.2718 106.001 36.7846 106.566 36.188C107.131 35.5879 107.554 34.8924 107.819 34.1264C108.084 33.3638 108.222 32.5731 108.222 31.7753V27.2213C108.222 26.6106 108.126 26.0457 107.943 25.5374C107.756 25.0255 107.484 24.5772 107.138 24.203L107.141 24.1959ZM103.946 25.7598C104.405 25.7598 104.751 25.8904 105.002 26.1552C105.256 26.427 105.38 26.7412 105.38 27.1119V29.4594H104.575C104.247 29.4594 103.932 29.4206 103.643 29.3465C103.36 29.2723 103.113 29.1594 102.902 29.0076C102.697 28.8628 102.531 28.6722 102.407 28.4428C102.287 28.2168 102.224 27.9415 102.224 27.6167C102.224 27.3166 102.273 27.0483 102.376 26.8259C102.478 26.6 102.612 26.4023 102.778 26.2434C102.944 26.0846 103.131 25.961 103.329 25.8798C103.526 25.7986 103.735 25.7563 103.943 25.7563L103.946 25.7598Z" fill="#1A1A1A"/>
<path d="M102.093 21.7354C102.513 21.7354 102.87 21.5942 103.145 21.3153C103.424 21.0364 103.565 20.694 103.565 20.3021C103.565 19.9103 103.424 19.5678 103.145 19.289C102.866 19.0101 102.513 18.8689 102.093 18.8689C101.673 18.8689 101.316 19.0101 101.038 19.289C100.759 19.5678 100.617 19.9103 100.617 20.3021C100.617 20.694 100.759 21.0364 101.038 21.3153C101.316 21.5942 101.669 21.7354 102.093 21.7354Z" fill="#1A1A1A"/>
<path d="M106.283 21.7354C106.704 21.7354 107.06 21.5942 107.339 21.3153C107.618 21.0364 107.759 20.694 107.759 20.3021C107.759 19.9103 107.618 19.5678 107.339 19.289C107.06 19.0101 106.707 18.8689 106.283 18.8689C105.86 18.8689 105.507 19.0101 105.228 19.289C104.949 19.5678 104.808 19.9067 104.808 20.3021C104.808 20.6975 104.949 21.0364 105.228 21.3153C105.507 21.5942 105.86 21.7354 106.283 21.7354Z" fill="#1A1A1A"/>
<path d="M142.549 29.463H139.693C139.107 29.463 138.708 29.3218 138.507 29.0394C138.288 28.7322 138.179 28.3298 138.179 27.8462V23.73H135.372V28.6616C135.372 28.944 135.33 29.1629 135.249 29.3147C135.196 29.4136 135.054 29.4665 134.832 29.4665H134.345C133.755 29.4665 133.353 29.3253 133.148 29.0429C132.926 28.7358 132.809 28.3369 132.809 27.8497V24.8314H129.964V28.6652C129.964 28.9476 129.925 29.17 129.847 29.3253C129.83 29.3606 129.773 29.47 129.466 29.47H129.099C128.499 29.47 128.089 29.3218 127.885 29.0288C127.655 28.704 127.546 28.3192 127.546 27.8532V25.6257H124.76V28.7252C124.76 29.0817 124.697 29.2547 124.64 29.3359C124.566 29.4453 124.372 29.4665 124.22 29.4665H119.006V27.299C119.006 26.6777 118.911 26.0987 118.727 25.5762C118.54 25.0502 118.261 24.5878 117.901 24.2065C117.538 23.8217 117.096 23.5217 116.581 23.3099C116.069 23.1016 115.487 22.9957 114.848 22.9957C114.177 22.9957 113.552 23.1298 112.998 23.3981C112.447 23.6629 111.963 24.03 111.565 24.4854C111.166 24.9408 110.851 25.4774 110.633 26.0811C110.414 26.6812 110.301 27.3237 110.301 27.9874C110.301 28.5134 110.385 29.0394 110.558 29.5512C110.731 30.0702 111.014 30.5432 111.395 30.9563C111.78 31.3693 112.281 31.7047 112.888 31.9553C113.492 32.2059 114.24 32.3295 115.109 32.3295H116.2C116.168 32.626 116.101 32.8731 115.995 33.0602C115.861 33.3003 115.684 33.4839 115.458 33.618C115.222 33.7557 114.95 33.851 114.643 33.9004C114.318 33.9534 113.969 33.9781 113.605 33.9781C113.358 33.9781 113.058 33.964 112.708 33.9393C112.359 33.911 111.992 33.8722 111.603 33.8192L111.335 33.7804L111.137 36.5587L111.367 36.5975C111.783 36.6681 112.168 36.7105 112.511 36.7316C112.853 36.7528 113.185 36.7634 113.503 36.7634C114.265 36.7634 114.978 36.6752 115.624 36.4987C116.277 36.3221 116.853 36.0433 117.34 35.6726C117.831 35.2984 118.226 34.8042 118.512 34.2076C118.77 33.6745 118.929 33.0461 118.989 32.3295H124.199C124.803 32.3295 125.364 32.213 125.862 31.98C126.25 31.8 126.578 31.5458 126.836 31.2175C127.009 31.454 127.232 31.6729 127.493 31.8706C127.895 32.1742 128.421 32.3295 129.06 32.3295H129.59C130.126 32.3295 130.645 32.213 131.125 31.98C131.496 31.8 131.81 31.5458 132.064 31.221C132.234 31.454 132.446 31.6729 132.7 31.8706C133.092 32.1777 133.625 32.3295 134.292 32.3295H134.839C135.446 32.3295 136.004 32.2024 136.498 31.9588C136.873 31.7717 137.183 31.5176 137.42 31.2069C137.6 31.4505 137.826 31.6729 138.09 31.8741C138.493 32.1777 139.033 32.333 139.697 32.333H145.359V17.2662H142.553V29.4665L142.549 29.463ZM114.124 25.8904C114.315 25.8022 114.512 25.7598 114.721 25.7598C115.18 25.7598 115.529 25.9293 115.787 26.2752C116.059 26.6424 116.193 27.1895 116.193 27.9026V29.4595H115.024C114.763 29.4595 114.509 29.4242 114.269 29.3571C114.039 29.2935 113.838 29.1876 113.662 29.0394C113.489 28.8946 113.347 28.7075 113.241 28.4781C113.136 28.2486 113.083 27.9591 113.083 27.6202C113.083 27.3307 113.132 27.0695 113.227 26.8436C113.323 26.6177 113.45 26.42 113.602 26.2611C113.753 26.1022 113.93 25.9787 114.124 25.8904Z" fill="#1A1A1A"/>
<path d="M150.986 17.2626H148.18V32.3295H150.986V17.2626Z" fill="#1A1A1A"/>
<path d="M183.736 23.8818L187.464 24.5525C188.12 24.6725 188.558 25.3009 188.442 25.9575L186.853 34.7794C186.733 35.4361 186.105 35.8738 185.448 35.7573L181.72 35.0866C181.063 34.9665 180.626 34.3382 180.742 33.6816L182.331 24.8596C182.451 24.203 183.079 23.7653 183.736 23.8818ZM183.768 34.4017C184.05 34.4511 184.318 34.264 184.368 33.9852C184.417 33.7063 184.23 33.4344 183.951 33.385C183.669 33.3356 183.4 33.5227 183.351 33.8016C183.302 34.0805 183.489 34.3523 183.768 34.4017ZM184.562 25.608L186.09 25.8834C186.232 25.9081 186.366 25.8163 186.39 25.6751C186.415 25.5339 186.323 25.3997 186.182 25.375L184.654 25.0997C184.512 25.075 184.378 25.1667 184.354 25.3079C184.329 25.4492 184.421 25.5833 184.562 25.608Z" fill="#1A1A1A"/>
<path d="M190.475 21.2129C190.651 20.1115 190.722 18.9818 190.711 17.8239C190.68 17.0155 190.182 16.2106 189.197 15.9812C188.47 15.8188 188.251 16.2106 187.421 16.0553C187.195 16.0129 186.966 15.9706 186.736 15.9318C185.903 15.7905 185.836 15.3457 185.098 15.2434C184.096 15.1163 183.33 15.6917 183.033 16.4401C182.62 17.5203 182.292 18.6076 182.073 19.6985C181.932 20.461 182.592 21.1035 183.083 21.227C184.029 21.4742 185.098 19.9173 185.681 20.0197C186.115 20.1009 186.546 20.1786 186.98 20.2527C187.562 20.3586 188.018 22.1872 188.992 22.2896C189.497 22.3426 190.362 21.9719 190.471 21.2094L190.475 21.2129ZM185.589 18.124L185.141 18.0428L185.06 18.4911C185.024 18.6818 184.844 18.8053 184.657 18.7736C184.47 18.7418 184.343 18.5582 184.375 18.3711L184.456 17.9228L184.008 17.8416C183.817 17.8063 183.693 17.6262 183.729 17.4391C183.764 17.2485 183.944 17.125 184.131 17.1567L184.579 17.2379L184.661 16.7896C184.696 16.599 184.876 16.4754 185.063 16.5072C185.25 16.5389 185.377 16.7225 185.346 16.9096L185.264 17.3579L185.713 17.4391C185.903 17.4744 186.027 17.6545 185.995 17.8416C185.963 18.0287 185.78 18.1558 185.593 18.124H185.589ZM188.212 19.4125C187.944 19.3702 187.757 19.1195 187.799 18.8512C187.841 18.5794 188.092 18.3958 188.36 18.4382C188.629 18.4805 188.816 18.7312 188.773 18.9995C188.731 19.2678 188.48 19.4549 188.212 19.4125ZM189.253 18.2652C188.985 18.2228 188.798 17.9722 188.84 17.7039C188.883 17.4356 189.133 17.2485 189.402 17.2909C189.67 17.3332 189.857 17.5839 189.815 17.8522C189.772 18.1205 189.522 18.3076 189.253 18.2652Z" fill="#1A1A1A"/>
<path d="M191.287 28.8805L192.572 29.1135C192.632 29.1241 192.695 29.1205 192.755 29.0994C192.815 29.0817 192.868 29.0464 192.911 29.0005L193.433 28.4569C193.518 28.3686 193.627 28.3015 193.744 28.2627C193.86 28.2239 193.987 28.2168 194.111 28.238L195.544 28.4957C195.668 28.5169 195.781 28.5698 195.88 28.6475C195.978 28.7252 196.053 28.824 196.102 28.937L196.402 29.6289C196.427 29.6854 196.466 29.7348 196.515 29.7736C196.564 29.8125 196.621 29.8372 196.681 29.8478L196.854 29.8795L196.886 29.6924C196.896 29.643 196.921 29.6006 196.963 29.5724C197.006 29.5442 197.055 29.5336 197.105 29.5406L197.662 29.6395C197.712 29.6501 197.754 29.6748 197.782 29.7171C197.811 29.7595 197.821 29.8089 197.814 29.8584L197.782 30.0455L197.969 30.0772C198.167 30.1125 198.34 30.2255 198.457 30.3879C198.573 30.5503 198.616 30.755 198.58 30.9527L197.878 34.85C197.842 35.0477 197.729 35.2207 197.567 35.3372C197.405 35.4537 197.2 35.4961 197.002 35.4608L190.32 34.257C190.122 34.2217 189.949 34.1087 189.832 33.9463C189.716 33.7839 189.674 33.5792 189.709 33.3815L190.411 29.4841C190.447 29.2865 190.56 29.1135 190.722 28.997C190.884 28.8805 191.089 28.8381 191.287 28.8734V28.8805ZM193.793 34.1228C194.217 34.2005 194.651 34.1475 195.043 33.9781C195.435 33.8051 195.77 33.5227 196.003 33.1626C196.236 32.8025 196.356 32.3789 196.346 31.9518C196.339 31.5211 196.204 31.1045 195.957 30.755C195.714 30.402 195.368 30.1302 194.969 29.9748C194.57 29.8195 194.132 29.7842 193.712 29.876C193.292 29.9678 192.911 30.1796 192.611 30.4903C192.314 30.8009 192.113 31.1892 192.039 31.6129C191.936 32.1777 192.063 32.7637 192.392 33.2367C192.72 33.7098 193.221 34.031 193.79 34.1334L193.793 34.1228Z" fill="#1A1A1A"/>
<path d="M194.429 30.5962C194.704 30.6456 194.958 30.7762 195.159 30.9704C195.361 31.1645 195.502 31.4152 195.562 31.687C195.622 31.9588 195.597 32.2448 195.495 32.506C195.392 32.7672 195.216 32.9896 194.987 33.152C194.757 33.3109 194.485 33.3991 194.206 33.4062C193.927 33.4097 193.652 33.3321 193.416 33.1838C193.179 33.032 192.995 32.8166 192.883 32.5589C192.77 32.3012 192.738 32.0188 192.787 31.7435C192.854 31.3728 193.063 31.048 193.373 30.8327C193.68 30.6173 194.062 30.5361 194.432 30.6032L194.429 30.5962ZM194.026 32.8237C194.249 32.8625 194.475 32.8131 194.662 32.686C194.845 32.5589 194.972 32.3612 195.015 32.1388C195.025 32.0894 195.015 32.04 194.983 31.9976C194.955 31.9553 194.912 31.927 194.863 31.92C194.814 31.9129 194.764 31.92 194.722 31.9517C194.679 31.98 194.651 32.0224 194.644 32.0718C194.623 32.1953 194.552 32.3048 194.45 32.3754C194.348 32.446 194.22 32.4742 194.097 32.453C194.047 32.4424 193.998 32.453 193.956 32.4848C193.913 32.513 193.885 32.5554 193.878 32.6048C193.871 32.6543 193.878 32.7037 193.91 32.746C193.938 32.7884 193.98 32.8166 194.03 32.8237H194.026Z" fill="#1A1A1A"/>
<path fill-rule="evenodd" clip-rule="evenodd" d="M196.183 15.8894L196.056 16.5884C195.975 17.0402 196.275 17.4709 196.727 17.5521L197.895 17.7604C197.959 17.771 198.001 17.8345 197.991 17.8981L197.066 23.0345C197.055 23.098 196.992 23.1404 196.928 23.1298L195.76 22.9215C195.308 22.8403 194.877 23.1404 194.796 23.5923L194.669 24.2912C194.588 24.7431 194.888 25.1738 195.339 25.255L197.44 25.6327C197.779 25.6927 198.132 25.6186 198.414 25.4209C198.697 25.2232 198.891 24.9196 198.954 24.5807L200.299 17.1108C200.359 16.7719 200.285 16.4189 200.088 16.1365C199.89 15.8541 199.586 15.6599 199.247 15.5964C198.538 15.4693 197.606 15.2998 197.147 15.2186C196.695 15.1374 196.264 15.4375 196.183 15.8894Z" fill="#1A1A1A"/>
<path fill-rule="evenodd" clip-rule="evenodd" d="M194.189 24.323C194.192 24.2842 194.196 24.2453 194.203 24.2065L194.33 23.5075C194.457 22.798 195.135 22.3284 195.844 22.4555L196.66 22.6038L197.458 18.1699L196.642 18.0216C195.933 17.8945 195.463 17.2167 195.59 16.5072L195.717 15.8082C195.724 15.7693 195.735 15.7305 195.742 15.6917L195.385 15.6281C195.046 15.5681 194.693 15.6423 194.411 15.8399C194.129 16.0376 193.934 16.3412 193.871 16.6801C193.596 18.2087 193.055 21.2235 192.78 22.7485C192.72 23.0874 192.794 23.4404 192.992 23.7229C193.19 24.0053 193.493 24.1994 193.832 24.263L194.189 24.3265V24.323Z" fill="#1A1A1A"/>
<path fill-rule="evenodd" clip-rule="evenodd" d="M199.992 17.8486L201.284 17.3579C201.468 17.2873 201.56 17.0826 201.489 16.899C201.418 16.7154 201.214 16.6236 201.03 16.6942L199.738 17.1849C199.555 17.2555 199.463 17.4603 199.533 17.6439C199.604 17.8274 199.809 17.9192 199.992 17.8486Z" fill="#1A1A1A"/>
<path fill-rule="evenodd" clip-rule="evenodd" d="M198.457 24.3159L199.498 25.2267C199.646 25.3573 199.872 25.3397 199.999 25.1914C200.13 25.0431 200.112 24.8172 199.964 24.6901L198.923 23.7793C198.774 23.6487 198.548 23.6664 198.421 23.8146C198.291 23.9629 198.308 24.1888 198.457 24.3159Z" fill="#1A1A1A"/>
<path d="M183.506 4.79399L189.356 1.11906C189.614 0.956669 189.945 1.01668 190.129 1.25674L194.33 6.74265C194.478 6.93681 194.492 7.19452 194.365 7.4028C194.238 7.61108 194.002 7.71698 193.765 7.67462L192.964 7.52988L192.138 12.1191C192.106 12.3027 191.929 12.4227 191.749 12.391L188.992 11.8967C188.809 11.865 188.689 11.6884 188.72 11.5084L189.222 8.72309L187.601 8.43008L187.1 11.2154C187.068 11.399 186.892 11.519 186.712 11.4872L183.958 10.993C183.775 10.9612 183.655 10.7847 183.686 10.6047L184.512 6.01543L183.711 5.87069C183.471 5.82833 183.287 5.64476 183.242 5.40824C183.196 5.17172 183.298 4.93166 183.503 4.80458L183.506 4.79399Z" fill="#1A1A1A"/>
<path d="M185.515 0.953143L187.728 1.35205L184.77 3.2054L185.127 1.22144C185.158 1.03787 185.335 0.917841 185.515 0.949613V0.953143Z" fill="#1A1A1A"/>
<path d="M177.713 0.0317723C177.65 0.0670742 177.604 0.130618 177.593 0.201221L177.431 1.10848C176.799 1.22498 176.167 1.41561 175.888 1.70861C174.924 2.72178 174.377 5.76833 174.928 7.05332C175.087 7.42399 175.616 7.81937 176.164 8.15121L176.001 9.05847C175.987 9.12907 176.008 9.20321 176.058 9.25969C176.104 9.31617 176.174 9.34795 176.248 9.34441L176.926 9.32676C177.043 9.32676 177.138 9.23851 177.159 9.12554L177.208 8.85725C177.463 9.17144 177.816 9.3656 178.193 9.4362C178.659 9.52092 179.115 9.42208 179.471 9.15025C179.475 9.15025 179.478 9.14319 179.482 9.13966L180.393 9.30558C180.59 9.34089 180.781 9.21027 180.816 9.01258L180.968 8.17592C181.003 7.97823 180.873 7.7876 180.675 7.7523L180.308 7.68523L181.152 2.99007L181.519 3.05715C181.717 3.09245 181.907 2.96183 181.942 2.76414L182.094 1.92748C182.13 1.72979 181.999 1.53916 181.801 1.50386L180.908 1.34147C180.654 0.942561 180.251 0.698978 179.821 0.617784C179.429 0.54718 179.016 0.607193 178.659 0.826065L178.712 0.54012C178.733 0.427154 178.67 0.314188 178.564 0.271825L177.936 0.0211817C177.869 -0.00352962 177.791 5.76023e-07 177.727 0.0353025L177.713 0.0317723ZM175.595 6.76738C175.157 5.74362 175.648 3.01831 176.414 2.2099C176.562 2.05457 177.074 1.90983 177.692 1.80393L176.651 7.59344C176.111 7.27925 175.68 6.96507 175.595 6.76738ZM178.469 8.39126C178.08 8.32066 177.819 7.94999 177.89 7.55814C177.96 7.16982 178.331 6.90858 178.723 6.97919C179.115 7.04979 179.372 7.42046 179.302 7.81231C179.231 8.20416 178.861 8.46187 178.469 8.39126ZM180.255 2.5135C180.184 2.90182 179.814 3.16305 179.422 3.09245C179.034 3.02184 178.772 2.65117 178.843 2.25932C178.914 1.86747 179.284 1.60977 179.676 1.68037C180.068 1.75098 180.326 2.12164 180.255 2.5135Z" fill="#1A1A1A"/>
<path d="M171.073 23.5323L170.187 28.4569L171.419 28.6793L171.853 28.3757C172.072 28.2239 172.337 28.1639 172.602 28.2133L174.571 28.5663C175.115 28.6651 175.475 29.1841 175.38 29.7277L175.143 31.041C175.044 31.5846 174.525 31.9482 173.982 31.8494L172.012 31.4964C171.751 31.4505 171.521 31.3022 171.369 31.0833L171.066 30.6491L169.834 30.4267L169.65 31.454C169.551 31.9976 169.915 32.5166 170.459 32.6154L175.712 33.5615C176.255 33.6604 176.774 33.2968 176.873 32.7531L177.886 27.1295L174.931 26.5965C174.028 26.4341 173.424 25.5656 173.586 24.6584L173.883 23.0168L172.241 22.7203C171.698 22.6215 171.175 22.9851 171.08 23.5287L171.073 23.5323Z" fill="#1A1A1A"/>
<path d="M179.136 27.6944L179.076 28.0227L178.419 27.9062L178.066 29.876L178.723 29.9925L178.663 30.3208C178.631 30.5009 178.751 30.6738 178.931 30.7091C179.111 30.7444 179.284 30.6209 179.319 30.4408L179.793 27.8144C179.824 27.6343 179.704 27.4614 179.524 27.4261C179.344 27.3943 179.171 27.5143 179.136 27.6944Z" fill="#1A1A1A"/>
<path d="M174.593 22.8086L174.24 24.7784C174.141 25.3221 174.504 25.8445 175.048 25.9398L178.988 26.6494C179.531 26.7483 180.05 26.3847 180.149 25.841L180.502 23.8712C180.601 23.3275 180.237 22.8086 179.694 22.7097L175.754 22.0002C175.21 21.9013 174.691 22.2649 174.593 22.8086ZM179.069 24.2912L178.952 24.9479C178.921 25.1279 178.748 25.2479 178.564 25.2162C178.38 25.1844 178.264 25.0114 178.296 24.8278L178.412 24.1712C178.444 23.9912 178.617 23.8676 178.801 23.9029C178.984 23.9382 179.101 24.1077 179.069 24.2912ZM176.442 23.8182L176.326 24.4748C176.294 24.6549 176.121 24.7749 175.938 24.7431C175.754 24.7113 175.637 24.5384 175.669 24.3548L175.786 23.6982C175.818 23.5181 175.991 23.3946 176.174 23.4299C176.358 23.4652 176.474 23.6346 176.442 23.8182Z" fill="#1A1A1A"/>
<path d="M172.234 28.9229L171.574 29.3818L169.742 29.0535C169.562 29.0217 169.389 29.1417 169.354 29.3218C169.318 29.5018 169.442 29.6748 169.622 29.7101L171.454 30.0384L171.913 30.6985C171.963 30.7691 172.04 30.8221 172.128 30.8362L174.098 31.1892C174.278 31.221 174.451 31.101 174.487 30.9209L174.723 29.6077C174.755 29.4277 174.635 29.2547 174.455 29.2194L172.485 28.8664C172.397 28.8522 172.309 28.8699 172.234 28.9193V28.9229Z" fill="#1A1A1A"/>
<path d="M177.572 20.3586L178.31 20.4928C178.448 20.5175 178.575 20.4257 178.599 20.2915L178.645 20.0444L179.383 20.1786C179.517 20.2033 179.648 20.1115 179.673 19.9774C179.697 19.8432 179.606 19.7126 179.471 19.6879L178.734 19.5537L179.891 13.1217L180.629 13.2559C180.763 13.2806 180.894 13.1888 180.919 13.0547C180.943 12.9205 180.852 12.7899 180.718 12.7652L179.98 12.631L180.026 12.3839C180.05 12.2462 179.959 12.1192 179.824 12.0944L179.087 11.9603L177.576 20.3622L177.572 20.3586Z" fill="#1A1A1A"/>
<path d="M175.242 13.5489L174.974 15.0421C174.949 15.1763 175.041 15.3069 175.175 15.3316L175.913 15.4658L176.269 13.4783L175.532 13.3441C175.398 13.3194 175.267 13.4112 175.242 13.5453V13.5489Z" fill="#1A1A1A"/>
<path d="M174.794 16.0271L174.526 17.5203C174.501 17.6545 174.593 17.7851 174.727 17.8098L175.465 17.944L175.821 15.9565L175.083 15.8223C174.949 15.7976 174.819 15.8894 174.794 16.0235V16.0271Z" fill="#1A1A1A"/>
<path d="M173.851 12.7934L172.958 17.7498C172.835 18.4276 173.29 19.0807 173.968 19.2007L175.2 19.4231L175.376 18.4382L174.639 18.304C174.233 18.2299 173.961 17.8416 174.031 17.4321L174.3 15.9388C174.335 15.7482 174.437 15.5893 174.579 15.4799C174.483 15.3281 174.441 15.1445 174.476 14.9539L174.744 13.4606C174.819 13.0546 175.207 12.7828 175.616 12.8534L176.354 12.9876L176.531 12.0026L175.299 11.7802C174.621 11.6567 173.968 12.1121 173.848 12.7899L173.851 12.7934Z" fill="#1A1A1A"/>
<path d="M176.983 12.338L175.736 19.2642C175.662 19.6737 175.934 20.0621 176.344 20.1362L177.081 20.2704L178.592 11.8685L177.855 11.7344C177.445 11.6602 177.057 11.932 176.983 12.3415V12.338Z" fill="#1A1A1A"/>
<path d="M198.404 10.3752C197.782 10.2623 197.369 9.6692 197.479 9.04789C197.592 8.42657 198.185 8.01354 198.806 8.12298C199.427 8.23241 199.841 8.82902 199.731 9.45033C199.618 10.0716 199.025 10.4847 198.404 10.3752Z" fill="#1A1A1A"/>
<path d="M200.801 12.2074L195.791 11.3072C195.721 11.2931 195.654 11.2542 195.615 11.1942C195.573 11.1342 195.558 11.0601 195.569 10.9859L196.416 6.28726L201.697 7.23688L200.804 12.2074H200.801ZM198.909 7.57578C198.577 7.51577 198.238 7.5546 197.931 7.68875C197.624 7.8229 197.362 8.0453 197.182 8.32771C197.002 8.61013 196.907 8.93844 196.914 9.2738C196.921 9.60917 197.027 9.93395 197.218 10.2128C197.408 10.4882 197.677 10.7 197.991 10.8236C198.301 10.9471 198.644 10.9754 198.972 10.9012C199.3 10.8306 199.6 10.6612 199.833 10.4211C200.066 10.1811 200.222 9.87394 200.282 9.54563C200.359 9.10435 200.261 8.64543 200.003 8.27829C199.745 7.90762 199.353 7.65698 198.912 7.57578H198.909Z" fill="#1A1A1A"/>
<path d="M196.752 4.38097L196.508 5.74009L201.789 6.68971L202.033 5.33059C202.047 5.25999 202.029 5.18585 201.987 5.12584C201.945 5.06582 201.881 5.02699 201.81 5.01287L197.069 4.15857C196.999 4.14444 196.925 4.1621 196.865 4.20446C196.801 4.24329 196.759 4.31036 196.748 4.38097H196.752Z" fill="#1A1A1A"/>
<path d="M203.674 15.7729C202.813 14.7139 201.524 14.1067 200.162 14.1067H170.254L170.194 13.5771C169.922 11.2931 167.984 9.56683 165.682 9.56683H163.836C163.003 9.56683 162.322 10.2482 162.322 11.0813C162.322 11.9144 163.003 12.5957 163.836 12.5957H165.682C166.456 12.5957 167.091 13.1712 167.179 13.9266L169.269 31.6341C169.724 35.4467 172.948 38.3238 176.792 38.3238H200.917C201.75 38.3238 202.432 37.6424 202.432 36.8093C202.432 35.9762 201.75 35.2949 200.917 35.2949H176.792C174.84 35.2949 173.145 34.0522 172.51 32.2695H195.862C199.463 32.2695 202.584 29.7101 203.279 26.1834L204.61 19.5396C204.882 18.2087 204.536 16.832 203.671 15.7694L203.674 15.7729ZM201.644 18.9501L200.314 25.5939C199.89 27.712 198.012 29.2406 195.866 29.2406H172.044L170.621 17.132H200.165C200.621 17.132 201.044 17.3297 201.33 17.6933C201.616 18.0428 201.74 18.5123 201.648 18.9501H201.644ZM175.945 42.8636C175.945 44.5298 174.582 45.889 172.919 45.889C171.257 45.889 169.894 44.5263 169.894 42.8636C169.894 41.2009 171.257 39.8382 172.919 39.8382C174.582 39.8382 175.945 41.2009 175.945 42.8636ZM200.917 42.8636C200.917 44.5298 199.555 45.889 197.892 45.889C196.229 45.889 194.867 44.5263 194.867 42.8636C194.867 41.2009 196.229 39.8382 197.892 39.8382C199.555 39.8382 200.917 41.2009 200.917 42.8636Z" fill="#00B4D8"/>
<path d="M159.3 18.65C159.3 17.8169 159.981 17.1356 160.814 17.1356H163.144C163.977 17.1356 164.659 17.8169 164.659 18.65C164.659 19.4831 163.977 20.1645 163.144 20.1645H160.814C159.981 20.1645 159.3 19.4831 159.3 18.65ZM159.3 24.7043C159.3 23.8712 159.981 23.1898 160.814 23.1898H163.84C164.673 23.1898 165.354 23.8712 165.354 24.7043C165.354 25.5374 164.673 26.2187 163.84 26.2187H160.814C159.981 26.2187 159.3 25.5374 159.3 24.7043ZM166.869 30.7586C166.869 31.5917 166.187 32.273 165.354 32.273H160.814C159.981 32.273 159.3 31.5917 159.3 30.7586C159.3 29.9254 159.981 29.2441 160.814 29.2441H165.354C166.187 29.2441 166.869 29.9254 166.869 30.7586Z" fill="#FB8500"/>
</g>
<defs>
<clipPath id="clip0_817_3202">
<rect width="204.705" height="48" fill="white"/>
</clipPath>
</defs>
</svg>
