<svg width="25" height="24" viewBox="0 0 25 24" fill="none" xmlns="http://www.w3.org/2000/svg">
<path d="M12.5 21C12.5 21.553 12.052 22 11.5 22H5.5C2.743 22 0.5 19.757 0.5 17V5C0.5 2.243 2.743 0 5.5 0H17.5C20.257 0 22.5 2.243 22.5 5V11C22.5 11.553 22.052 12 21.5 12C20.948 12 20.5 11.553 20.5 11V5C20.5 3.346 19.154 2 17.5 2H5.5C3.846 2 2.5 3.346 2.5 5V11.959L5.308 9.151C6.84 7.618 9.333 7.618 10.866 9.151L16.207 14.492C16.598 14.883 16.598 15.515 16.207 15.906C16.012 16.101 15.756 16.199 15.5 16.199C15.244 16.199 14.988 16.101 14.793 15.906L9.452 10.565C8.7 9.814 7.476 9.813 6.722 10.565L2.5 14.787V17C2.5 18.654 3.846 20 5.5 20H11.5C12.052 20 12.5 20.447 12.5 21ZM15.5 3.5C17.154 3.5 18.5 4.846 18.5 6.5C18.5 8.154 17.154 9.5 15.5 9.5C13.846 9.5 12.5 8.154 12.5 6.5C12.5 4.846 13.846 3.5 15.5 3.5ZM15.5 5.5C14.949 5.5 14.5 5.948 14.5 6.5C14.5 7.052 14.949 7.5 15.5 7.5C16.051 7.5 16.5 7.052 16.5 6.5C16.5 5.948 16.051 5.5 15.5 5.5ZM23.5 18H20.5V15C20.5 14.447 20.052 14 19.5 14C18.948 14 18.5 14.447 18.5 15V18H15.5C14.948 18 14.5 18.447 14.5 19C14.5 19.553 14.948 20 15.5 20H18.5V23C18.5 23.553 18.948 24 19.5 24C20.052 24 20.5 23.553 20.5 23V20H23.5C24.052 20 24.5 19.553 24.5 19C24.5 18.447 24.052 18 23.5 18Z" fill="#00B4D8"/>
</svg>
