<svg width="20" height="22" viewBox="0 0 20 22" fill="none" xmlns="http://www.w3.org/2000/svg">
<path d="M14.5833 0H5.41668C2.88943 0 0.833344 2.05608 0.833344 4.58333V17.4167C0.833344 19.9439 2.88943 22 5.41668 22H14.5833C17.1106 22 19.1667 19.9439 19.1667 17.4167V4.58333C19.1667 2.05608 17.1106 0 14.5833 0ZM5.41668 1.83333H14.5833C16.0995 1.83333 17.3333 3.06717 17.3333 4.58333H2.66668C2.66668 3.06717 3.90051 1.83333 5.41668 1.83333ZM14.5833 20.1667H5.41668C3.90051 20.1667 2.66668 18.9328 2.66668 17.4167V6.41667H17.3333V17.4167C17.3333 18.9328 16.0995 20.1667 14.5833 20.1667ZM14.5833 10.0833C14.5833 10.5903 14.1727 11 13.6667 11H6.33334C5.82734 11 5.41668 10.5903 5.41668 10.0833C5.41668 9.57642 5.82734 9.16667 6.33334 9.16667H13.6667C14.1727 9.16667 14.5833 9.57642 14.5833 10.0833ZM10.9167 13.75C10.9167 14.2569 10.506 14.6667 10 14.6667H6.33334C5.82734 14.6667 5.41668 14.2569 5.41668 13.75C5.41668 13.2431 5.82734 12.8333 6.33334 12.8333H10C10.506 12.8333 10.9167 13.2431 10.9167 13.75Z" fill="#1A1A1A"/>
</svg>
