<svg width="21" height="20" viewBox="0 0 21 20" fill="none" xmlns="http://www.w3.org/2000/svg">
<path d="M19.6667 20H2.98999C1.61082 20 0.48999 18.8783 0.48999 17.5V0.833333C0.48999 0.373333 0.863324 0 1.32332 0C1.78332 0 2.15666 0.373333 2.15666 0.833333V17.5C2.15666 17.96 2.53082 18.3333 2.98999 18.3333H19.6667C20.1267 18.3333 20.5 18.7058 20.5 19.1667C20.5 19.6275 20.1267 20 19.6667 20ZM12.1667 10.8333C12.1667 11.2933 12.54 11.6667 13 11.6667C13.46 11.6667 13.8333 11.2933 13.8333 10.8333C13.8333 10.3733 13.46 10 13 10C12.54 10 12.1667 10.3733 12.1667 10.8333ZM17.1667 5.83333C17.1667 6.29333 17.54 6.66667 18 6.66667C18.46 6.66667 18.8333 6.29333 18.8333 5.83333C18.8333 5.37333 18.46 5 18 5C17.54 5 17.1667 5.37333 17.1667 5.83333ZM9.66666 15C9.66666 15.46 10.04 15.8333 10.5 15.8333C10.96 15.8333 11.3333 15.46 11.3333 15C11.3333 14.54 10.96 14.1667 10.5 14.1667C10.04 14.1667 9.66666 14.54 9.66666 15ZM17.1667 14.1667C17.1667 14.6267 17.54 15 18 15C18.46 15 18.8333 14.6267 18.8333 14.1667C18.8333 13.7067 18.46 13.3333 18 13.3333C17.54 13.3333 17.1667 13.7067 17.1667 14.1667ZM7.99999 4.16667C7.99999 4.62667 8.37332 5 8.83332 5C9.29332 5 9.66666 4.62667 9.66666 4.16667C9.66666 3.70667 9.29332 3.33333 8.83332 3.33333C8.37332 3.33333 7.99999 3.70667 7.99999 4.16667ZM4.66666 10C4.66666 10.46 5.03999 10.8333 5.49999 10.8333C5.95999 10.8333 6.33332 10.46 6.33332 10C6.33332 9.54 5.95999 9.16667 5.49999 9.16667C5.03999 9.16667 4.66666 9.54 4.66666 10Z" fill="#1A1A1A"/>
</svg>
