<svg width="21" height="18" viewBox="0 0 21 18" fill="none" xmlns="http://www.w3.org/2000/svg">
<path d="M16.3333 8.1665H2.16667V1.49984C2.16667 1.03984 1.79333 0.666504 1.33333 0.666504C0.873333 0.666504 0.5 1.03984 0.5 1.49984V16.4998C0.5 16.9598 0.873333 17.3332 1.33333 17.3332C1.79333 17.3332 2.16667 16.9598 2.16667 16.4998V14.8332H18.8333V16.4998C18.8333 16.9598 19.2058 17.3332 19.6667 17.3332C20.1275 17.3332 20.5 16.9598 20.5 16.4998V12.3332C20.5 10.0357 18.6308 8.1665 16.3333 8.1665ZM2.16667 13.1665V9.83317H16.3333C17.7117 9.83317 18.8333 10.9548 18.8333 12.3332V13.1665H2.16667Z" fill="#1A1A1A"/>
</svg>
