<svg width="70" height="60" viewBox="0 0 70 60" fill="none" xmlns="http://www.w3.org/2000/svg">
<rect x="6.10352e-05" width="70" height="60" rx="6" fill="#DDDDDD"/>
<g clip-path="url(#clip0_388_15452)">
<path d="M35.4904 34.4901C42.5294 34.4901 48.2356 28.7839 48.2356 21.745C48.2356 14.706 42.5294 8.99982 35.4904 8.99982C28.4514 8.99982 22.7452 14.706 22.7452 21.745C22.7452 28.7839 28.4514 34.4901 35.4904 34.4901Z" fill="#B9B9B9"/>
<path d="M35.4904 38.7385C24.9368 38.7503 16.3844 47.3027 16.3727 57.8563C16.3727 59.0294 17.3237 59.9804 18.4968 59.9804H52.4839C53.657 59.9804 54.608 59.0294 54.608 57.8563C54.5964 47.3027 46.044 38.7502 35.4904 38.7385Z" fill="#B9B9B9"/>
</g>
<defs>
<clipPath id="clip0_388_15452">
<rect width="50.9806" height="50.9806" fill="white" transform="translate(10.0001 8.99982)"/>
</clipPath>
</defs>
</svg>
