<svg width="15" height="8" viewBox="0 0 15 8" fill="none" xmlns="http://www.w3.org/2000/svg">
<path d="M8.60972 5.29858C8.51676 5.39231 8.40616 5.4667 8.2843 5.51747C8.16244 5.56824 8.03173 5.59438 7.89972 5.59438C7.76771 5.59438 7.637 5.56824 7.51514 5.51747C7.39328 5.4667 7.28268 5.39231 7.18972 5.29858L2.60972 0.708577C2.51676 0.614849 2.40615 0.540454 2.2843 0.489685C2.16244 0.438917 2.03173 0.412779 1.89972 0.412779C1.76771 0.412779 1.637 0.438917 1.51514 0.489685C1.39328 0.540454 1.28268 0.614849 1.18972 0.708577C1.00347 0.89594 0.898926 1.14939 0.898926 1.41358C0.898926 1.67776 1.00347 1.93121 1.18972 2.11858L5.77972 6.70858C6.34222 7.27038 7.10472 7.58594 7.89972 7.58594C8.69472 7.58594 9.45722 7.27038 10.0197 6.70858L14.6097 2.11858C14.7945 1.93232 14.8986 1.68092 14.8997 1.41858C14.9005 1.28697 14.8753 1.15651 14.8255 1.03467C14.7757 0.912833 14.7024 0.802017 14.6097 0.708577C14.5168 0.614849 14.4062 0.540454 14.2843 0.489685C14.1624 0.438917 14.0317 0.412779 13.8997 0.412779C13.7677 0.412779 13.637 0.438917 13.5151 0.489685C13.3933 0.540454 13.2827 0.614849 13.1897 0.708577L8.60972 5.29858Z" fill="#1A1A1A"/>
</svg>
