<svg width="20" height="20" viewBox="0 0 20 20" fill="none" xmlns="http://www.w3.org/2000/svg">
<path d="M3.96675 15.6747C3.96675 15.6747 4.03341 15.6747 4.05841 15.6747L6.50008 15.4497C6.84175 15.4163 7.15842 15.2663 7.40008 15.0247L16.6167 5.80801C17.0501 5.37467 17.2917 4.79967 17.2917 4.19134C17.2917 3.58301 17.0501 3.00801 16.6167 2.57467L16.0251 1.98301C15.1584 1.11634 13.6501 1.11634 12.7834 1.98301L11.6084 3.15801L3.57508 11.1913C3.33341 11.433 3.18341 11.7497 3.15841 12.0913L2.93341 14.533C2.90841 14.8413 3.01675 15.1413 3.23341 15.3663C3.43341 15.5663 3.69175 15.6747 3.96675 15.6747ZM14.4084 2.55801C14.6751 2.55801 14.9417 2.65801 15.1417 2.86634L15.7334 3.45801C15.9334 3.65801 16.0417 3.91634 16.0417 4.19134C16.0417 4.46634 15.9334 4.73301 15.7334 4.92467L15.0001 5.65801L12.9417 3.59967L13.6751 2.86634C13.8751 2.66634 14.1417 2.55801 14.4084 2.55801ZM4.40008 12.208C4.40008 12.158 4.42508 12.1163 4.45841 12.083L12.0501 4.48301L14.1084 6.54134L6.51675 14.133C6.51675 14.133 6.43341 14.1913 6.39175 14.1913L4.20008 14.3913L4.40008 12.1997V12.208ZM18.9584 18.333C18.9584 18.6747 18.6751 18.958 18.3334 18.958H1.66675C1.32508 18.958 1.04175 18.6747 1.04175 18.333C1.04175 17.9913 1.32508 17.708 1.66675 17.708H18.3334C18.6751 17.708 18.9584 17.9913 18.9584 18.333Z" fill="#1A1A1A"/>
</svg>
