<svg width="50" height="51" viewBox="0 0 50 51" fill="none" xmlns="http://www.w3.org/2000/svg">
<g clip-path="url(#clip0_817_5126)">
<path d="M13.2604 8.36042C11.1229 6.22292 7.625 6.22292 5.4875 8.36042L1.42708 12.4208C0.5125 13.3354 0 14.575 0 15.8667V40.0813C0 45.8333 4.66458 50.4979 10.4167 50.4979H18.75V15.8688C18.75 14.575 18.2354 13.3354 17.3208 12.4208L13.2604 8.36042ZM10.4167 40.0833H8.33333C7.18333 40.0833 6.25 39.15 6.25 38C6.25 36.85 7.18333 35.9167 8.33333 35.9167H10.4167C11.5667 35.9167 12.5 36.85 12.5 38C12.5 39.15 11.5667 40.0833 10.4167 40.0833ZM10.4167 31.75H8.33333C7.18333 31.75 6.25 30.8167 6.25 29.6667C6.25 28.5167 7.18333 27.5833 8.33333 27.5833H10.4167C11.5667 27.5833 12.5 28.5167 12.5 29.6667C12.5 30.8167 11.5667 31.75 10.4167 31.75ZM10.4167 23.4167H8.33333C7.18333 23.4167 6.25 22.4833 6.25 21.3333C6.25 20.1833 7.18333 19.25 8.33333 19.25H10.4167C11.5667 19.25 12.5 20.1833 12.5 21.3333C12.5 22.4833 11.5667 23.4167 10.4167 23.4167Z" fill="#00B4D8"/>
<path d="M39.5833 0.5H33.3333C27.5812 0.5 22.9167 5.16458 22.9167 10.9167V50.5H39.5833C45.3354 50.5 50 45.8354 50 40.0833V10.9167C50 5.16458 45.3354 0.5 39.5833 0.5ZM33.3333 40.0833H31.25C30.1 40.0833 29.1667 39.15 29.1667 38C29.1667 36.85 30.1 35.9167 31.25 35.9167H33.3333C34.4833 35.9167 35.4167 36.85 35.4167 38C35.4167 39.15 34.4833 40.0833 33.3333 40.0833ZM33.3333 31.75H31.25C30.1 31.75 29.1667 30.8167 29.1667 29.6667C29.1667 28.5167 30.1 27.5833 31.25 27.5833H33.3333C34.4833 27.5833 35.4167 28.5167 35.4167 29.6667C35.4167 30.8167 34.4833 31.75 33.3333 31.75ZM33.3333 23.4167H31.25C30.1 23.4167 29.1667 22.4833 29.1667 21.3333C29.1667 20.1833 30.1 19.25 31.25 19.25H33.3333C34.4833 19.25 35.4167 20.1833 35.4167 21.3333C35.4167 22.4833 34.4833 23.4167 33.3333 23.4167ZM33.3333 15.0833H31.25C30.1 15.0833 29.1667 14.15 29.1667 13C29.1667 11.85 30.1 10.9167 31.25 10.9167H33.3333C34.4833 10.9167 35.4167 11.85 35.4167 13C35.4167 14.15 34.4833 15.0833 33.3333 15.0833ZM41.6667 40.0833H39.5833C38.4333 40.0833 37.5 39.15 37.5 38C37.5 36.85 38.4333 35.9167 39.5833 35.9167H41.6667C42.8167 35.9167 43.75 36.85 43.75 38C43.75 39.15 42.8167 40.0833 41.6667 40.0833ZM41.6667 31.75H39.5833C38.4333 31.75 37.5 30.8167 37.5 29.6667C37.5 28.5167 38.4333 27.5833 39.5833 27.5833H41.6667C42.8167 27.5833 43.75 28.5167 43.75 29.6667C43.75 30.8167 42.8167 31.75 41.6667 31.75ZM41.6667 23.4167H39.5833C38.4333 23.4167 37.5 22.4833 37.5 21.3333C37.5 20.1833 38.4333 19.25 39.5833 19.25H41.6667C42.8167 19.25 43.75 20.1833 43.75 21.3333C43.75 22.4833 42.8167 23.4167 41.6667 23.4167ZM41.6667 15.0833H39.5833C38.4333 15.0833 37.5 14.15 37.5 13C37.5 11.85 38.4333 10.9167 39.5833 10.9167H41.6667C42.8167 10.9167 43.75 11.85 43.75 13C43.75 14.15 42.8167 15.0833 41.6667 15.0833Z" fill="#00B4D8"/>
</g>
<defs>
<clipPath id="clip0_817_5126">
<rect width="50" height="50" fill="white" transform="translate(0 0.5)"/>
</clipPath>
</defs>
</svg>
