<svg width="24" height="24" viewBox="0 0 24 24" fill="none" xmlns="http://www.w3.org/2000/svg">
<path d="M11.293 17.707L8.00001 21V1C8.00001 0.447 7.55301 0 7.00001 0C6.44701 0 6.00001 0.447 6.00001 1V21L2.70701 17.707C2.31601 17.316 1.68401 17.316 1.29301 17.707C0.902006 18.098 0.902006 18.73 1.29301 19.121L5.58601 23.414C5.97601 23.804 6.48801 23.999 7.00001 23.999C7.51201 23.999 8.02401 23.804 8.41401 23.414L12.707 19.121C13.098 18.73 13.098 18.098 12.707 17.707C12.316 17.316 11.684 17.316 11.293 17.707ZM22.707 6.293C23.098 5.902 23.098 5.27 22.707 4.879L18.414 0.586C18.024 0.196 17.512 0 17 0C16.488 0 15.976 0.195 15.586 0.585L11.293 4.878C10.902 5.269 10.902 5.901 11.293 6.292C11.684 6.683 12.316 6.683 12.707 6.292L16 2.999V23C16 23.553 16.447 24 17 24C17.553 24 18 23.553 18 23V3L21.293 6.293C21.684 6.684 22.316 6.684 22.707 6.293Z" fill="#1A1A1A"/>
</svg>
