<svg width="205" height="48" viewBox="0 0 205 48" fill="none" xmlns="http://www.w3.org/2000/svg">
<path d="M8.20062 46.5353C8.00999 46.5353 7.85113 46.6059 7.72405 46.7471C7.59696 46.8883 7.53342 47.0613 7.53342 47.266C7.53342 47.4708 7.59696 47.6543 7.72405 47.7955C7.85113 47.9332 8.00999 48.0038 8.20062 48.0038C8.39125 48.0038 8.55011 47.9332 8.67367 47.792C8.80075 47.6508 8.8643 47.4743 8.8643 47.2625C8.8643 47.0507 8.80075 46.8848 8.67367 46.7436C8.54658 46.6023 8.38772 46.5317 8.20062 46.5317V46.5353Z" fill="white"/>
<path d="M12.2039 39.0901C12.0909 39.0548 11.9638 39.023 11.8226 38.9983C11.4731 38.9347 11.1024 38.9489 10.7212 39.076C10.4917 39.1536 10.2799 39.2736 10.0893 39.436C9.89512 39.5984 9.73626 39.8102 9.61623 40.0609C9.49267 40.315 9.43266 40.6186 9.43266 40.9646C9.43266 41.1658 9.46443 41.3565 9.52445 41.5294C9.58446 41.6954 9.65859 41.8507 9.75038 41.9919C9.83863 42.1331 9.94101 42.2672 10.054 42.3873C10.1634 42.5073 10.2693 42.6203 10.3752 42.7262C10.5129 42.8603 10.6365 42.998 10.7424 43.1321C10.8341 43.2451 10.88 43.3581 10.88 43.4604C10.88 43.5522 10.8412 43.6546 10.7635 43.757C10.6788 43.8699 10.5553 43.9794 10.3964 44.0747C10.2305 44.1735 10.0293 44.2583 9.7998 44.3253C9.56681 44.3924 9.31264 44.4242 9.03728 44.4242C8.76193 44.4242 8.49716 44.3854 8.28535 44.3112C8.07354 44.2371 7.8935 44.1347 7.74876 44.0041C7.60755 43.877 7.50165 43.7287 7.42751 43.5558C7.35691 43.3828 7.31808 43.1922 7.31808 42.9803C7.31808 42.8074 7.34985 42.6132 7.40986 42.4014C7.46988 42.1896 7.56872 41.9672 7.70287 41.7412L7.76994 41.6247L6.70735 40.9222L6.64734 41.0211C6.46377 41.3176 6.31197 41.6353 6.19195 41.9601C6.06839 42.292 6.00838 42.6591 6.00838 43.0509C6.00838 43.3898 6.06486 43.7358 6.17783 44.0747C6.29079 44.4171 6.4673 44.7278 6.70382 44.9996C6.94035 45.2714 7.24747 45.4974 7.61461 45.6668C7.98175 45.8398 8.42656 45.9281 8.9349 45.9281C9.48914 45.9281 9.97984 45.8433 10.3858 45.6809C10.7953 45.5185 11.1377 45.3032 11.4025 45.042C11.6708 44.7807 11.872 44.4913 11.9991 44.1806C12.1297 43.8699 12.1933 43.5664 12.1933 43.2769C12.1933 43.1004 12.165 42.9344 12.1121 42.7827C12.0591 42.6344 11.9885 42.4896 11.9003 42.359C11.8155 42.2284 11.7167 42.1049 11.6073 41.9848C11.5014 41.8683 11.3954 41.7589 11.2931 41.653C11.1377 41.4977 11.0001 41.3423 10.88 41.1905C10.7777 41.0599 10.7247 40.9364 10.7247 40.8234C10.7247 40.6928 10.7706 40.601 10.8694 40.5269C11.0919 40.3645 11.4625 40.3786 11.8049 40.4668C11.9709 40.5092 12.1227 40.5657 12.2462 40.6398L12.3768 40.714L12.6804 39.2595L12.5887 39.2172C12.458 39.1571 12.3309 39.1148 12.2109 39.0865L12.2039 39.0901Z" fill="white"/>
<path d="M10.0822 46.5353C9.89158 46.5353 9.73272 46.6059 9.60916 46.7471C9.48208 46.8883 9.41853 47.0613 9.41853 47.266C9.41853 47.4708 9.48208 47.6543 9.60916 47.7955C9.73625 47.9332 9.89511 48.0038 10.0822 48.0038C10.2693 48.0038 10.4317 47.9332 10.5588 47.792C10.6859 47.6508 10.7494 47.4743 10.7494 47.2625C10.7494 47.0507 10.6859 46.8848 10.5588 46.7436C10.4317 46.6023 10.2728 46.5317 10.0822 46.5317V46.5353Z" fill="white"/>
<path d="M14.2337 43.3157C14.2337 43.6652 14.1914 43.9335 14.1102 44.1065C14.0184 44.2971 13.803 44.3571 13.4641 44.3148C13.3865 44.3042 13.3123 44.2936 13.2453 44.2795L12.864 44.1877L12.7193 45.6245L12.8111 45.6563C12.8605 45.6704 12.9064 45.6845 12.9558 45.6916L13.0723 45.7127C13.15 45.7269 13.2382 45.741 13.3371 45.7516C13.4359 45.7622 13.5489 45.7692 13.6689 45.7692C13.9654 45.7692 14.2337 45.7057 14.4597 45.5856C14.6891 45.4621 14.8833 45.2926 15.0421 45.0773C15.1975 44.8655 15.3175 44.6113 15.3952 44.3254C15.4728 44.043 15.5116 43.7358 15.5116 43.4146V39.3125H14.2373V43.3228L14.2337 43.3157Z" fill="white"/>
<path d="M31.0657 42.2389H29.7772C29.5124 42.2389 29.3323 42.1648 29.2406 42.0236C29.1417 41.8683 29.0923 41.66 29.0923 41.4129V39.3053H27.825V41.8259C27.825 41.9706 27.8073 42.0836 27.7685 42.1613C27.7438 42.2107 27.6802 42.2389 27.5814 42.2389H27.3625C27.0977 42.2389 26.9142 42.1648 26.8224 42.0201C26.72 41.8647 26.6706 41.6565 26.6706 41.4093V39.8666H25.3856V41.8259C25.3856 41.9706 25.3679 42.0836 25.3326 42.1613C25.3256 42.1789 25.3009 42.2354 25.1597 42.2354H24.9937C24.7219 42.2354 24.5383 42.1577 24.4466 42.0095C24.3442 41.8436 24.2948 41.6459 24.2948 41.4093V40.2691H23.038V41.8541C23.038 42.0377 23.0098 42.126 22.9851 42.1683C22.9533 42.2248 22.865 42.2354 22.7944 42.2354H20.4398V41.1269C20.4398 40.8092 20.3974 40.5127 20.3127 40.2444C20.228 39.9761 20.1009 39.7396 19.9385 39.5454C19.7761 39.3477 19.5749 39.1959 19.3419 39.0865C19.1124 38.9806 18.8477 38.9276 18.5582 38.9276C18.2546 38.9276 17.9757 38.9982 17.7251 39.1324C17.478 39.2665 17.2591 39.4571 17.0791 39.6901C16.899 39.9231 16.7578 40.1985 16.659 40.5056C16.5601 40.8127 16.5107 41.141 16.5107 41.4799C16.5107 41.7482 16.5495 42.0165 16.6272 42.2813C16.7049 42.5461 16.8319 42.7896 17.0049 42.9979C17.1779 43.2097 17.4038 43.3792 17.6792 43.5063C17.951 43.6334 18.2899 43.6969 18.6818 43.6969H19.176C19.1619 43.8487 19.1301 43.9723 19.0842 44.0711C19.0242 44.1947 18.943 44.2864 18.8406 44.357C18.7347 44.4277 18.6112 44.4771 18.4735 44.5018C18.3252 44.53 18.1699 44.5406 18.004 44.5406C17.8945 44.5406 17.7569 44.5336 17.6015 44.5194C17.4462 44.5053 17.2803 44.4841 17.1038 44.4594L16.9837 44.4418L16.8955 45.8644L16.9979 45.8856C17.185 45.9209 17.3579 45.9456 17.5133 45.9562C17.6686 45.9668 17.8169 45.9703 17.9616 45.9703C18.3076 45.9703 18.6288 45.9245 18.9183 45.8362C19.2113 45.7444 19.4725 45.6032 19.6914 45.4126C19.9138 45.2219 20.0903 44.9678 20.2209 44.6642C20.3374 44.3923 20.408 44.0676 20.4363 43.704H22.7874C23.0592 43.704 23.3134 43.644 23.5358 43.5239C23.7123 43.4321 23.857 43.3015 23.9735 43.1356C24.0512 43.2556 24.15 43.3686 24.2701 43.471C24.4501 43.6263 24.6901 43.704 24.9761 43.704H25.2161C25.4597 43.704 25.6927 43.644 25.9081 43.5239C26.074 43.4321 26.2187 43.3015 26.3317 43.1356C26.4093 43.2556 26.5047 43.3651 26.6176 43.4674C26.7941 43.6228 27.0342 43.704 27.3343 43.704H27.5814C27.8532 43.704 28.1074 43.6404 28.3298 43.5133C28.4992 43.418 28.6369 43.2874 28.7463 43.1285C28.8275 43.2521 28.9299 43.3686 29.0499 43.471C29.23 43.6263 29.4771 43.704 29.7736 43.704H32.3295V35.9976H31.0621V42.2389H31.0657ZM18.237 40.4138C18.3217 40.3715 18.4135 40.3468 18.5053 40.3468C18.7135 40.3468 18.8689 40.4315 18.9854 40.6115C19.1089 40.7986 19.1689 41.081 19.1689 41.4446V42.2389H18.6429C18.5264 42.2389 18.4099 42.2213 18.3005 42.186C18.1981 42.1542 18.1063 42.0977 18.0251 42.0236C17.9475 41.9495 17.8839 41.8541 17.8345 41.7376C17.7851 41.6212 17.7639 41.4729 17.7639 41.2999C17.7639 41.1516 17.7851 41.0175 17.8275 40.9045C17.8698 40.788 17.9263 40.6892 17.9969 40.608C18.0675 40.5268 18.1452 40.4632 18.2334 40.4174L18.237 40.4138Z" fill="white"/>
<path d="M34.8747 35.9976H33.6074V43.704H34.8747V35.9976Z" fill="white"/>
<path d="M42.3164 39.4853L41.1514 39.2417C40.7384 39.157 40.4454 39.0369 40.2759 38.8851C40.1065 38.7333 40.0182 38.5286 40.0182 38.2709C40.0182 38.0414 40.0818 37.8473 40.2053 37.6778C40.3289 37.5119 40.5089 37.3813 40.7455 37.2895C40.982 37.1977 41.2609 37.1518 41.5892 37.1518C41.9175 37.1518 42.1928 37.1836 42.4647 37.2471C42.7365 37.3107 43.0013 37.4166 43.266 37.5684C43.4143 37.6531 43.5484 37.6884 43.6649 37.6743C43.7814 37.6602 43.8803 37.6143 43.9579 37.5366C44.0356 37.4589 44.085 37.3636 44.1062 37.2542C44.1274 37.1448 44.1168 37.0318 44.078 36.9188C44.0391 36.8059 43.9615 36.7105 43.8485 36.6294C43.5414 36.4246 43.1989 36.2657 42.8142 36.1598C42.4294 36.0539 42.0234 36.001 41.5962 36.001C41.1691 36.001 40.7666 36.0575 40.4066 36.1669C40.0465 36.2763 39.7394 36.4352 39.4781 36.6435C39.2169 36.8518 39.0157 37.0953 38.8745 37.3813C38.7333 37.6672 38.6591 37.9814 38.6591 38.3309C38.6591 38.8851 38.825 39.3335 39.1569 39.6688C39.4887 40.0077 39.99 40.2478 40.6678 40.389L41.8434 40.6326C42.2846 40.7244 42.5953 40.8409 42.7789 40.9856C42.9589 41.1268 43.0507 41.3245 43.0507 41.5716C43.0507 41.8717 42.9236 42.1153 42.6659 42.3024C42.4082 42.4895 42.0022 42.5848 41.4374 42.5848C41.0526 42.5848 40.6854 42.5424 40.3395 42.4577C39.99 42.373 39.6582 42.2353 39.3475 42.0517C39.2134 41.967 39.0863 41.9352 38.9733 41.9564C38.8603 41.9776 38.765 42.0341 38.6909 42.1223C38.6168 42.2106 38.5709 42.313 38.5532 42.433C38.5356 42.5495 38.5532 42.6695 38.6026 42.7895C38.6521 42.9096 38.7403 43.0155 38.8709 43.1002C39.0898 43.2414 39.3404 43.3614 39.6193 43.4567C39.8982 43.5521 40.1912 43.6227 40.5054 43.6685C40.8196 43.7144 41.1303 43.7392 41.4444 43.7392C41.8998 43.7392 42.3093 43.6862 42.6729 43.5803C43.0366 43.4744 43.3472 43.3191 43.6084 43.1214C43.8697 42.9237 44.0674 42.6836 44.205 42.4047C44.3427 42.1259 44.4133 41.8187 44.4133 41.4763C44.4133 40.9432 44.2404 40.5161 43.8944 40.1948C43.5484 39.8736 43.0224 39.6406 42.3199 39.4888L42.3164 39.4853Z" fill="white"/>
<path d="M49.2461 38.6309C48.8472 38.412 48.3777 38.2991 47.8376 38.2991C47.4316 38.2991 47.0645 38.3626 46.7397 38.4862C46.4114 38.6097 46.1325 38.7933 45.896 39.0298C45.6595 39.2663 45.4794 39.5523 45.3559 39.8841C45.2323 40.216 45.1688 40.5902 45.1688 41.0103C45.1688 41.5645 45.2782 42.0481 45.5006 42.4576C45.7195 42.8671 46.0301 43.1813 46.4291 43.4037C46.828 43.6261 47.2975 43.7356 47.8376 43.7356C48.2436 43.7356 48.6107 43.672 48.9355 43.5485C49.2638 43.4249 49.5427 43.2413 49.7792 43.0048C50.0157 42.7683 50.1922 42.4788 50.3193 42.147C50.4429 41.8116 50.5064 41.4339 50.5064 41.0173C50.5064 40.4631 50.397 39.983 50.1746 39.577C49.9522 39.171 49.6451 38.8604 49.2461 38.638V38.6309ZM48.9955 41.9563C48.8861 42.2105 48.7307 42.3976 48.5295 42.5282C48.3283 42.6589 48.0988 42.7189 47.8341 42.7189C47.4352 42.7189 47.1139 42.5741 46.8739 42.2882C46.6338 41.9987 46.5103 41.5751 46.5103 41.0138C46.5103 40.6361 46.5667 40.3219 46.6762 40.0677C46.7856 39.8171 46.9409 39.6264 47.1422 39.5029C47.3398 39.3793 47.5728 39.3158 47.8341 39.3158C48.233 39.3158 48.5542 39.457 48.7943 39.7394C49.0343 40.0218 49.1579 40.4454 49.1579 41.0138C49.1579 41.3915 49.1014 41.7057 48.992 41.9599L48.9955 41.9563Z" fill="white"/>
<path d="M55.3957 38.6309C54.9968 38.412 54.5273 38.2991 53.9872 38.2991C53.5812 38.2991 53.2141 38.3626 52.8893 38.4862C52.561 38.6097 52.2821 38.7933 52.0456 39.0298C51.8091 39.2663 51.6326 39.5523 51.5055 39.8841C51.3819 40.216 51.3184 40.5902 51.3184 41.0103C51.3184 41.5645 51.4278 42.0481 51.6502 42.4576C51.8691 42.8671 52.1797 43.1813 52.5787 43.4037C52.9776 43.6261 53.4471 43.7356 53.9872 43.7356C54.3932 43.7356 54.7603 43.672 55.0851 43.5485C55.4134 43.4249 55.6923 43.2413 55.9288 43.0048C56.1653 42.7683 56.3418 42.4788 56.4689 42.147C56.5925 41.8116 56.656 41.4339 56.656 41.0173C56.656 40.4631 56.5466 39.983 56.3242 39.577C56.1053 39.171 55.7947 38.8604 55.3957 38.638V38.6309ZM55.1451 41.9563C55.0357 42.2105 54.8803 42.3976 54.6826 42.5282C54.4814 42.6553 54.252 42.7189 53.9872 42.7189C53.5883 42.7189 53.267 42.5741 53.027 42.2882C52.7834 41.9987 52.6634 41.5751 52.6634 41.0138C52.6634 40.6361 52.7199 40.3219 52.8293 40.0677C52.9387 39.8171 53.0941 39.6264 53.2918 39.5029C53.4894 39.3793 53.7224 39.3158 53.9872 39.3158C54.3861 39.3158 54.7074 39.457 54.9474 39.7394C55.1875 40.0218 55.311 40.4454 55.311 41.0138C55.311 41.3915 55.2545 41.7057 55.1451 41.9599V41.9563Z" fill="white"/>
<path d="M62.1102 38.3204C61.8984 38.3204 61.7324 38.3768 61.6195 38.4898C61.5065 38.6028 61.45 38.7722 61.45 38.9911V39.217C61.33 38.984 61.1535 38.7863 60.917 38.6275C60.5887 38.4086 60.2039 38.2957 59.7626 38.2957C59.3213 38.2957 58.9083 38.4051 58.5623 38.6275C58.2164 38.8499 57.9481 39.1605 57.7574 39.563C57.5633 39.9654 57.468 40.4455 57.468 41.0104C57.468 41.5752 57.5633 42.0482 57.7574 42.4577C57.9481 42.8672 58.2164 43.1814 58.5623 43.4038C58.9083 43.6262 59.3072 43.7357 59.7626 43.7357C60.218 43.7357 60.5745 43.6262 60.8993 43.4109C61.1358 43.252 61.3123 43.0579 61.4394 42.8319V44.9642C61.4394 45.1831 61.4959 45.3525 61.6089 45.4655C61.7219 45.5784 61.8878 45.6349 62.0996 45.6349C62.3114 45.6349 62.4773 45.5784 62.5973 45.4655C62.7138 45.3525 62.7739 45.1831 62.7739 44.9642V38.9982C62.7739 38.7793 62.7174 38.6098 62.6044 38.4969C62.4914 38.3839 62.3255 38.3274 62.1137 38.3274L62.1102 38.3204ZM60.8287 42.5248C60.6275 42.6519 60.398 42.7155 60.1333 42.7155C59.7344 42.7155 59.4131 42.5707 59.1731 42.2848C58.9295 41.9953 58.8094 41.5717 58.8094 41.0104C58.8094 40.6326 58.8659 40.3185 58.9754 40.0643C59.0848 39.8136 59.2401 39.623 59.4378 39.4994C59.6355 39.3759 59.8685 39.3123 60.1333 39.3123C60.5322 39.3123 60.8534 39.4536 61.0935 39.736C61.3335 40.0184 61.4571 40.442 61.4571 41.0104C61.4571 41.3881 61.4006 41.7023 61.2912 41.9565C61.1817 42.2106 61.0264 42.3977 60.8287 42.5284V42.5248Z" fill="white"/>
<path d="M67.3737 36.1387C67.289 36.0787 67.1725 36.054 67.0313 36.0681L66.6676 36.0999C65.9687 36.1634 65.4356 36.3787 65.0649 36.7459C64.6943 37.113 64.5107 37.6637 64.5107 38.3945V38.4051H64.02C63.8506 38.4051 63.7164 38.4474 63.6246 38.5322C63.5328 38.6169 63.4869 38.7404 63.4869 38.9064C63.4869 39.0723 63.5328 39.1852 63.6246 39.2735C63.7164 39.3617 63.847 39.4076 64.02 39.4076H64.5107V43.0261C64.5107 43.245 64.5707 43.4144 64.6872 43.5344C64.8037 43.6509 64.9696 43.7109 65.185 43.7109C65.6262 43.7109 65.8486 43.4815 65.8486 43.0296V39.4112H66.7559C66.9253 39.4112 67.0595 39.3653 67.1513 39.277C67.2431 39.1888 67.289 39.0652 67.289 38.9099C67.289 38.7546 67.2431 38.6204 67.1513 38.5357C67.0595 38.451 66.9289 38.4086 66.7559 38.4086H65.8486V38.1827C65.8486 37.8191 65.9404 37.5508 66.1275 37.3707C66.3111 37.1942 66.6076 37.0883 67.0136 37.0601L67.1619 37.0495C67.2678 37.0424 67.356 37.0001 67.4231 36.9259C67.4902 36.8518 67.5361 36.7635 67.5572 36.6647C67.5784 36.5658 67.5749 36.467 67.5467 36.3717C67.5184 36.2764 67.4619 36.1987 67.3772 36.1352L67.3737 36.1387Z" fill="white"/>
<path d="M71.3487 38.4122C71.2604 38.3239 71.1404 38.2851 70.9921 38.2992C70.5085 38.3416 70.1202 38.4722 69.8272 38.6946C69.6154 38.8535 69.4565 39.0688 69.3471 39.3371V38.9947C69.3471 38.7758 69.2906 38.6063 69.1776 38.4934C69.0646 38.3804 68.9023 38.3239 68.6975 38.3239C68.4928 38.3239 68.3304 38.3804 68.2174 38.4934C68.1044 38.6063 68.0479 38.7758 68.0479 38.9947V43.0297C68.0479 43.2485 68.108 43.418 68.2245 43.538C68.3409 43.6545 68.5104 43.7145 68.7328 43.7145C68.9552 43.7145 69.1211 43.6545 69.2341 43.538C69.3471 43.4215 69.4071 43.2521 69.4071 43.0297V40.8198C69.4071 40.4138 69.5165 40.0996 69.7389 39.8737C69.9578 39.6513 70.2861 39.5171 70.7203 39.4748L70.9568 39.4536C71.1475 39.4324 71.2922 39.3653 71.3875 39.2559C71.4828 39.1465 71.5252 39.0017 71.5111 38.8252C71.4969 38.6416 71.444 38.504 71.3557 38.4157L71.3487 38.4122Z" fill="white"/>
<path d="M76.7393 41.2187C76.8275 41.1516 76.8734 41.0528 76.8734 40.9257C76.8734 40.5197 76.8169 40.1561 76.7075 39.8313C76.5981 39.5065 76.4357 39.2312 76.2274 39.0052C76.0191 38.7793 75.7649 38.6028 75.4684 38.4828C75.1719 38.3627 74.84 38.3027 74.4694 38.3027C73.9645 38.3027 73.5127 38.4192 73.1208 38.6487C72.7255 38.8817 72.4148 39.1994 72.1924 39.6054C71.9665 40.0113 71.857 40.4844 71.857 41.0245C71.857 41.5646 71.9735 42.0589 72.203 42.4648C72.436 42.8708 72.7643 43.185 73.1914 43.4039C73.6186 43.6263 74.1269 43.7357 74.7165 43.7357C74.9954 43.7357 75.2954 43.6969 75.6202 43.6227C75.945 43.5486 76.2309 43.4321 76.478 43.2768C76.6051 43.1991 76.6969 43.1073 76.7499 42.9979C76.8028 42.892 76.824 42.7861 76.8099 42.6837C76.7958 42.5813 76.7534 42.4931 76.6863 42.4225C76.6192 42.3519 76.5275 42.3095 76.4145 42.2989C76.3015 42.2883 76.1674 42.3272 76.0191 42.4119C75.8144 42.5248 75.592 42.606 75.3625 42.6519C75.1295 42.6978 74.9248 42.7225 74.7377 42.7225C74.2046 42.7225 73.7986 42.5778 73.5268 42.2919C73.3115 42.0624 73.1808 41.7376 73.1385 41.3246H76.3615C76.5239 41.3246 76.651 41.2893 76.7393 41.2222V41.2187ZM73.7598 39.4147C73.9681 39.2771 74.2223 39.2065 74.5223 39.2065C74.7941 39.2065 75.0201 39.2665 75.2001 39.383C75.3802 39.4995 75.5214 39.6689 75.6167 39.8913C75.6979 40.0749 75.7402 40.2973 75.7544 40.5515H73.135C73.1597 40.3502 73.2056 40.1631 73.2762 40.0008C73.3856 39.7501 73.548 39.5524 73.7563 39.4147H73.7598Z" fill="white"/>
<path d="M82.5253 41.2187C82.6135 41.1516 82.6594 41.0528 82.6594 40.9257C82.6594 40.5197 82.6029 40.1561 82.4935 39.8313C82.384 39.5065 82.2217 39.2312 82.0134 39.0052C81.8051 38.7758 81.5509 38.6028 81.2544 38.4828C80.9579 38.3627 80.626 38.3027 80.2553 38.3027C79.7505 38.3027 79.2987 38.4192 78.9068 38.6487C78.5114 38.8817 78.2008 39.1994 77.9784 39.6054C77.7524 40.0113 77.643 40.4844 77.643 41.0245C77.643 41.5646 77.7595 42.0589 77.989 42.4648C78.222 42.8708 78.5503 43.185 78.9774 43.4039C79.4046 43.6263 79.9129 43.7357 80.5025 43.7357C80.7813 43.7357 81.0814 43.6969 81.4062 43.6227C81.731 43.5486 82.0169 43.4321 82.264 43.2768C82.3911 43.1991 82.4829 43.1073 82.5358 42.9979C82.5888 42.892 82.61 42.7861 82.5959 42.6837C82.5817 42.5813 82.5394 42.4931 82.4723 42.4225C82.4052 42.3519 82.3134 42.3095 82.2005 42.2989C82.0875 42.2883 81.9534 42.3272 81.8051 42.4119C81.6003 42.5248 81.3779 42.606 81.1485 42.6519C80.9155 42.6978 80.7107 42.7225 80.5236 42.7225C79.9906 42.7225 79.5846 42.5778 79.3128 42.2919C79.0974 42.0624 78.9668 41.7376 78.9245 41.3246H82.1475C82.3099 41.3246 82.437 41.2893 82.5253 41.2222V41.2187ZM79.5458 39.4147C79.7541 39.2771 80.0082 39.2065 80.3083 39.2065C80.5801 39.2065 80.8061 39.2665 80.9861 39.383C81.1661 39.4995 81.3073 39.6689 81.4027 39.8913C81.4839 40.0749 81.5262 40.2973 81.5403 40.5515H78.9209C78.9456 40.3502 78.9915 40.1631 79.0621 40.0008C79.1716 39.7501 79.334 39.5524 79.5422 39.4147H79.5458Z" fill="white"/>
<path d="M80.1035 29.4631H77.6112C77.41 29.4631 77.2547 29.3996 77.1276 29.2584C76.9758 29.0925 76.8487 28.8842 76.7499 28.6371C76.6475 28.3758 76.5663 28.0934 76.5098 27.7863C76.4498 27.4792 76.4074 27.1897 76.3827 26.9249C76.3404 26.4907 76.2486 26.0389 76.1074 25.5835C75.9626 25.1175 75.7402 24.6833 75.4472 24.2949C75.1472 23.8996 74.7553 23.5748 74.2858 23.3277C73.6045 22.9711 72.6831 22.8511 71.5852 23.0382C71.2639 23.0912 70.9498 23.1582 70.6426 23.2359C70.339 23.3136 70.0531 23.3912 69.7848 23.4724C69.5165 23.5536 69.3012 23.6242 69.1388 23.6772L68.9128 23.7513L69.6189 26.4978L69.8978 26.3636C70.2967 26.1695 70.7026 26.0318 71.1016 25.9471C71.504 25.8624 71.8358 25.82 72.0865 25.82C72.496 25.82 72.8137 25.933 73.0608 26.1659C73.3044 26.3989 73.4597 26.8332 73.5233 27.458C73.5762 28.0934 73.6609 28.5982 73.7669 28.9513C73.8233 29.1348 73.8798 29.3043 73.9434 29.4596H7.73816C7.12391 29.4596 6.71088 29.3184 6.51319 29.036C6.29431 28.7289 6.18488 28.3264 6.18488 27.8428V23.7266H3.3572V31.5636C3.3572 32.2485 3.26541 32.7709 3.08184 33.1098C2.88062 33.484 2.4217 33.6041 1.63446 33.5158C1.45795 33.4946 1.2885 33.4734 1.14024 33.4487L0.292991 33.2687L-1.52588e-05 36.0717L0.194145 36.1352C0.28946 36.167 0.388306 36.1917 0.490681 36.2058C0.578936 36.2199 0.681312 36.234 0.780157 36.2446C0.949606 36.2729 1.1473 36.2976 1.38029 36.3188C1.60975 36.34 1.85333 36.3505 2.10398 36.3505C2.76412 36.3505 3.35367 36.2305 3.85848 35.9905C4.3633 35.7539 4.79751 35.4186 5.147 34.9985C5.49296 34.5819 5.7542 34.0877 5.92718 33.5264C6.09309 32.9827 6.18135 32.3897 6.18135 31.7648C6.30844 31.8601 6.44964 31.9449 6.59791 32.0296C6.95799 32.2238 7.36396 32.3261 7.79818 32.3261H73.668C73.9963 32.3261 74.3246 32.2661 74.6423 32.1461C74.9177 32.0437 75.1754 31.8425 75.4084 31.546C75.6626 31.7331 75.9626 31.899 76.3086 32.0437C76.764 32.2308 77.23 32.3261 77.6959 32.3261H82.9136V17.2593H80.1071V29.4596L80.1035 29.4631Z" fill="white"/>
<path d="M88.5407 17.2627H85.7342V32.3295H88.5407V17.2627Z" fill="white"/>
<path d="M107.141 24.1961C106.792 23.8184 106.365 23.5218 105.863 23.31C105.366 23.1018 104.801 22.9958 104.19 22.9958C103.523 22.9958 102.891 23.1194 102.312 23.363C101.737 23.603 101.228 23.9384 100.798 24.362C100.37 24.7857 100.028 25.2834 99.7879 25.8447C99.5443 26.4095 99.4208 27.0132 99.4208 27.6416C99.4208 28.2347 99.509 28.8171 99.6855 29.3749C99.8656 29.9468 100.173 30.4587 100.6 30.8964C101.023 31.3342 101.585 31.6872 102.27 31.9449C102.947 32.1991 103.791 32.3261 104.78 32.3261H105.415C105.373 32.6439 105.295 32.958 105.182 33.2652C105.041 33.65 104.815 33.9959 104.518 34.2925C104.222 34.5925 103.826 34.8396 103.343 35.0303C102.859 35.2209 102.255 35.3162 101.546 35.3162C100.836 35.3162 100.162 35.2315 99.6396 35.0656C99.1242 34.8997 98.7006 34.6737 98.3758 34.3948C98.0546 34.1159 97.818 33.7912 97.6733 33.424C97.525 33.0498 97.4474 32.6439 97.4474 32.2167C97.4474 31.8884 97.4897 31.5777 97.5709 31.2883C97.6557 30.9847 97.751 30.7058 97.8533 30.4657C97.9804 30.1692 98.1216 29.9009 98.2628 29.6644L98.4041 29.4349L96.4095 28.3617V28.3194L96.2259 28.2664C96.0247 28.2099 95.9753 28.3017 95.7388 28.683C95.594 28.9124 95.4422 29.2302 95.2798 29.6291C95.121 30.0245 94.9692 30.494 94.8315 31.0235C94.6903 31.5636 94.6197 32.1567 94.6197 32.7851C94.6197 33.4134 94.7468 34.0489 94.9939 34.6878C95.241 35.3303 95.647 35.9163 96.1942 36.4388C96.7378 36.9542 97.4474 37.3814 98.3017 37.7026C99.1525 38.0239 100.19 38.1863 101.38 38.1863C102.57 38.1863 103.572 38.0027 104.427 37.6391C105.284 37.2719 106.001 36.7848 106.566 36.1882C107.131 35.588 107.554 34.8926 107.819 34.1265C108.084 33.364 108.222 32.5733 108.222 31.7754V27.2215C108.222 26.6108 108.126 26.0459 107.943 25.5376C107.756 25.0257 107.484 24.5774 107.138 24.2032L107.141 24.1961ZM103.946 25.76C104.405 25.76 104.751 25.8906 105.002 26.1554C105.256 26.4272 105.38 26.7414 105.38 27.1121V29.4596H104.575C104.247 29.4596 103.932 29.4208 103.643 29.3467C103.36 29.2725 103.113 29.1596 102.902 29.0078C102.697 28.863 102.531 28.6724 102.407 28.4429C102.287 28.217 102.224 27.9416 102.224 27.6169C102.224 27.3168 102.273 27.0485 102.376 26.8261C102.478 26.6002 102.612 26.4025 102.778 26.2436C102.944 26.0848 103.131 25.9612 103.329 25.88C103.526 25.7988 103.735 25.7565 103.943 25.7565L103.946 25.76Z" fill="white"/>
<path d="M102.093 21.7357C102.513 21.7357 102.87 21.5944 103.145 21.3156C103.424 21.0367 103.565 20.6942 103.565 20.3024C103.565 19.9105 103.424 19.5681 103.145 19.2892C102.866 19.0103 102.513 18.8691 102.093 18.8691C101.673 18.8691 101.316 19.0103 101.038 19.2892C100.759 19.5681 100.617 19.9105 100.617 20.3024C100.617 20.6942 100.759 21.0367 101.038 21.3156C101.316 21.5944 101.669 21.7357 102.093 21.7357Z" fill="white"/>
<path d="M106.283 21.7357C106.704 21.7357 107.06 21.5944 107.339 21.3156C107.618 21.0367 107.759 20.6942 107.759 20.3024C107.759 19.9105 107.618 19.5681 107.339 19.2892C107.06 19.0103 106.707 18.8691 106.283 18.8691C105.86 18.8691 105.507 19.0103 105.228 19.2892C104.949 19.5681 104.808 19.907 104.808 20.3024C104.808 20.6978 104.949 21.0367 105.228 21.3156C105.507 21.5944 105.86 21.7357 106.283 21.7357Z" fill="white"/>
<path d="M142.549 29.4632H139.693C139.107 29.4632 138.708 29.322 138.507 29.0395C138.288 28.7324 138.179 28.33 138.179 27.8463V23.7301H135.372V28.6618C135.372 28.9442 135.33 29.1631 135.249 29.3149C135.196 29.4137 135.054 29.4667 134.832 29.4667H134.345C133.755 29.4667 133.353 29.3255 133.148 29.0431C132.926 28.7359 132.809 28.337 132.809 27.8499V24.8316H129.964V28.6653C129.964 28.9478 129.925 29.1702 129.847 29.3255C129.83 29.3608 129.773 29.4702 129.466 29.4702H129.099C128.499 29.4702 128.089 29.322 127.885 29.029C127.655 28.7042 127.546 28.3194 127.546 27.8534V25.6258H124.76V28.7254C124.76 29.0819 124.697 29.2549 124.64 29.3361C124.566 29.4455 124.372 29.4667 124.22 29.4667H119.006V27.2992C119.006 26.6778 118.911 26.0989 118.727 25.5764C118.54 25.0504 118.261 24.588 117.901 24.2067C117.538 23.8219 117.096 23.5219 116.581 23.31C116.069 23.1018 115.487 22.9959 114.848 22.9959C114.177 22.9959 113.552 23.13 112.998 23.3983C112.447 23.6631 111.963 24.0302 111.565 24.4856C111.166 24.941 110.851 25.4776 110.633 26.0812C110.414 26.6814 110.301 27.3239 110.301 27.9875C110.301 28.5135 110.385 29.0395 110.558 29.5514C110.731 30.0704 111.014 30.5434 111.395 30.9564C111.78 31.3695 112.281 31.7048 112.888 31.9555C113.492 32.2061 114.24 32.3297 115.109 32.3297H116.2C116.168 32.6262 116.101 32.8733 115.995 33.0604C115.861 33.3005 115.684 33.4841 115.458 33.6182C115.222 33.7559 114.95 33.8512 114.643 33.9006C114.318 33.9536 113.969 33.9783 113.605 33.9783C113.358 33.9783 113.058 33.9642 112.708 33.9394C112.359 33.9112 111.992 33.8724 111.603 33.8194L111.335 33.7806L111.137 36.5588L111.367 36.5977C111.783 36.6683 112.168 36.7106 112.511 36.7318C112.853 36.753 113.185 36.7636 113.503 36.7636C114.265 36.7636 114.978 36.6753 115.624 36.4988C116.277 36.3223 116.853 36.0434 117.34 35.6728C117.831 35.2986 118.226 34.8043 118.512 34.2077C118.77 33.6747 118.929 33.0463 118.989 32.3297H124.199C124.803 32.3297 125.364 32.2132 125.862 31.9802C126.25 31.8002 126.578 31.546 126.836 31.2177C127.009 31.4542 127.232 31.6731 127.493 31.8708C127.895 32.1744 128.421 32.3297 129.06 32.3297H129.59C130.126 32.3297 130.645 32.2132 131.125 31.9802C131.496 31.8002 131.81 31.546 132.064 31.2212C132.234 31.4542 132.446 31.6731 132.7 31.8708C133.092 32.1779 133.625 32.3297 134.292 32.3297H134.839C135.446 32.3297 136.004 32.2026 136.498 31.959C136.873 31.7719 137.183 31.5177 137.42 31.2071C137.6 31.4507 137.826 31.6731 138.09 31.8743C138.493 32.1779 139.033 32.3332 139.697 32.3332H145.359V17.2664H142.553V29.4667L142.549 29.4632ZM114.124 25.8906C114.315 25.8024 114.512 25.76 114.721 25.76C115.18 25.76 115.529 25.9294 115.787 26.2754C116.059 26.6425 116.193 27.1897 116.193 27.9028V29.4596H115.024C114.763 29.4596 114.509 29.4243 114.269 29.3573C114.039 29.2937 113.838 29.1878 113.662 29.0395C113.489 28.8948 113.347 28.7077 113.241 28.4782C113.136 28.2488 113.083 27.9593 113.083 27.6204C113.083 27.3309 113.132 27.0697 113.227 26.8438C113.323 26.6178 113.45 26.4201 113.602 26.2613C113.753 26.1024 113.93 25.9789 114.124 25.8906Z" fill="white"/>
<path d="M150.986 17.2627H148.18V32.3295H150.986V17.2627Z" fill="white"/>
<path d="M183.736 23.8818L187.464 24.5525C188.12 24.6726 188.558 25.3009 188.442 25.9576L186.853 34.7795C186.733 35.4361 186.105 35.8739 185.448 35.7574L181.72 35.0866C181.063 34.9666 180.626 34.3382 180.742 33.6816L182.331 24.8597C182.451 24.2031 183.079 23.7653 183.736 23.8818ZM183.768 34.4018C184.05 34.4512 184.318 34.2641 184.368 33.9852C184.417 33.7063 184.23 33.4345 183.951 33.3851C183.669 33.3357 183.4 33.5228 183.351 33.8016C183.302 34.0805 183.489 34.3524 183.768 34.4018ZM184.562 25.6081L186.09 25.8834C186.232 25.9081 186.366 25.8164 186.39 25.6751C186.415 25.5339 186.323 25.3998 186.182 25.3751L184.654 25.0997C184.512 25.075 184.378 25.1668 184.354 25.308C184.329 25.4492 184.421 25.5834 184.562 25.6081Z" fill="white"/>
<path d="M190.475 21.213C190.651 20.1116 190.722 18.982 190.711 17.8241C190.68 17.0156 190.182 16.2108 189.197 15.9813C188.47 15.8189 188.251 16.2108 187.421 16.0554C187.195 16.0131 186.966 15.9707 186.736 15.9319C185.903 15.7907 185.836 15.3459 185.098 15.2435C184.096 15.1164 183.33 15.6918 183.033 16.4402C182.62 17.5205 182.292 18.6078 182.073 19.6986C181.932 20.4611 182.592 21.1036 183.083 21.2272C184.029 21.4743 185.098 19.9175 185.681 20.0198C186.115 20.101 186.546 20.1787 186.98 20.2528C187.562 20.3587 188.018 22.1874 188.992 22.2897C189.497 22.3427 190.362 21.972 190.471 21.2095L190.475 21.213ZM185.589 18.1241L185.141 18.0429L185.06 18.4913C185.024 18.6819 184.844 18.8054 184.657 18.7737C184.47 18.7419 184.343 18.5583 184.375 18.3712L184.456 17.9229L184.008 17.8417C183.817 17.8064 183.693 17.6264 183.729 17.4393C183.764 17.2486 183.944 17.1251 184.131 17.1568L184.579 17.238L184.661 16.7897C184.696 16.5991 184.876 16.4755 185.063 16.5073C185.25 16.5391 185.377 16.7226 185.346 16.9097L185.264 17.3581L185.713 17.4393C185.903 17.4746 186.027 17.6546 185.995 17.8417C185.963 18.0288 185.78 18.1559 185.593 18.1241H185.589ZM188.212 19.4126C187.944 19.3703 187.757 19.1196 187.799 18.8513C187.841 18.5795 188.092 18.3959 188.36 18.4383C188.629 18.4807 188.816 18.7313 188.773 18.9996C188.731 19.2679 188.48 19.455 188.212 19.4126ZM189.253 18.2653C188.985 18.223 188.798 17.9723 188.84 17.704C188.883 17.4357 189.133 17.2486 189.402 17.291C189.67 17.3334 189.857 17.584 189.815 17.8523C189.772 18.1206 189.522 18.3077 189.253 18.2653Z" fill="white"/>
<path d="M191.287 28.8805L192.572 29.1135C192.632 29.1241 192.695 29.1206 192.755 29.0994C192.815 29.0818 192.868 29.0465 192.911 29.0006L193.433 28.4569C193.518 28.3687 193.627 28.3016 193.744 28.2628C193.86 28.2239 193.987 28.2169 194.111 28.2381L195.544 28.4958C195.668 28.5169 195.781 28.5699 195.88 28.6476C195.978 28.7252 196.053 28.8241 196.102 28.937L196.402 29.6289C196.427 29.6854 196.466 29.7349 196.515 29.7737C196.564 29.8125 196.621 29.8372 196.681 29.8478L196.854 29.8796L196.886 29.6925C196.896 29.6431 196.921 29.6007 196.963 29.5725C197.006 29.5442 197.055 29.5336 197.105 29.5407L197.662 29.6395C197.712 29.6501 197.754 29.6748 197.782 29.7172C197.811 29.7596 197.821 29.809 197.814 29.8584L197.782 30.0455L197.969 30.0773C198.167 30.1126 198.34 30.2256 198.457 30.3879C198.573 30.5503 198.616 30.7551 198.58 30.9528L197.878 34.8501C197.842 35.0478 197.729 35.2208 197.567 35.3373C197.405 35.4538 197.2 35.4961 197.002 35.4608L190.32 34.257C190.122 34.2217 189.949 34.1088 189.832 33.9464C189.716 33.784 189.674 33.5792 189.709 33.3815L190.411 29.4842C190.447 29.2865 190.56 29.1135 190.722 28.997C190.884 28.8805 191.089 28.8382 191.287 28.8735V28.8805ZM193.793 34.1229C194.217 34.2005 194.651 34.1476 195.043 33.9781C195.435 33.8052 195.77 33.5227 196.003 33.1627C196.236 32.8026 196.356 32.379 196.346 31.9518C196.339 31.5211 196.204 31.1046 195.957 30.7551C195.714 30.4021 195.368 30.1302 194.969 29.9749C194.57 29.8196 194.132 29.7843 193.712 29.8761C193.292 29.9678 192.911 30.1797 192.611 30.4903C192.314 30.801 192.113 31.1893 192.039 31.6129C191.936 32.1777 192.063 32.7638 192.392 33.2368C192.72 33.7098 193.221 34.0311 193.79 34.1335L193.793 34.1229Z" fill="white"/>
<path d="M194.429 30.5962C194.704 30.6456 194.958 30.7762 195.159 30.9704C195.361 31.1645 195.502 31.4152 195.562 31.687C195.622 31.9588 195.597 32.2448 195.495 32.506C195.392 32.7673 195.216 32.9897 194.987 33.152C194.757 33.3109 194.485 33.3992 194.206 33.4062C193.927 33.4097 193.652 33.3321 193.416 33.1838C193.179 33.032 192.995 32.8167 192.883 32.559C192.77 32.3013 192.738 32.0189 192.787 31.7435C192.854 31.3728 193.063 31.048 193.373 30.8327C193.68 30.6174 194.062 30.5362 194.432 30.6032L194.429 30.5962ZM194.026 32.8237C194.249 32.8626 194.475 32.8131 194.662 32.6861C194.845 32.559 194.972 32.3613 195.015 32.1389C195.025 32.0895 195.015 32.04 194.983 31.9977C194.955 31.9553 194.912 31.9271 194.863 31.92C194.814 31.9129 194.764 31.92 194.722 31.9518C194.679 31.98 194.651 32.0224 194.644 32.0718C194.623 32.1954 194.552 32.3048 194.45 32.3754C194.348 32.446 194.22 32.4742 194.097 32.4531C194.047 32.4425 193.998 32.4531 193.956 32.4848C193.913 32.5131 193.885 32.5554 193.878 32.6049C193.871 32.6543 193.878 32.7037 193.91 32.7461C193.938 32.7884 193.98 32.8167 194.03 32.8237H194.026Z" fill="white"/>
<path fill-rule="evenodd" clip-rule="evenodd" d="M196.183 15.8896L196.056 16.5885C195.975 17.0404 196.275 17.4711 196.727 17.5523L197.895 17.7606C197.959 17.7712 198.001 17.8347 197.991 17.8982L197.066 23.0347C197.055 23.0982 196.992 23.1406 196.928 23.13L195.76 22.9217C195.308 22.8405 194.877 23.1406 194.796 23.5924L194.669 24.2914C194.588 24.7433 194.888 25.174 195.339 25.2552L197.44 25.6329C197.779 25.6929 198.132 25.6188 198.414 25.4211C198.697 25.2234 198.891 24.9198 198.954 24.5809L200.299 17.111C200.359 16.7721 200.285 16.4191 200.088 16.1367C199.89 15.8543 199.586 15.6601 199.247 15.5966C198.538 15.4695 197.606 15.3 197.147 15.2188C196.695 15.1376 196.264 15.4377 196.183 15.8896Z" fill="white"/>
<path fill-rule="evenodd" clip-rule="evenodd" d="M194.189 24.3233C194.192 24.2844 194.196 24.2456 194.203 24.2068L194.33 23.5078C194.457 22.7982 195.135 22.3287 195.844 22.4558L196.66 22.6041L197.458 18.1701L196.642 18.0219C195.933 17.8948 195.463 17.217 195.59 16.5074L195.717 15.8084C195.724 15.7696 195.735 15.7308 195.742 15.692L195.385 15.6284C195.046 15.5684 194.693 15.6425 194.411 15.8402C194.129 16.0379 193.934 16.3415 193.871 16.6804C193.596 18.209 193.055 21.2238 192.78 22.7488C192.72 23.0877 192.794 23.4407 192.992 23.7231C193.19 24.0056 193.493 24.1997 193.832 24.2633L194.189 24.3268V24.3233Z" fill="white"/>
<path fill-rule="evenodd" clip-rule="evenodd" d="M199.992 17.8488L201.284 17.3581C201.468 17.2875 201.56 17.0828 201.489 16.8992C201.418 16.7156 201.214 16.6239 201.03 16.6945L199.738 17.1852C199.555 17.2558 199.463 17.4605 199.533 17.6441C199.604 17.8277 199.809 17.9194 199.992 17.8488Z" fill="white"/>
<path fill-rule="evenodd" clip-rule="evenodd" d="M198.457 24.3161L199.498 25.2269C199.646 25.3575 199.872 25.3399 199.999 25.1916C200.13 25.0433 200.112 24.8174 199.964 24.6903L198.923 23.7795C198.774 23.6489 198.548 23.6666 198.421 23.8148C198.291 23.9631 198.308 24.189 198.457 24.3161Z" fill="white"/>
<path d="M183.506 4.79411L189.356 1.11918C189.614 0.956792 189.945 1.0168 190.129 1.25686L194.33 6.74277C194.478 6.93693 194.492 7.19464 194.365 7.40292C194.238 7.6112 194.002 7.71711 193.765 7.67474L192.964 7.53001L192.138 12.1193C192.106 12.3028 191.929 12.4228 191.749 12.3911L188.992 11.8969C188.809 11.8651 188.689 11.6886 188.72 11.5085L189.222 8.72321L187.601 8.4302L187.1 11.2155C187.068 11.3991 186.892 11.5191 186.712 11.4873L183.958 10.9931C183.775 10.9614 183.655 10.7848 183.686 10.6048L184.512 6.01555L183.711 5.87082C183.471 5.82845 183.287 5.64488 183.242 5.40836C183.196 5.17184 183.298 4.93179 183.503 4.8047L183.506 4.79411Z" fill="white"/>
<path d="M185.515 0.953204L187.728 1.35212L184.77 3.20547L185.127 1.2215C185.158 1.03793 185.335 0.917902 185.515 0.949674V0.953204Z" fill="white"/>
<path d="M177.713 0.0318944C177.65 0.0671963 177.604 0.13074 177.593 0.201344L177.431 1.1086C176.799 1.2251 176.167 1.41573 175.888 1.70873C174.924 2.7219 174.377 5.76845 174.928 7.05344C175.087 7.42411 175.616 7.81949 176.164 8.15133L176.001 9.05859C175.987 9.1292 176.008 9.20333 176.058 9.25981C176.104 9.3163 176.174 9.34807 176.248 9.34454L176.926 9.32689C177.043 9.32689 177.138 9.23863 177.159 9.12567L177.208 8.85737C177.463 9.17156 177.816 9.36572 178.193 9.43632C178.659 9.52105 179.115 9.4222 179.471 9.15038C179.475 9.15038 179.478 9.14332 179.482 9.13979L180.393 9.30571C180.59 9.34101 180.781 9.21039 180.816 9.0127L180.968 8.17604C181.003 7.97835 180.873 7.78772 180.675 7.75242L180.308 7.68535L181.152 2.99019L181.519 3.05727C181.717 3.09257 181.907 2.96195 181.942 2.76426L182.094 1.92761C182.13 1.72992 181.999 1.53929 181.801 1.50398L180.908 1.3416C180.654 0.942684 180.251 0.6991 179.821 0.617906C179.429 0.547302 179.016 0.607315 178.659 0.826187L178.712 0.540242C178.733 0.427276 178.67 0.31431 178.564 0.271947L177.936 0.0213038C177.869 -0.00340755 177.791 0.000122646 177.727 0.0354246L177.713 0.0318944ZM175.595 6.7675C175.157 5.74374 175.648 3.01844 176.414 2.21002C176.562 2.05469 177.074 1.90996 177.692 1.80405L176.651 7.59356C176.111 7.27938 175.68 6.96519 175.595 6.7675ZM178.469 8.39139C178.08 8.32078 177.819 7.95011 177.89 7.55826C177.96 7.16994 178.331 6.90871 178.723 6.97931C179.115 7.04991 179.372 7.42058 179.302 7.81243C179.231 8.20428 178.861 8.46199 178.469 8.39139ZM180.255 2.51362C180.184 2.90194 179.814 3.16317 179.422 3.09257C179.034 3.02197 178.772 2.6513 178.843 2.25944C178.914 1.86759 179.284 1.60989 179.676 1.68049C180.068 1.7511 180.326 2.12177 180.255 2.51362Z" fill="white"/>
<path d="M171.073 23.5325L170.187 28.4571L171.419 28.6795L171.853 28.3759C172.072 28.2241 172.337 28.1641 172.602 28.2135L174.571 28.5665C175.115 28.6654 175.475 29.1843 175.38 29.728L175.143 31.0412C175.044 31.5849 174.525 31.9485 173.982 31.8496L172.012 31.4966C171.751 31.4507 171.521 31.3024 171.369 31.0836L171.066 30.6494L169.834 30.427L169.65 31.4542C169.551 31.9979 169.915 32.5168 170.459 32.6157L175.712 33.5618C176.255 33.6606 176.774 33.297 176.873 32.7534L177.886 27.1298L174.931 26.5967C174.028 26.4343 173.424 25.5659 173.586 24.6586L173.883 23.0171L172.241 22.7206C171.698 22.6217 171.175 22.9853 171.08 23.529L171.073 23.5325Z" fill="white"/>
<path d="M179.136 27.6945L179.076 28.0228L178.419 27.9063L178.066 29.8762L178.723 29.9927L178.663 30.321C178.631 30.501 178.751 30.674 178.931 30.7093C179.111 30.7446 179.284 30.6211 179.319 30.441L179.793 27.8146C179.824 27.6345 179.704 27.4615 179.524 27.4262C179.344 27.3945 179.171 27.5145 179.136 27.6945Z" fill="white"/>
<path d="M174.593 22.8088L174.24 24.7786C174.141 25.3222 174.504 25.8447 175.048 25.94L178.988 26.6496C179.531 26.7484 180.05 26.3848 180.149 25.8412L180.502 23.8713C180.601 23.3277 180.237 22.8088 179.694 22.7099L175.754 22.0003C175.21 21.9015 174.691 22.2651 174.593 22.8088ZM179.069 24.2914L178.952 24.948C178.921 25.1281 178.748 25.2481 178.564 25.2163C178.38 25.1846 178.264 25.0116 178.296 24.828L178.412 24.1714C178.444 23.9914 178.617 23.8678 178.801 23.9031C178.984 23.9384 179.101 24.1079 179.069 24.2914ZM176.442 23.8184L176.326 24.475C176.294 24.655 176.121 24.7751 175.938 24.7433C175.754 24.7115 175.637 24.5385 175.669 24.355L175.786 23.6984C175.818 23.5183 175.991 23.3948 176.174 23.4301C176.358 23.4654 176.474 23.6348 176.442 23.8184Z" fill="white"/>
<path d="M172.234 28.923L171.574 29.3819L169.742 29.0536C169.562 29.0219 169.389 29.1419 169.354 29.3219C169.318 29.502 169.442 29.6749 169.622 29.7102L171.454 30.0385L171.913 30.6987C171.963 30.7693 172.04 30.8222 172.128 30.8364L174.098 31.1894C174.278 31.2212 174.451 31.1011 174.487 30.9211L174.723 29.6079C174.755 29.4278 174.635 29.2548 174.455 29.2195L172.485 28.8665C172.397 28.8524 172.309 28.8701 172.234 28.9195V28.923Z" fill="white"/>
<path d="M177.572 20.3588L178.31 20.4929C178.448 20.5176 178.575 20.4258 178.599 20.2917L178.645 20.0446L179.383 20.1787C179.517 20.2034 179.648 20.1117 179.673 19.9775C179.697 19.8434 179.606 19.7127 179.471 19.688L178.734 19.5539L179.891 13.1219L180.629 13.256C180.763 13.2807 180.894 13.189 180.919 13.0548C180.943 12.9207 180.852 12.79 180.718 12.7653L179.98 12.6312L180.026 12.3841C180.05 12.2464 179.959 12.1193 179.824 12.0946L179.087 11.9604L177.576 20.3623L177.572 20.3588Z" fill="white"/>
<path d="M175.242 13.5491L174.974 15.0424C174.949 15.1765 175.041 15.3071 175.175 15.3319L175.913 15.466L176.269 13.4785L175.532 13.3444C175.398 13.3196 175.267 13.4114 175.242 13.5456V13.5491Z" fill="white"/>
<path d="M174.794 16.0274L174.526 17.5207C174.501 17.6548 174.593 17.7854 174.727 17.8101L175.465 17.9443L175.821 15.9568L175.083 15.8226C174.949 15.7979 174.819 15.8897 174.794 16.0238V16.0274Z" fill="white"/>
<path d="M173.851 12.7937L172.958 17.75C172.835 18.4278 173.29 19.0809 173.968 19.2009L175.2 19.4233L175.376 18.4384L174.639 18.3043C174.233 18.2301 173.961 17.8418 174.031 17.4323L174.3 15.9391C174.335 15.7484 174.437 15.5896 174.579 15.4801C174.483 15.3283 174.441 15.1448 174.476 14.9541L174.744 13.4609C174.819 13.0549 175.207 12.7831 175.616 12.8537L176.354 12.9878L176.531 12.0029L175.299 11.7805C174.621 11.6569 173.968 12.1123 173.848 12.7901L173.851 12.7937Z" fill="white"/>
<path d="M176.983 12.3383L175.736 19.2645C175.662 19.674 175.934 20.0623 176.344 20.1364L177.081 20.2706L178.592 11.8687L177.855 11.7346C177.445 11.6605 177.057 11.9323 176.983 12.3418V12.3383Z" fill="white"/>
<path d="M198.404 10.3753C197.782 10.2623 197.369 9.66926 197.479 9.04795C197.592 8.42664 198.185 8.0136 198.806 8.12304C199.427 8.23248 199.841 8.82908 199.731 9.45039C199.618 10.0717 199.025 10.4847 198.404 10.3753Z" fill="white"/>
<path d="M200.801 12.2075L195.791 11.3073C195.721 11.2932 195.654 11.2543 195.615 11.1943C195.573 11.1343 195.558 11.0602 195.569 10.986L196.416 6.28735L201.697 7.23697L200.804 12.2075H200.801ZM198.909 7.57587C198.577 7.51586 198.238 7.55469 197.931 7.68884C197.624 7.82299 197.362 8.04539 197.182 8.3278C197.002 8.61022 196.907 8.93853 196.914 9.2739C196.921 9.60926 197.027 9.93404 197.218 10.2129C197.408 10.4883 197.677 10.7001 197.991 10.8236C198.301 10.9472 198.644 10.9754 198.972 10.9013C199.3 10.8307 199.6 10.6613 199.833 10.4212C200.066 10.1812 200.222 9.87403 200.282 9.54572C200.359 9.10445 200.261 8.64552 200.003 8.27838C199.745 7.90771 199.353 7.65707 198.912 7.57587H198.909Z" fill="white"/>
<path d="M196.752 4.381L196.508 5.74012L201.789 6.68974L202.033 5.33062C202.047 5.26002 202.029 5.18588 201.987 5.12587C201.945 5.06586 201.881 5.02702 201.81 5.0129L197.069 4.1586C196.999 4.14448 196.925 4.16213 196.865 4.20449C196.801 4.24332 196.759 4.31039 196.748 4.381H196.752Z" fill="white"/>
<path d="M203.674 15.773C202.813 14.7139 201.524 14.1067 200.162 14.1067H170.254L170.194 13.5772C169.922 11.2932 167.984 9.56689 165.682 9.56689H163.836C163.003 9.56689 162.322 10.2482 162.322 11.0813C162.322 11.9145 163.003 12.5958 163.836 12.5958H165.682C166.456 12.5958 167.091 13.1712 167.179 13.9267L169.269 31.6341C169.724 35.4467 172.948 38.3238 176.792 38.3238H200.917C201.75 38.3238 202.432 37.6425 202.432 36.8094C202.432 35.9762 201.75 35.2949 200.917 35.2949H176.792C174.84 35.2949 173.145 34.0523 172.51 32.2696H195.862C199.463 32.2696 202.584 29.7102 203.279 26.1835L204.61 19.5397C204.882 18.2088 204.536 16.832 203.671 15.7694L203.674 15.773ZM201.644 18.9501L200.314 25.594C199.89 27.7121 198.012 29.2406 195.866 29.2406H172.044L170.621 17.1321H200.165C200.621 17.1321 201.044 17.3298 201.33 17.6934C201.616 18.0429 201.74 18.5124 201.648 18.9501H201.644ZM175.945 42.8637C175.945 44.5299 174.582 45.889 172.919 45.889C171.257 45.889 169.894 44.5264 169.894 42.8637C169.894 41.2009 171.257 39.8383 172.919 39.8383C174.582 39.8383 175.945 41.2009 175.945 42.8637ZM200.917 42.8637C200.917 44.5299 199.555 45.889 197.892 45.889C196.229 45.889 194.867 44.5264 194.867 42.8637C194.867 41.2009 196.229 39.8383 197.892 39.8383C199.555 39.8383 200.917 41.2009 200.917 42.8637Z" fill="white"/>
<path d="M159.3 18.6502C159.3 17.8171 159.981 17.1357 160.814 17.1357H163.144C163.977 17.1357 164.659 17.8171 164.659 18.6502C164.659 19.4833 163.977 20.1646 163.144 20.1646H160.814C159.981 20.1646 159.3 19.4833 159.3 18.6502ZM159.3 24.7045C159.3 23.8713 159.981 23.19 160.814 23.19H163.84C164.673 23.19 165.354 23.8713 165.354 24.7045C165.354 25.5376 164.673 26.2189 163.84 26.2189H160.814C159.981 26.2189 159.3 25.5376 159.3 24.7045ZM166.869 30.7587C166.869 31.5919 166.187 32.2732 165.354 32.2732H160.814C159.981 32.2732 159.3 31.5919 159.3 30.7587C159.3 29.9256 159.981 29.2443 160.814 29.2443H165.354C166.187 29.2443 166.869 29.9256 166.869 30.7587Z" fill="white"/>
</svg>
