<svg width="18" height="18" viewBox="0 0 18 18" fill="none" xmlns="http://www.w3.org/2000/svg">
<g clip-path="url(#clip0_817_3195)">
<path d="M9 0C4.03725 0 0 4.03725 0 9C0 13.9628 4.03725 18 9 18C13.9628 18 18 13.9628 18 9C18 4.03725 13.9628 0 9 0ZM9 16.5C4.8645 16.5 1.5 13.1355 1.5 9C1.5 7.8795 1.7475 6.816 2.19 5.85975L3.4395 7.173C3.63825 7.3815 3.9135 7.5 4.2015 7.5H5.66325C5.87925 7.5 6.08625 7.5855 6.23925 7.7385L6.519 8.01825C6.6675 8.16675 6.75075 8.36775 6.75075 8.577V9.29925C6.75075 9.588 6.8655 9.864 7.0695 10.068L7.962 10.9605C8.14725 11.1458 8.2515 11.397 8.2515 11.6588V13.4325C8.2515 13.884 8.6175 14.25 9.069 14.25H9.22875C9.5475 14.25 9.837 14.0648 9.9705 13.7753L11.6512 10.1332C11.8515 9.69975 11.6978 9.186 11.2935 8.9325L9.372 7.73175C9.12975 7.58025 8.85 7.5 8.56425 7.5H7.491C7.25775 7.5 7.0335 7.407 6.8685 7.242L6.4245 6.798C6.1905 6.564 6.1905 6.18525 6.4245 5.952L6.82125 5.55525C7.0035 5.373 7.28175 5.328 7.512 5.4435L8.172 5.7735C8.44275 5.90925 8.7705 5.856 8.985 5.6415L8.98725 5.63925C9.216 5.4105 9.2595 5.05575 9.093 4.779L8.46525 3.732C8.334 3.513 8.337 3.2415 8.47575 3.027C8.69775 2.68425 9.06075 2.1255 9.46275 1.515C11.9167 1.665 14.0565 3 15.3135 4.9545L14.121 5.64225C13.7535 5.85375 13.5712 6.2835 13.6747 6.6945L14.145 8.57475C14.2125 8.84475 14.3947 9.07125 14.6437 9.195L16.4235 10.0785C15.8993 13.7048 12.7703 16.5 9.0015 16.5H9Z" fill="white"/>
</g>
<defs>
<clipPath id="clip0_817_3195">
<rect width="18" height="18" fill="white"/>
</clipPath>
</defs>
</svg>
