<svg width="24" height="24" viewBox="0 0 24 24" fill="none" xmlns="http://www.w3.org/2000/svg">
<path d="M12 7.59839C9.57119 7.59839 7.59839 9.57119 7.59839 12C7.59839 14.4288 9.57119 16.4064 12 16.4064C14.4288 16.4064 16.4064 14.4288 16.4064 12C16.4064 9.57119 14.4288 7.59839 12 7.59839Z" fill="white"/>
<path d="M18.6435 0H5.35705C2.40505 0 0.000244141 2.4048 0.000244141 5.3568V18.6432C0.000244141 21.6 2.40505 24 5.35705 24H18.6435C21.6003 24 24.0003 21.6 24.0003 18.6432V5.3568C24.0003 2.4048 21.6003 0 18.6435 0ZM12.0003 19.776C7.71385 19.776 4.22425 16.2864 4.22425 12C4.22425 7.7136 7.71385 4.2288 12.0003 4.2288C16.2867 4.2288 19.7763 7.7136 19.7763 12C19.7763 16.2864 16.2867 19.776 12.0003 19.776ZM19.9395 5.64C19.0323 5.64 18.2931 4.9056 18.2931 3.9984C18.2931 3.0912 19.0323 2.352 19.9395 2.352C20.8467 2.352 21.5859 3.0912 21.5859 3.9984C21.5859 4.9056 20.8467 5.64 19.9395 5.64Z" fill="white"/>
</svg>
