<svg width="63" height="62" viewBox="0 0 63 62" fill="none" xmlns="http://www.w3.org/2000/svg">
<path d="M58.0768 24.0562C57.154 23.1334 56.4342 22.0536 55.9433 20.8756C55.4525 19.6975 55.1973 18.4214 55.1973 17.1191C55.1973 14.4032 54.0978 11.9554 52.3242 10.1753C50.5442 8.40182 48.0965 7.3024 45.3806 7.3024C42.7759 7.3024 40.2825 6.26832 38.4435 4.42291C36.5259 2.50527 34.0129 1.5498 31.4998 1.5498C28.9868 1.5498 26.4737 2.50527 24.5562 4.42291C23.6334 5.34561 22.5536 6.06541 21.3756 6.55624C20.1976 7.04707 18.9214 7.3024 17.6191 7.3024C14.9031 7.3024 12.4555 8.40182 10.6754 10.1753C8.90186 11.9554 7.8024 14.4032 7.8024 17.1191C7.8024 18.4214 7.54715 19.6975 7.05632 20.8756C6.56549 22.0536 5.84557 23.1334 4.92283 24.0562C3.00531 25.9737 2.0498 28.4867 2.0498 30.9998C2.0498 33.5128 3.00531 36.0259 4.92283 37.9434C5.84557 38.8662 6.56549 39.946 7.05632 41.124C7.54715 42.3021 7.8024 43.5782 7.8024 44.8805C7.8024 47.5964 8.90186 50.0442 10.6754 51.8243C12.4555 53.5978 14.9031 54.6972 17.6191 54.6972C18.9214 54.6972 20.1976 54.9525 21.3756 55.4434C22.5536 55.9342 23.6334 56.654 24.5562 57.5767C26.4737 59.4943 28.9868 60.4498 31.4998 60.4498C34.0129 60.4498 36.5259 59.4943 38.4435 57.5767C39.3662 56.654 40.4461 55.9342 41.6241 55.4434C42.8021 54.9525 44.0782 54.6972 45.3806 54.6972C48.0965 54.6972 50.5442 53.5978 52.3242 51.8243C54.0978 50.0442 55.1973 47.5964 55.1973 44.8805C55.1973 43.5782 55.4525 42.3021 55.9433 41.124C56.4342 39.946 57.154 38.8662 58.0768 37.9434C59.9943 36.0259 60.9498 33.5128 60.9498 30.9998C60.9498 28.4867 59.9943 25.9737 58.0768 24.0562ZM45.7602 24.1478L28.3585 41.5495C27.8676 42.0404 27.2001 42.3152 26.5064 42.3152C25.8127 42.3152 25.1452 42.0404 24.6543 41.5495L17.2395 34.1346C16.2185 33.1136 16.2185 31.4579 17.2395 30.4304C18.2604 29.4096 19.9227 29.4096 20.9436 30.4304L26.5064 35.9999L42.056 20.4501C43.0769 19.4293 44.7392 19.4293 45.7602 20.4501C46.7811 21.4711 46.7811 23.1268 45.7602 24.1478Z" fill="#00B4D8"/>
</svg>
