<svg width="59" height="65" viewBox="0 0 59 65" fill="none" xmlns="http://www.w3.org/2000/svg">
<path d="M29.5295 26.7236C30.602 26.7236 31.6103 26.3059 32.3685 25.5476C32.9054 25.0106 32.9054 24.1399 32.3685 23.6029C31.8315 23.0659 30.9609 23.0659 30.4239 23.6029C29.9308 24.0962 29.1281 24.0963 28.6349 23.6029C28.0979 23.0659 27.2273 23.0659 26.6903 23.6029C26.1534 24.1399 26.1534 25.0106 26.6903 25.5476C27.4488 26.3058 28.457 26.7236 29.5295 26.7236Z" fill="#33CCCC"/>
<path d="M49.9741 38.84L40.407 37.0906L36.5542 35.039V32.5015C40.11 30.1934 42.4671 26.1881 42.4671 21.6423V10.5942C42.4671 5.02825 37.9389 0.5 32.3729 0.5H26.6862C21.1202 0.5 16.592 5.02825 16.592 10.5942V21.6423C16.592 26.1629 18.9231 30.1488 22.446 32.4627V35.039L18.5932 37.0906L9.02612 38.84C3.82937 39.7902 0.0576172 44.3143 0.0576172 49.5971V63.125C0.0576172 63.8844 0.673242 64.5 1.43262 64.5H57.5676C58.327 64.5 58.9426 63.8844 58.9426 63.125V49.5971C58.9426 44.3144 55.1709 39.7902 49.9741 38.84ZM37.1594 47.4495L31.4357 43.8485L35.6247 37.6598L38.3425 39.1069L37.1594 47.4495ZM19.342 10.5942C19.342 6.54462 22.6366 3.25 26.6862 3.25H32.3729C36.4225 3.25 39.7171 6.54462 39.7171 10.5942V13.9404C37.9469 14.7009 36.0631 15.086 34.1056 15.086C31.3502 15.086 28.6766 14.2987 26.3739 12.8094C25.3022 12.1163 24.0911 11.7786 22.8894 11.7786C21.6405 11.7786 20.402 12.1434 19.3419 12.8527V10.5942H19.342ZM19.342 21.6424V16.9258C19.588 16.4681 19.8925 16.0444 20.2511 15.6637C21.452 14.3894 23.3989 14.1601 24.8805 15.1184C27.6292 16.8962 30.8192 17.836 34.1057 17.836C36.0454 17.836 37.9246 17.517 39.7172 16.8886V21.6425C39.7172 27.2599 35.1471 31.83 29.5297 31.83C23.9121 31.8299 19.342 27.2598 19.342 21.6424ZM29.5296 34.5799C31.027 34.5799 32.4655 34.3232 33.8042 33.8532V35.4431L29.5001 41.8021L25.196 35.4431V33.8325C26.5515 34.3158 28.0102 34.5799 29.5296 34.5799ZM20.6579 39.1069L23.3756 37.6598L27.5646 43.8485L21.841 47.4495L20.6579 39.1069ZM2.80762 49.5971C2.80762 45.6427 5.63087 42.2564 9.52074 41.5451L18.0061 39.9936L21.0911 61.75H2.80762V49.5971ZM23.8687 61.75L22.2639 50.4324L29.5001 45.8796L36.7364 50.4324L35.1315 61.75H23.8687ZM56.1926 61.75H37.9091L40.9942 39.9938L49.4796 41.5452C53.3695 42.2565 56.1927 45.6429 56.1927 49.5973L56.1926 61.75Z" fill="black"/>
</svg>
