<svg width="24" height="24" viewBox="0 0 24 24" fill="none" xmlns="http://www.w3.org/2000/svg">
<g clip-path="url(#clip0_144_10420)">
<path d="M10 0H5C2.243 0 0 2.243 0 5V19C0 21.757 2.243 24 5 24H10C10.552 24 11 23.553 11 23V1C11 0.447 10.552 0 10 0ZM9 22H5C3.346 22 2 20.654 2 19V5C2 3.346 3.346 2 5 2H9V22ZM19 0H14C13.448 0 13 0.447 13 1V23C13 23.553 13.448 24 14 24H19C21.757 24 24 21.757 24 19V5C24 2.243 21.757 0 19 0ZM22 19C22 20.654 20.654 22 19 22H15V2H19C20.654 2 22 3.346 22 5V19Z" fill="#1A1A1A"/>
</g>
<defs>
<clipPath id="clip0_144_10420">
<rect width="24" height="24" fill="white"/>
</clipPath>
</defs>
</svg>
