<svg width="16" height="18" viewBox="0 0 16 18" fill="none" xmlns="http://www.w3.org/2000/svg">
<path d="M7.9685 18.006L7.44569 17.5579C6.72495 16.9544 0.43174 11.5193 0.43174 7.54372C0.43174 3.38129 3.80607 0.00695801 7.9685 0.00695801C12.1309 0.00695801 15.5053 3.38129 15.5053 7.54372C15.5053 11.5194 9.21205 16.9544 8.4943 17.5609L7.9685 18.006ZM7.9685 1.63663C4.70765 1.64032 2.06513 4.28284 2.06144 7.54368C2.06144 10.0413 5.93327 14.0311 7.9685 15.8572C10.0038 14.0303 13.8756 10.0382 13.8756 7.54368C13.8719 4.28284 11.2294 1.64035 7.9685 1.63663Z" fill="white"/>
<path d="M7.9685 10.5312C6.31855 10.5312 4.981 9.19367 4.981 7.54372C4.981 5.89377 6.31855 4.55621 7.9685 4.55621C9.61846 4.55621 10.956 5.89377 10.956 7.54372C10.956 9.19367 9.61849 10.5312 7.9685 10.5312ZM7.9685 6.04993C7.14353 6.04993 6.47475 6.71871 6.47475 7.54369C6.47475 8.36866 7.14353 9.03744 7.9685 9.03744C8.79348 9.03744 9.46226 8.36866 9.46226 7.54369C9.46226 6.71871 8.79351 6.04993 7.9685 6.04993Z" fill="white"/>
</svg>
