<svg width="24" height="24" viewBox="0 0 24 24" fill="none" xmlns="http://www.w3.org/2000/svg">
<path d="M23.707 22.276L20.02 18.587L22.707 15.9C22.949 15.658 23.051 15.31 22.977 14.976C22.902 14.642 22.663 14.37 22.341 14.253L13.61 11.091C12.893 10.846 12.115 11.026 11.579 11.563C11.044 12.099 10.864 12.877 11.109 13.594C11.11 13.599 11.112 13.605 11.114 13.61L14.27 22.324C14.386 22.646 14.66 22.886 14.994 22.96C15.324 23.034 15.677 22.933 15.918 22.691L18.607 20.002L22.294 23.691C22.685 24.082 23.317 24.081 23.708 23.691C24.099 23.3 24.098 22.667 23.707 22.276ZM15.615 20.164L13.022 13.004L20.18 15.597L15.615 20.164ZM11 18.999C11 19.551 10.552 19.999 10 19.999C4.557 20.006 -0.00399737 15.551 2.62901e-06 10C2.62901e-06 4.486 4.486 0 10 0C15.514 0 20 4.486 20 10C20 10.552 19.553 11 19 11C18.447 11 18 10.552 18 10C18 5.589 14.411 2 10 2C5.589 2 2 5.589 2 10C2 12.254 2.941 14.29 4.446 15.745C5.027 14.315 6.145 13.135 7.6 12.499C8.105 12.279 8.695 12.508 8.917 13.015C9.138 13.521 8.907 14.111 8.401 14.332C7.264 14.828 6.436 15.82 6.132 16.997C7.28 17.634 8.598 18 10.001 18C10.553 18 11.001 18.448 11.001 19L11 18.999ZM6.5 7.5C6.5 9.43 8.07 11 10 11C11.93 11 13.5 9.43 13.5 7.5C13.5 5.57 11.93 4 10 4C8.07 4 6.5 5.57 6.5 7.5ZM11.5 7.5C11.5 8.327 10.827 9 10 9C9.173 9 8.5 8.327 8.5 7.5C8.5 6.673 9.173 6 10 6C10.827 6 11.5 6.673 11.5 7.5Z" fill="#1A1A1A"/>
</svg>
