<svg width="24" height="24" viewBox="0 0 24 24" fill="none" xmlns="http://www.w3.org/2000/svg">
<path d="M12 4.00003C13.1046 4.00003 14 3.10459 14 2.00002C14 0.895438 13.1046 0 12 0C10.8954 0 10 0.895438 10 2.00002C10 3.10459 10.8954 4.00003 12 4.00003Z" fill="#1A1A1A"/>
<path d="M12 14C13.1046 14 14 13.1046 14 12C14 10.8954 13.1046 10 12 10C10.8954 10 10 10.8954 10 12C10 13.1046 10.8954 14 12 14Z" fill="#1A1A1A"/>
<path d="M12 24C13.1046 24 14 23.1046 14 22C14 20.8954 13.1046 20 12 20C10.8954 20 10 20.8954 10 22C10 23.1046 10.8954 24 12 24Z" fill="#1A1A1A"/>
</svg>
