<svg width="21" height="22" viewBox="0 0 21 22" fill="none" xmlns="http://www.w3.org/2000/svg">
<path d="M20.6754 12.5235L18.9338 6.25717C18.4233 4.42139 17.3138 2.80893 15.7817 1.6761C14.2495 0.543266 12.3827 -0.0449281 10.4779 0.00501204C8.57316 0.0549521 6.73972 0.74016 5.26907 1.95172C3.79842 3.16328 2.77495 4.83166 2.36135 6.69167L1.01293 12.7554C0.863986 13.4254 0.86743 14.1204 1.02301 14.7889C1.17858 15.4574 1.48232 16.0824 1.9118 16.6178C2.34127 17.1533 2.88552 17.5854 3.50435 17.8823C4.12318 18.1792 4.8008 18.3334 5.48718 18.3333H6.50835C6.71874 19.3694 7.28085 20.3009 8.09944 20.97C8.91804 21.6391 9.94277 22.0046 11 22.0046C12.0573 22.0046 13.082 21.6391 13.9006 20.97C14.7192 20.3009 15.2813 19.3694 15.4917 18.3333H16.2598C16.9664 18.3334 17.6634 18.1701 18.2965 17.8562C18.9295 17.5422 19.4813 17.0862 19.9089 16.5237C20.3365 15.9612 20.6283 15.3075 20.7614 14.6135C20.8945 13.9196 20.8645 13.2043 20.6754 12.5235ZM11 20.1667C10.4333 20.1643 9.8811 19.9869 9.41904 19.6588C8.95698 19.3306 8.60759 18.8677 8.41868 18.3333H13.5813C13.3924 18.8677 13.0431 19.3306 12.581 19.6588C12.1189 19.9869 11.5668 20.1643 11 20.1667ZM18.4488 15.4138C18.1934 15.7526 17.8625 16.0272 17.4823 16.2158C17.1022 16.4044 16.6833 16.5017 16.2589 16.5H5.48718C5.0754 16.4999 4.66889 16.4074 4.29766 16.2292C3.92643 16.051 3.59995 15.7917 3.34233 15.4705C3.0847 15.1493 2.90251 14.7743 2.8092 14.3732C2.71588 13.9721 2.71382 13.5552 2.80318 13.1533L4.15068 7.08858C4.4755 5.62761 5.27938 4.31714 6.43451 3.3655C7.58965 2.41385 9.02975 1.87566 10.5259 1.83646C12.022 1.79727 13.4883 2.25933 14.6917 3.14918C15.8951 4.03904 16.7665 5.30562 17.1673 6.74758L18.909 13.0139C19.0241 13.4222 19.0424 13.8516 18.9625 14.2682C18.8827 14.6848 18.7068 15.077 18.4488 15.4138Z" fill="#1A1A1A"/>
</svg>
