<svg width="50" height="51" viewBox="0 0 50 51" fill="none" xmlns="http://www.w3.org/2000/svg">
<g clip-path="url(#clip0_817_11534)">
<path d="M22.9167 27.5833H6.25C2.79792 27.5833 0 30.3812 0 33.8333V44.25C0 47.7021 2.79792 50.5 6.25 50.5H22.9167V27.5833ZM7.29167 35.9167C7.29167 34.7667 8.225 33.8333 9.375 33.8333H13.5417C14.6917 33.8333 15.625 34.7667 15.625 35.9167C15.625 37.0667 14.6917 38 13.5417 38H9.375C8.225 38 7.29167 37.0667 7.29167 35.9167ZM43.75 27.5833H27.0833V50.5H43.75C47.2021 50.5 50 47.7021 50 44.25V33.8333C50 30.3812 47.2021 27.5833 43.75 27.5833ZM40.625 38H36.4583C35.3083 38 34.375 37.0667 34.375 35.9167C34.375 34.7667 35.3083 33.8333 36.4583 33.8333H40.625C41.775 33.8333 42.7083 34.7667 42.7083 35.9167C42.7083 37.0667 41.775 38 40.625 38ZM31.25 0.5H18.75C15.2979 0.5 12.5 3.29792 12.5 6.75V23.4167H37.5V6.75C37.5 3.29792 34.7021 0.5 31.25 0.5ZM27.0833 10.9167H22.9167C21.7667 10.9167 20.8333 9.98333 20.8333 8.83333C20.8333 7.68333 21.7667 6.75 22.9167 6.75H27.0833C28.2333 6.75 29.1667 7.68333 29.1667 8.83333C29.1667 9.98333 28.2333 10.9167 27.0833 10.9167Z" fill="#00B4D8"/>
</g>
<defs>
<clipPath id="clip0_817_11534">
<rect width="50" height="50" fill="white" transform="translate(0 0.5)"/>
</clipPath>
</defs>
</svg>
