<svg width="62" height="62" viewBox="0 0 62 62" fill="none" xmlns="http://www.w3.org/2000/svg">
<g clip-path="url(#clip0_206_4082)">
<path d="M38.7504 25.1874H36.8129V21.3123C36.8129 17.0381 33.3369 13.5621 29.0627 13.5621C24.7885 13.5621 21.3126 17.0381 21.3126 21.3123V25.1874H19.375C18.3055 25.1874 17.4375 26.0554 17.4375 27.1249V42.6252C17.4375 43.6947 18.3055 44.5627 19.375 44.5627H38.7504C39.8199 44.5627 40.688 43.6947 40.688 42.6252V27.1249C40.688 26.0554 39.8199 25.1874 38.7504 25.1874ZM32.9378 25.1874H25.1877V21.3123C25.1877 19.1771 26.9276 17.4372 29.0627 17.4372C31.1979 17.4372 32.9378 19.1771 32.9378 21.3123V25.1874Z" fill="#00B4D8"/>
<path d="M60.7844 19.5143C59.7963 19.119 58.6648 19.5995 58.2695 20.5954L57.1109 23.494C53.786 11.0976 42.4902 1.93695 29.0631 1.93695C13.0358 1.93695 0 14.9727 0 31C0 47.0273 13.0358 60.0631 29.0631 60.0631C36.8248 60.0631 44.1255 57.0405 49.6165 51.5534C50.3721 50.7978 50.3721 49.5694 49.6165 48.8137C48.8608 48.0581 47.6324 48.0581 46.8768 48.8137C42.1143 53.5685 35.7902 56.188 29.0631 56.188C15.1748 56.188 3.87508 44.8883 3.87508 31C3.87508 17.1117 15.1748 5.81203 29.0631 5.81203C41.1572 5.81203 51.2828 14.3837 53.6969 25.7687L49.8102 21.8781C49.0546 21.1225 47.8262 21.1225 47.0705 21.8781C46.3149 22.6337 46.3149 23.8621 47.0705 24.6178L54.8207 32.3679C55.185 32.7399 55.681 32.9376 56.1886 32.9376C56.3165 32.9376 56.4482 32.9259 56.58 32.8988C57.2194 32.7671 57.7464 32.3253 57.9866 31.7208L61.8617 22.0331C62.257 21.0372 61.7765 19.9096 60.7844 19.5143Z" fill="#00B4D8"/>
</g>
<defs>
<clipPath id="clip0_206_4082">
<rect width="62" height="62" fill="white"/>
</clipPath>
</defs>
</svg>
