<svg width="21" height="20" viewBox="0 0 21 20" fill="none" xmlns="http://www.w3.org/2000/svg">
<path d="M5.49999 14.9999C5.95999 14.9999 6.33332 14.6266 6.33332 14.1666V12.4999H14.6667V14.1666C14.6667 14.6266 15.04 14.9999 15.5 14.9999C15.96 14.9999 16.3333 14.6266 16.3333 14.1666V4.16325C16.3333 2.79742 17.4392 1.68158 18.825 1.66492C18.8275 1.66492 18.83 1.66658 18.8333 1.66658C19.2933 1.66658 19.6667 1.29325 19.6667 0.833249C19.6667 0.373249 19.2933 -8.46351e-05 18.8333 -8.46351e-05C18.8267 -8.46351e-05 18.8217 0.0032487 18.8158 0.0032487V-0.00341797C16.5283 0.00658203 14.6667 1.87492 14.6667 4.16325V5.83325H6.33332V4.16325C6.33332 2.79742 7.43916 1.68158 8.82499 1.66492C8.82749 1.66492 8.82999 1.66658 8.83332 1.66658C9.29332 1.66658 9.66666 1.29325 9.66666 0.833249C9.66666 0.373249 9.29332 -8.46351e-05 8.83332 -8.46351e-05C8.82666 -8.46351e-05 8.82166 0.0032487 8.81582 0.0032487V-0.00341797C6.52832 0.00658203 4.66666 1.87492 4.66666 4.16325V14.1666C4.66666 14.6266 5.03999 14.9999 5.49999 14.9999ZM14.6667 7.49992V10.8332H6.33332V7.49992H14.6667ZM18 19.9999C17.0608 19.9999 16.1483 19.6066 15.5 18.9791C14.8517 19.6066 13.9392 19.9999 13 19.9999C12.0608 19.9999 11.1483 19.6066 10.5 18.9791C9.85166 19.6066 8.93916 19.9999 7.99999 19.9999C7.06082 19.9999 6.14832 19.6066 5.49999 18.9791C4.85166 19.6066 3.93916 19.9999 2.99999 19.9999C2.17749 19.9999 1.38749 19.6974 0.776656 19.1474C0.434156 18.8399 0.406656 18.3132 0.714156 17.9707C1.02166 17.6291 1.54916 17.6007 1.89082 17.9082C2.19582 18.1824 2.58999 18.3333 3.00082 18.3333C3.74249 18.3333 4.49499 17.8457 4.71499 17.2224C4.83249 16.8891 5.14749 16.6666 5.50082 16.6666C5.85416 16.6666 6.16916 16.8891 6.28666 17.2224C6.50666 17.8457 7.25916 18.3333 8.00082 18.3333C8.74249 18.3333 9.49499 17.8457 9.71499 17.2224C9.83249 16.8891 10.1475 16.6666 10.5008 16.6666C10.8542 16.6666 11.1692 16.8891 11.2867 17.2224C11.5067 17.8457 12.2592 18.3333 13.0008 18.3333C13.7425 18.3333 14.495 17.8457 14.715 17.2224C14.8325 16.8891 15.1475 16.6666 15.5008 16.6666C15.8542 16.6666 16.1692 16.8891 16.2867 17.2224C16.5067 17.8457 17.2592 18.3333 18.0008 18.3333C18.4117 18.3333 18.805 18.1824 19.1108 17.9082C19.4533 17.5999 19.98 17.6291 20.2875 17.9707C20.595 18.3132 20.5667 18.8399 20.225 19.1474C19.6133 19.6974 18.8233 19.9999 18.0017 19.9999H18Z" fill="#1A1A1A"/>
</svg>
