<svg width="19" height="20" viewBox="0 0 19 20" fill="none" xmlns="http://www.w3.org/2000/svg">
<path d="M18.2958 11.3851L16.7125 5.6884C16.2484 4.01951 15.2398 2.55364 13.8469 1.52379C12.4541 0.493945 10.757 -0.0407771 9.02537 0.00462298C7.29375 0.0500231 5.62699 0.67294 4.29004 1.77436C2.95308 2.87578 2.02266 4.39249 1.64665 6.0834L0.420818 11.5959C0.285414 12.205 0.288545 12.8368 0.429979 13.4445C0.571413 14.0522 0.847538 14.6205 1.23797 15.1072C1.6284 15.5939 2.12317 15.9868 2.68574 16.2567C3.24832 16.5266 3.86434 16.6668 4.48832 16.6667H5.41665C5.60791 17.6086 6.11893 18.4555 6.8631 19.0637C7.60728 19.672 8.53885 20.0042 9.49998 20.0042C10.4611 20.0042 11.3927 19.672 12.1369 19.0637C12.881 18.4555 13.3921 17.6086 13.5833 16.6667H14.2817C14.924 16.6668 15.5576 16.5183 16.1331 16.2329C16.7086 15.9476 17.2103 15.533 17.599 15.0216C17.9877 14.5103 18.253 13.9159 18.374 13.2851C18.495 12.6543 18.4677 12.004 18.2958 11.3851ZM9.49998 18.3334C8.98477 18.3313 8.48279 18.17 8.06274 17.8717C7.64268 17.5733 7.32505 17.1525 7.15332 16.6667H11.8467C11.6749 17.1525 11.3573 17.5733 10.9372 17.8717C10.5172 18.17 10.0152 18.3313 9.49998 18.3334ZM16.2717 14.0126C16.0394 14.3206 15.7386 14.5703 15.393 14.7417C15.0474 14.9131 14.6666 15.0016 14.2808 15.0001H4.48832C4.11397 15 3.74442 14.9159 3.40694 14.7539C3.06945 14.5919 2.77266 14.3562 2.53845 14.0641C2.30425 13.7721 2.13862 13.4312 2.05379 13.0666C1.96895 12.702 1.96709 12.323 2.04832 11.9576L3.27332 6.44423C3.56861 5.11607 4.29941 3.92474 5.34953 3.05961C6.39966 2.19448 7.70884 1.70521 9.06896 1.66958C10.4291 1.63395 11.7621 2.054 12.8561 2.86296C13.9501 3.67192 14.7422 4.82336 15.1067 6.13423L16.69 11.8309C16.7946 12.202 16.8113 12.5925 16.7386 12.9712C16.666 13.3499 16.5061 13.7064 16.2717 14.0126Z" fill="#00B4D8"/>
</svg>
