<svg width="24" height="24" viewBox="0 0 24 24" fill="none" xmlns="http://www.w3.org/2000/svg">
<path d="M2.5 2.5C2.5 1.119 3.619 0 5 0C6.381 0 7.5 1.119 7.5 2.5C7.5 3.881 6.381 5 5 5C3.619 5 2.5 3.881 2.5 2.5ZM8 16.463V23C8 23.553 7.552 24 7 24C6.448 24 6 23.553 6 23V17H4V23C4 23.553 3.552 24 3 24C2.448 24 2 23.553 2 23V16.463C0.805 15.77 0 14.478 0 13V10C0 7.794 1.794 6 4 6H6C8.206 6 10 7.794 10 10V13C10 14.478 9.195 15.771 8 16.463ZM8 10C8 8.897 7.103 8 6 8H4C2.897 8 2 8.897 2 10V13C2 14.103 2.897 15 4 15H6C7.103 15 8 14.103 8 13V10ZM24 17C24 20.859 20.86 24 17 24C13.14 24 10 20.859 10 17C10 13.141 13.14 10 17 10C20.86 10 24 13.141 24 17ZM22 17C22 14.243 19.757 12 17 12C14.243 12 12 14.243 12 17C12 19.757 14.243 22 17 22C19.757 22 22 19.757 22 17ZM17 17C17.552 17 18 16.553 18 16V14C18 13.447 17.552 13 17 13C16.448 13 16 13.447 16 14V16C16 16.553 16.448 17 17 17ZM17 18C16.172 18 15.5 18.672 15.5 19.5C15.5 20.328 16.172 21 17 21C17.828 21 18.5 20.328 18.5 19.5C18.5 18.672 17.828 18 17 18Z" fill="#1A1A1A"/>
</svg>
