<svg width="24" height="24" viewBox="0 0 24 24" fill="none" xmlns="http://www.w3.org/2000/svg">
<g clip-path="url(#clip0_470_22719)">
<path d="M19.3332 14.6668C18.5771 14.6674 17.8325 14.852 17.1637 15.2046C16.4949 15.5572 15.9219 16.0673 15.4942 16.6908L8.98518 13.7518C9.44749 12.6354 9.44929 11.3814 8.99018 10.2638L15.4902 7.30976C16.124 8.22652 17.0655 8.88572 18.1438 9.16781C19.222 9.44989 20.3657 9.33616 21.3673 8.84726C22.3689 8.35836 23.1621 7.52666 23.603 6.50303C24.0439 5.47939 24.1034 4.33163 23.7705 3.26793C23.4377 2.20423 22.7347 1.29506 21.7889 0.705314C20.8432 0.115573 19.7174 -0.115668 18.6157 0.0535353C17.5141 0.222739 16.5096 0.78118 15.7844 1.62756C15.0592 2.47394 14.6614 3.55221 14.6632 4.66676C14.6674 4.93056 14.6942 5.19352 14.7432 5.45276L7.83318 8.59276C7.16952 7.97098 6.33868 7.5566 5.44275 7.40052C4.54682 7.24445 3.6248 7.35348 2.78999 7.71422C1.95517 8.07496 1.2439 8.6717 0.743573 9.43112C0.243244 10.1905 -0.0243578 11.0796 -0.0263559 11.989C-0.0283541 12.8984 0.235338 13.7886 0.732325 14.5503C1.22931 15.3119 1.93795 15.9117 2.77117 16.2761C3.6044 16.6405 4.52592 16.7536 5.42253 16.6015C6.31915 16.4493 7.15179 16.0386 7.81818 15.4198L14.7462 18.5478C14.6981 18.8068 14.6716 19.0694 14.6672 19.3328C14.667 20.2559 14.9406 21.1583 15.4533 21.926C15.966 22.6936 16.6949 23.292 17.5477 23.6453C18.4006 23.9987 19.339 24.0912 20.2444 23.9111C21.1498 23.7311 21.9815 23.2866 22.6342 22.6338C23.287 21.9811 23.7315 21.1494 23.9116 20.244C24.0916 19.3386 23.9991 18.4001 23.6457 17.5473C23.2924 16.6945 22.694 15.9656 21.9264 15.4529C21.1588 14.9401 20.2563 14.6666 19.3332 14.6668ZM19.3332 1.99976C19.8607 1.99956 20.3764 2.15581 20.8152 2.44874C21.2539 2.74168 21.5959 3.15814 21.7979 3.64545C21.9999 4.13276 22.0528 4.66904 21.9501 5.18645C21.8473 5.70387 21.5933 6.17917 21.2204 6.55226C20.8474 6.92535 20.3722 7.17945 19.8549 7.28244C19.3375 7.38543 18.8012 7.33267 18.3138 7.13084C17.8264 6.92901 17.4098 6.58718 17.1167 6.14857C16.8236 5.70996 16.6672 5.19428 16.6672 4.66676C16.6677 3.95976 16.9487 3.28186 17.4486 2.78184C17.9484 2.28183 18.6262 2.00055 19.3332 1.99976ZM4.66718 14.6668C4.13965 14.667 3.62392 14.5107 3.1852 14.2178C2.74648 13.9248 2.40449 13.5084 2.20248 13.0211C2.00046 12.5338 1.94751 11.9975 2.0503 11.4801C2.15309 10.9627 2.40702 10.4873 2.77997 10.1143C3.15292 9.74117 3.62813 9.48707 4.1455 9.38408C4.66288 9.28109 5.19917 9.33385 5.68656 9.53568C6.17395 9.73751 6.59054 10.0793 6.88364 10.518C7.17673 10.9566 7.33318 11.4722 7.33318 11.9998C7.33238 12.7067 7.05128 13.3844 6.55151 13.8844C6.05174 14.3843 5.37409 14.6657 4.66718 14.6668ZM19.3332 21.9998C18.8057 21.9998 18.2901 21.8433 17.8515 21.5503C17.4129 21.2572 17.071 20.8407 16.8692 20.3534C16.6673 19.866 16.6145 19.3298 16.7174 18.8125C16.8203 18.2951 17.0743 17.8199 17.4473 17.4469C17.8203 17.0739 18.2955 16.8199 18.8129 16.717C19.3302 16.6141 19.8665 16.6669 20.3538 16.8688C20.8411 17.0706 21.2577 17.4125 21.5507 17.8511C21.8438 18.2896 22.0002 18.8053 22.0002 19.3328C21.9996 20.0399 21.7185 20.718 21.2184 21.218C20.7184 21.7181 20.0403 21.9992 19.3332 21.9998Z" fill="#1A1A1A"/>
</g>
<defs>
<clipPath id="clip0_470_22719">
<rect width="24" height="24" fill="white"/>
</clipPath>
</defs>
</svg>
