<svg width="16" height="18" viewBox="0 0 16 18" fill="none" xmlns="http://www.w3.org/2000/svg">
<path d="M7.96865 18.006L7.44584 17.5579C6.7251 16.9544 0.431885 11.5193 0.431885 7.54372C0.431885 3.38129 3.80622 0.00695801 7.96865 0.00695801C12.1311 0.00695801 15.5054 3.38129 15.5054 7.54372C15.5054 11.5194 9.21219 16.9544 8.49444 17.5609L7.96865 18.006ZM7.96865 1.63663C4.7078 1.64032 2.06528 4.28284 2.06159 7.54368C2.06159 10.0413 5.93342 14.0311 7.96865 15.8572C10.0039 14.0303 13.8757 10.0382 13.8757 7.54368C13.872 4.28284 11.2295 1.64035 7.96865 1.63663Z" fill="#808080"/>
<path d="M7.96846 10.5312C6.31851 10.5312 4.98096 9.19361 4.98096 7.54366C4.98096 5.89371 6.31851 4.55615 7.96846 4.55615C9.61842 4.55615 10.956 5.89371 10.956 7.54366C10.956 9.19361 9.61845 10.5312 7.96846 10.5312ZM7.96846 6.04987C7.14349 6.04987 6.47471 6.71865 6.47471 7.54363C6.47471 8.3686 7.14349 9.03738 7.96846 9.03738C8.79344 9.03738 9.46222 8.3686 9.46222 7.54363C9.46222 6.71865 8.79348 6.04987 7.96846 6.04987Z" fill="#808080"/>
</svg>
