<svg width="20" height="20" viewBox="0 0 20 20" fill="none" xmlns="http://www.w3.org/2000/svg">
<path d="M18.3333 7.6435V5.8335C18.3333 3.076 16.0908 0.833496 13.3333 0.833496H6.66667C3.90917 0.833496 1.66667 3.076 1.66667 5.8335V7.6435C0.696667 7.98766 0 8.9135 0 10.0002V13.3335C0 14.6935 0.655 15.9035 1.66667 16.6643V16.6668V18.3335C1.66667 18.7935 2.04 19.1668 2.5 19.1668C2.96 19.1668 3.33333 18.7935 3.33333 18.3335V17.416C3.6025 17.471 3.88167 17.5002 4.16667 17.5002H15.8333C16.1183 17.5002 16.3975 17.471 16.6667 17.416V18.3335C16.6667 18.7935 17.04 19.1668 17.5 19.1668C17.96 19.1668 18.3333 18.7935 18.3333 18.3335V16.6668V16.6643C19.345 15.9035 20 14.6935 20 13.3335V10.0002C20 8.9135 19.3033 7.98766 18.3333 7.6435ZM6.66667 2.50016H13.3333C15.1717 2.50016 16.6667 3.99516 16.6667 5.8335V7.6435C15.6967 7.98766 15 8.9135 15 10.0002V11.6668H5V10.0002C5 8.9135 4.30333 7.98766 3.33333 7.6435V5.8335C3.33333 3.99516 4.82833 2.50016 6.66667 2.50016ZM18.3333 13.3335C18.3333 14.7118 17.2117 15.8335 15.8333 15.8335H4.16667C2.78833 15.8335 1.66667 14.7118 1.66667 13.3335V10.0002C1.66667 9.541 2.04083 9.16683 2.5 9.16683C2.95917 9.16683 3.33333 9.541 3.33333 10.0002V12.5002C3.33333 12.9602 3.70667 13.3335 4.16667 13.3335H15.8333C16.2933 13.3335 16.6667 12.9602 16.6667 12.5002V10.0002C16.6667 9.541 17.0408 9.16683 17.5 9.16683C17.9592 9.16683 18.3333 9.541 18.3333 10.0002V13.3335Z" fill="#1A1A1A"/>
</svg>
