<svg width="22" height="22" viewBox="0 0 22 22" fill="none" xmlns="http://www.w3.org/2000/svg">
<path d="M19.25 11.3886V10.0833C19.25 7.89528 18.3808 5.79686 16.8336 4.24968C15.2865 2.70251 13.188 1.83331 11 1.83331C8.81197 1.83331 6.71355 2.70251 5.16637 4.24968C3.6192 5.79686 2.75001 7.89528 2.75001 10.0833V11.3886C1.78857 11.812 1.00174 12.5528 0.521242 13.487C0.0407447 14.4211 -0.104255 15.492 0.110517 16.5204C0.325289 17.5487 0.886796 18.472 1.70104 19.1358C2.51528 19.7996 3.53283 20.1635 4.58334 20.1666C5.06957 20.1666 5.53588 19.9735 5.8797 19.6297C6.22352 19.2859 6.41667 18.8195 6.41667 18.3333V12.8333C6.41667 12.3471 6.22352 11.8808 5.8797 11.537C5.53588 11.1931 5.06957 11 4.58334 11V10.0833C4.58334 8.38151 5.25938 6.7494 6.46274 5.54604C7.6661 4.34269 9.2982 3.66665 11 3.66665C12.7018 3.66665 14.3339 4.34269 15.5373 5.54604C16.7406 6.7494 17.4167 8.38151 17.4167 10.0833V11C16.9304 11 16.4641 11.1931 16.1203 11.537C15.7765 11.8808 15.5833 12.3471 15.5833 12.8333V18.3333H12.8333C12.5902 18.3333 12.3571 18.4299 12.1852 18.6018C12.0132 18.7737 11.9167 19.0069 11.9167 19.25C11.9167 19.4931 12.0132 19.7263 12.1852 19.8982C12.3571 20.0701 12.5902 20.1666 12.8333 20.1666H17.4167C18.4672 20.1635 19.4847 19.7996 20.299 19.1358C21.1132 18.472 21.6747 17.5487 21.8895 16.5204C22.1043 15.492 21.9593 14.4211 21.4788 13.487C20.9983 12.5528 20.2114 11.812 19.25 11.3886ZM4.58334 18.3333C3.85399 18.3333 3.15452 18.0436 2.6388 17.5279C2.12307 17.0121 1.83334 16.3127 1.83334 15.5833C1.83334 14.854 2.12307 14.1545 2.6388 13.6388C3.15452 13.123 3.85399 12.8333 4.58334 12.8333V18.3333ZM17.4167 18.3333V12.8333C18.146 12.8333 18.8455 13.123 19.3612 13.6388C19.8769 14.1545 20.1667 14.854 20.1667 15.5833C20.1667 16.3127 19.8769 17.0121 19.3612 17.5279C18.8455 18.0436 18.146 18.3333 17.4167 18.3333Z" fill="#1A1A1A"/>
</svg>
