<svg width="50" height="51" viewBox="0 0 50 51" fill="none" xmlns="http://www.w3.org/2000/svg">
<path d="M31.25 38H2.08333C1.5308 38 1.0009 37.7805 0.610194 37.3898C0.219493 36.9991 0 36.4692 0 35.9167V11.9583C0 9.47193 0.98772 7.08736 2.74587 5.32921C4.50403 3.57105 6.8886 2.58333 9.375 2.58333H21.875C24.3614 2.58333 26.746 3.57105 28.5041 5.32921C30.2623 7.08736 31.25 9.47193 31.25 11.9583V38ZM35.4167 27.5833V38H41.6667C43.8768 38 45.9964 37.122 47.5592 35.5592C49.122 33.9964 50 31.8768 50 29.6667V27.5833H35.4167ZM0.120833 42.1667C-1.10208 50.4042 11.5208 50.4 10.2958 42.1667H0.120833ZM12.6208 42.1667C11.3979 50.4042 24.0208 50.4 22.7958 42.1667H12.6208ZM31.3708 42.1667C30.1479 50.4042 42.7708 50.4 41.5458 42.1667H31.3708ZM35.4167 23.4167H49.4083C49.3583 23.25 47.15 16.6146 47.15 16.6146C46.5986 14.9546 45.5381 13.5105 44.1192 12.4877C42.7002 11.4648 40.995 10.9151 39.2458 10.9167H35.4167V23.4167Z" fill="#00B4D8"/>
</svg>
