<svg width="24" height="24" viewBox="0 0 24 24" fill="none" xmlns="http://www.w3.org/2000/svg">
<g clip-path="url(#clip0_478_23928)">
<path d="M23.126 9.86825L20.975 7.71425V5.99625C20.975 4.34525 19.633 3.00125 17.984 3.00125H16.268L14.117 0.84825C12.986 -0.28275 11.016 -0.28275 9.88601 0.84825L7.73501 3.00125H6.01901C4.36901 3.00125 3.02801 4.34425 3.02801 5.99625V7.71425L0.876008 9.86825C-0.288992 11.0363 -0.288992 12.9352 0.876008 14.1032L3.02701 16.2572V17.9753C3.02701 19.6263 4.36901 20.9702 6.01801 20.9702H7.73401L9.88501 23.1232C10.45 23.6882 11.202 24.0002 12.001 24.0002C12.8 24.0002 13.551 23.6882 14.116 23.1232L16.267 20.9702H17.983C19.633 20.9702 20.974 19.6273 20.974 17.9753V16.2572L23.126 14.1032C24.291 12.9352 24.291 11.0363 23.126 9.86825ZM18.204 10.2113L13.15 15.2063C12.536 15.8162 11.727 16.1222 10.919 16.1222C10.111 16.1222 9.30601 15.8172 8.69001 15.2092L6.09101 12.7102C5.69901 12.3212 5.69501 11.6892 6.08401 11.2962C6.47401 10.9052 7.10501 10.9002 7.49901 11.2892L10.097 13.7872C10.55 14.2362 11.287 14.2372 11.741 13.7872L16.796 8.79125C17.19 8.40125 17.822 8.40525 18.211 8.79825C18.6 9.19125 18.596 9.82225 18.204 10.2113Z" fill="#32AB45"/>
</g>
<defs>
<clipPath id="clip0_478_23928">
<rect width="24" height="24" fill="white"/>
</clipPath>
</defs>
</svg>
