<svg width="21" height="20" viewBox="0 0 21 20" fill="none" xmlns="http://www.w3.org/2000/svg">
<path d="M15.6783 7.58167C16.0008 7.91 15.9958 8.4375 15.6667 8.76L11.9783 12.3808C11.3258 13.0208 10.4858 13.34 9.645 13.34C8.81333 13.34 7.98167 13.0267 7.33167 12.3992L5.74917 10.8433C5.42083 10.5208 5.41667 9.99333 5.73917 9.665C6.06083 9.33583 6.59 9.33167 6.9175 9.655L8.495 11.2058C9.14167 11.8308 10.1625 11.8275 10.8125 11.1908L14.5 7.57083C14.8275 7.2475 15.3533 7.25333 15.6783 7.58167ZM20.5 10C20.5 15.5142 16.0142 20 10.5 20C4.98583 20 0.5 15.5142 0.5 10C0.5 4.48583 4.98583 0 10.5 0C16.0142 0 20.5 4.48583 20.5 10ZM18.8333 10C18.8333 5.405 15.095 1.66667 10.5 1.66667C5.905 1.66667 2.16667 5.405 2.16667 10C2.16667 14.595 5.905 18.3333 10.5 18.3333C15.095 18.3333 18.8333 14.595 18.8333 10Z" fill="white"/>
</svg>
