<svg width="21" height="20" viewBox="0 0 21 20" fill="none" xmlns="http://www.w3.org/2000/svg">
<g clip-path="url(#clip0_193_5221)">
<path d="M6.68677 17.5C7.00982 18.2428 7.54279 18.8751 8.22023 19.3193C8.89766 19.7634 9.69006 20 10.5001 20C11.3101 20 12.1025 19.7634 12.78 19.3193C13.4574 18.8751 13.9904 18.2428 14.3134 17.5H6.68677Z" fill="white"/>
<path d="M19.1601 10.4575L17.7134 5.68834C17.2501 4.02029 16.2429 2.55481 14.8516 1.52459C13.4604 0.49436 11.7648 -0.0415661 10.0342 0.00190092C8.30354 0.0453679 6.63702 0.665736 5.29923 1.76451C3.96143 2.86328 3.02903 4.37747 2.65008 6.06667L1.52675 10.6808C1.37745 11.294 1.36936 11.933 1.50309 12.5497C1.63683 13.1664 1.9089 13.7447 2.29877 14.2409C2.68864 14.7371 3.18612 15.1383 3.75368 15.4141C4.32124 15.69 4.94404 15.8333 5.57508 15.8333H15.1726C15.8232 15.8334 16.4648 15.681 17.0459 15.3885C17.6271 15.096 18.1317 14.6715 18.5193 14.149C18.9069 13.6264 19.1667 13.0203 19.278 12.3793C19.3893 11.7383 19.3489 11.0801 19.1601 10.4575Z" fill="white"/>
</g>
<defs>
<clipPath id="clip0_193_5221">
<rect width="20" height="20" fill="white" transform="translate(0.5)"/>
</clipPath>
</defs>
</svg>
