<svg width="25" height="24" viewBox="0 0 25 24" fill="none" xmlns="http://www.w3.org/2000/svg">
<path d="M24.459 9.2323C24.3593 8.92665 24.0951 8.70375 23.7767 8.65732L16.508 7.60192L13.2574 1.01453C12.9728 0.437864 12.0272 0.437864 11.7427 1.01453L8.49203 7.60192L1.22328 8.65732C0.904969 8.70375 0.640696 8.92665 0.541067 9.2323C0.441437 9.53794 0.52418 9.87314 0.75468 10.0977L6.01395 15.2244L4.77195 22.4653C4.71792 22.7819 4.84794 23.1019 5.10799 23.2911C5.36889 23.4819 5.71337 23.5055 5.99706 23.3552L12.5 19.9374L19.0021 23.3552C19.1254 23.4202 19.2605 23.4523 19.3947 23.4523C19.5695 23.4523 19.7443 23.3983 19.8912 23.2911C20.1512 23.1019 20.2813 22.7819 20.2272 22.4653L18.9852 15.2244L24.2445 10.0977C24.475 9.87314 24.5577 9.53794 24.459 9.2323ZM17.4883 14.3261C17.2898 14.5194 17.1987 14.7997 17.2451 15.0733L18.2726 21.0654L12.8918 18.237C12.7702 18.172 12.6351 18.139 12.5 18.139C12.3649 18.139 12.2298 18.1711 12.1074 18.2361L6.72655 21.0646L7.75409 15.0725C7.80053 14.7989 7.71018 14.5194 7.51093 14.3252L3.15846 10.0825L9.17339 9.20866C9.44864 9.16897 9.68589 8.99589 9.80916 8.74681L12.5 3.29589L15.19 8.74681C15.3133 8.99589 15.5505 9.16897 15.8258 9.20866L21.8407 10.0825L17.4883 14.3261Z" fill="white"/>
</svg>
