<svg width="22" height="22" viewBox="0 0 22 22" fill="none" xmlns="http://www.w3.org/2000/svg">
<g clip-path="url(#clip0_388_15488)">
<path d="M16.0417 1.75726C15.0095 1.77332 13.9998 2.06146 13.1145 2.5926C12.2293 3.12373 11.4999 3.87904 11 4.78226C10.5001 3.87904 9.7707 3.12373 8.88548 2.5926C8.00026 2.06146 6.99056 1.77332 5.95835 1.75726C4.31288 1.82875 2.76258 2.54858 1.64615 3.75948C0.529717 4.97037 -0.062092 6.57391 1.26292e-05 8.21976C1.26292e-05 12.3878 4.38718 16.94 8.06668 20.0264C8.88821 20.7168 9.92692 21.0953 11 21.0953C12.0731 21.0953 13.1118 20.7168 13.9333 20.0264C17.6128 16.94 22 12.3878 22 8.21976C22.0621 6.57391 21.4703 4.97037 20.3539 3.75948C19.2374 2.54858 17.6872 1.82875 16.0417 1.75726ZM12.7554 18.6239C12.2641 19.0377 11.6424 19.2646 11 19.2646C10.3577 19.2646 9.73594 19.0377 9.2446 18.6239C4.53476 14.6722 1.83335 10.8808 1.83335 8.21976C1.77068 7.05992 2.16918 5.92235 2.94193 5.05515C3.71468 4.18796 4.79898 3.6615 5.95835 3.5906C7.11772 3.6615 8.20202 4.18796 8.97476 5.05515C9.74751 5.92235 10.146 7.05992 10.0833 8.21976C10.0833 8.46288 10.1799 8.69604 10.3518 8.86794C10.5237 9.03985 10.7569 9.13643 11 9.13643C11.2431 9.13643 11.4763 9.03985 11.6482 8.86794C11.8201 8.69604 11.9167 8.46288 11.9167 8.21976C11.854 7.05992 12.2525 5.92235 13.0253 5.05515C13.798 4.18796 14.8823 3.6615 16.0417 3.5906C17.201 3.6615 18.2853 4.18796 19.0581 5.05515C19.8308 5.92235 20.2293 7.05992 20.1667 8.21976C20.1667 10.8808 17.4653 14.6722 12.7554 18.6203V18.6239Z" fill="#1A1A1A"/>
</g>
<defs>
<clipPath id="clip0_388_15488">
<rect width="22" height="22" fill="white"/>
</clipPath>
</defs>
</svg>
